<?xml version="1.0" encoding="utf-8"?>
<!-- Generator: Adobe Illustrator 24.1.1, SVG Export Plug-In . SVG Version: 6.00 Build 0)  -->
<svg version="1.1" id="Layer_1" xmlns="http://www.w3.org/2000/svg" xmlns:xlink="http://www.w3.org/1999/xlink" x="0px" y="0px"
	 viewBox="0 0 252.3 144.6" style="enable-background:new 0 0 252.3 144.6;" xml:space="preserve">
<style type="text/css">
	.st0{fill:#FFFFFF;}
</style>
<g>
	<path class="st0" d="M71.9,96.7h-2.1v5.7h-1.7v-5.7h-2.2v-1.6h6L71.9,96.7L71.9,96.7z"/>
	<path class="st0" d="M96.3,97.9h3.1v-2.8h1.7v7.3h-1.7v-2.9h-3.1v2.9h-1.7v-7.3h1.7V97.9z"/>
	<path class="st0" d="M127.3,95.1c1.8,0,2.8,0.9,2.8,2.3c0,1.2-0.7,2-2,2.2l2.1,2.8h-2.1l-1.9-2.7h-0.3v2.7h-1.7v-7.3
		C124.2,95.1,127.3,95.1,127.3,95.1z M125.9,96.7v1.5h1.4c0.6,0,1-0.2,1-0.8c0-0.5-0.4-0.8-1-0.8L125.9,96.7L125.9,96.7z"/>
	<path class="st0" d="M158.6,102.4H153v-7.3h5.5v1.6h-3.8V98h3.6v1.6h-3.6v1.3h3.8V102.4z"/>
	<path class="st0" d="M187.1,102.4h-5.6v-7.3h5.5v1.6h-3.8V98h3.6v1.6h-3.6v1.3h3.8V102.4z"/>
	<path class="st0" d="M67.7,113.4v2.4H66v-7.3h3.1c1.8,0,2.7,1,2.7,2.4c0,1.4-0.9,2.4-2.7,2.4C69.1,113.4,67.7,113.4,67.7,113.4z
		 M67.7,110.1v1.7h1.4c0.6,0,1-0.3,1-0.8c0-0.6-0.4-0.8-1-0.8C69.1,110.1,67.7,110.1,67.7,110.1z"/>
	<path class="st0" d="M101.6,115.8h-1.8l-0.6-1.5h-2.9l-0.6,1.5H94l2.8-7.3h2.1L101.6,115.8z M96.9,112.7h1.8l-0.9-2.4L96.9,112.7z"
		/>
	<path class="st0" d="M129.9,115.8h-5.4v-7.3h1.7v5.7h3.6V115.8z"/>
	<path class="st0" d="M159.9,115.8h-1.7v-5l-1.5,4.3h-1.8l-1.5-4.3v5h-1.7v-7.3h2.4l1.7,4.6l1.6-4.6h2.5L159.9,115.8L159.9,115.8z"
		/>
	<path class="st0" d="M186.6,110.6c-0.5-0.3-1.2-0.6-2.1-0.6c-0.7,0-1.1,0.2-1.1,0.7c0,0.5,0.7,0.6,1.5,0.7l0.3,0.1
		c1.4,0.2,2.3,0.9,2.3,2.1c0,1.7-1.5,2.4-3.1,2.4c-1.2,0-2.4-0.3-3.2-0.9l0.9-1.4c0.6,0.4,1.3,0.8,2.3,0.8c0.6,0,1.1-0.2,1.1-0.7
		c0-0.4-0.5-0.6-1.4-0.7l-0.4-0.1c-1.5-0.2-2.3-0.9-2.3-2.2c0-1.4,1.2-2.3,2.9-2.3c1,0,1.8,0.2,2.9,0.8L186.6,110.6z"/>
	<path class="st0" d="M187.4,90.2c0-8.5-1.8-16.7-5-24c-9.3-22-31-37.4-56.3-37.4c-33.7,0-61.1,27.4-61.1,61.1v1.3h122.2h0.2V91
		L187.4,90.2L187.4,90.2z M121.5,88.5c-0.2-7.1-0.3-14.1-0.5-21.2c0,0,0.1,0,0.1,0c0.3,0.5,0.7,0.9,0.7,1.5c0-0.1,0.1-0.1,0.1-0.2
		c0.2,0.2,0.3,0.4,0.2,0.7c0,0,0,0,0.1,0c0.1-0.2,0.1-0.4,0.2-0.6c0,0,0,0,0,0c0,0.3,0,0.7,0,1c0,0,0,0,0.1,0
		c0.1-0.2,0.2-0.4,0.3-0.6c0.1,0.2,0.1,0.4,0.1,0.6c0,0.2,0,0.4,0,0.6c0.1-0.3,0.2-0.7,0.3-1.1c0,0,0,0,0,0c0,0.6,0,1.1,0,1.7
		c0,0,0,0,0,0c0.1-0.3,0.2-0.6,0.3-0.9c0,0,0,0,0,0c0,0.4,0,0.9,0,1.3c0,0,0,0,0.1,0c0.1-0.3,0.2-0.6,0.3-0.8c0,0,0,0,0.1,0
		c0,0.5,0.1,0.9,0.1,1.4c0,0,0,0,0,0c0.1-0.2,0.2-0.5,0.4-0.7c0,0,0,0,0.1,0c0.1,0.6,0.3,1.3,0.4,1.9c0,0,0,0,0.1,0
		c0-0.3,0-0.5,0.1-0.8c0,0,0,0,0,0c0.1,0.5,0.1,0.9,0.2,1.4c0,0,0,0,0.1,0c0.1-0.4,0.2-0.8,0.3-1.2c0,0,0.1,0,0.1,0
		c0,0.7,0,1.4,0,2.1c0,0,0,0,0.1,0c0.1-0.4,0.2-0.8,0.3-1.2c0,0,0,0,0.1,0c0,0.8,0,1.7,0,2.5c0,0,0.1,0,0.1,0
		c0.1-0.4,0.2-0.7,0.4-1.1c0,0,0,0,0,0c-0.1,0.7-0.2,1.4-0.2,2.1c0,0,0,0,0.1,0c0.1-0.3,0.3-0.7,0.4-1.1c0,0,0,0,0.1,0
		c-0.1,0.7-0.2,1.4-0.4,2.2c0,0,0,0,0,0c0.1-0.3,0.3-0.7,0.4-1c0,0,0,0,0.1,0c-0.1,0.7-0.3,1.4-0.4,2.1c0,0,0,0,0,0
		c0.2-0.4,0.4-0.7,0.6-1.1c0,0,0,0,0.1,0c0,0.9-0.1,1.8-0.1,2.6c0,0,0,0,0,0c0.1-0.5,0.2-1,0.3-1.5c0,0,0,0,0.1,0
		c-0.1,0.8-0.1,1.6-0.2,2.4c0,0,0,0,0.1,0c0.1-0.4,0.3-0.8,0.4-1.1c0,0,0,0,0.1,0c0.1,0.8,0.1,1.6,0.2,2.3c0,0,0,0,0,0
		c0-0.1,0-0.2,0-0.3c0-1.3,0.1-2.6,0-3.9c-0.1-1.9-0.4-3.7-1.1-5.4c0-0.1,0-0.1,0-0.2c0.1-0.3,0.2-0.6,0.4-0.9c0,0.5,0,1,0,1.4
		c0,0,0,0,0,0c0.1-0.3,0.2-0.5,0.3-0.8c0,0,0,0,0.1,0c0,0.4-0.1,0.9-0.1,1.3c0,0,0,0,0.1,0c0.1-0.3,0.2-0.5,0.3-0.8c0,0,0,0,0.1,0
		c0,0.5-0.1,1.1-0.1,1.6c0,0,0,0,0,0c0.2-0.4,0.4-0.8,0.6-1.1c0,0,0,0,0.1,0c-0.1,1-0.3,2.1-0.4,3.1c0,0,0,0,0,0
		c0.2-0.6,0.4-1.2,0.6-1.7c0,0,0,0,0,0c0,0.6,0,1.1,0,1.7c0,0,0,0,0,0c0.3-0.6,0.5-1.2,0.8-1.8c0,0,0,0,0.1,0
		c-0.1,0.8-0.2,1.6-0.3,2.4c0,0,0,0,0,0c0.2-0.5,0.4-1,0.6-1.4c0,0,0,0,0.1,0c-0.1,0.7-0.2,1.4-0.3,2.1c0,0,0,0,0.1,0
		c0.2-0.7,0.4-1.3,0.6-1.9c0,0,0,0,0.1,0c-0.1,0.5-0.1,1-0.1,1.5c0,0,0,0,0,0c0.1-0.3,0.3-0.7,0.4-1c0,0,0,0,0.1,0
		c0,0.7-0.1,1.3-0.1,2c0,0,0,0,0.1,0c0.1-0.3,0.3-0.7,0.4-1c0,0,0,0,0.1,0c-0.1,0.5-0.1,1-0.2,1.4c0,0,0,0,0,0
		c0.2-0.4,0.4-0.8,0.6-1.2c0,0.6,0,1.2,0,1.8c0,0,0,0,0,0c0.1-0.4,0.2-0.8,0.3-1.1c0.2-0.5,0.1-0.9,0-1.4c-0.5-1.5-1.1-3-1.9-4.4
		c-0.3-0.5-0.5-1-0.7-1.6c0,0,0,0,0,0c0,0,0-0.1,0-0.1c0.6,0.9,1.2,1.8,1.8,2.7c0,0,0,0,0,0c-0.4-0.9-0.8-1.7-1.2-2.6c0,0,0,0,0,0
		c0.7,1.1,1.4,2.2,2.1,3.3c0,0,0,0,0,0c-0.2-0.8-0.5-1.5-0.7-2.3c0,0,0,0,0,0c0.4,0.7,0.9,1.5,1.3,2.2c0,0.2,0,0.4,0,0.6
		c0,0.1,0,0.3,0,0.4h0.1c0-0.2,0-0.5,0.1-0.7c0.1,0.2,0.2,0.3,0.3,0.5c0,0,0,0,0,0c-0.1-0.3-0.2-0.6-0.3-0.8c0-0.1,0-0.3,0-0.4
		c0.3,0.6,0.7,1.3,1,1.9c0,0,0,0,0,0c-0.2-0.7-0.4-1.4-0.6-2c0,0,0,0,0.1,0c0.6,0.8,1.1,1.6,1.7,2.4c0,0,0,0,0,0
		c-0.2-0.5-0.4-1-0.6-1.5c0,0,0,0,0,0c0.8,0.6,1.6,1.2,2.5,1.8c0,0,0,0,0,0c0,0,0-0.1-0.1-0.1c-1-1.2-2-2.3-3.1-3.3h0
		c0-0.9-0.1-1.7-0.1-2.6c0,0,0-0.1,0-0.1c0,0,0,0,0.1,0c0.1,0.5,0.2,1,0.3,1.5c0,0,0,0,0,0c0.1-0.3,0.1-0.7,0.1-1
		c0,0.1,0.1,0.2,0.1,0.2c0.1,0.4,0.1,0.8,0.2,1.3c0,0,0,0,0,0c0.1-0.5,0.1-0.9,0.1-1.4c0,0,0,0,0.1,0c0.1,0.9,0.3,1.8,0.4,2.7
		c0,0,0,0,0.1,0c0-0.3,0.1-0.5,0.1-0.7c0.1-1.3-0.2-2.4-0.8-3.3c-0.1-0.8-0.3-1.5-0.4-2.2c0,0,0,0,0.1,0c0.2,0.4,0.4,0.8,0.5,1.2
		c0,0,0,0,0.1,0c-0.1-0.8-0.2-1.6-0.3-2.3c0,0,0,0,0,0c0,0,0,0,0,0c0,0,0,0,0-0.1c0,0,0,0,0.1,0c0.1,0.4,0.3,0.8,0.4,1.3
		c0,0,0.1,0,0.1,0v-1.6c0.1,0.1,0.1,0.1,0.2,0.2c0,0,0,0,0,0c-0.1-0.1-0.1-0.2-0.2-0.3V65c0.1,0.1,0.1,0.1,0.2,0.2
		c0.1,0.2,0.1,0.5,0.2,0.7h0.1v-0.5c0,0,0.1,0,0.1,0.1c0,0,0,0,0,0c0-0.1-0.1-0.1-0.1-0.2v-0.4c0.4,0.3,0.8,0.6,1.1,0.9c0,0,0,0,0,0
		c-0.2-0.3-0.3-0.7-0.5-1c0,0,0,0,0,0c0.4,0.2,0.9,0.4,1.3,0.6c0,0,0,0,0-0.1c-0.3-0.2-0.5-0.4-0.8-0.6c0.6,0,1.2,0,1.8,0
		c0,0,0,0,0,0c-0.3-0.1-0.6-0.2-1-0.3c-0.4-0.1-0.8-0.2-1.2-0.3c0.1-0.7,0.3-1.5,0.4-2.2c0,0,0,0,0.1,0c0.1,0.3,0.3,0.6,0.4,0.8
		c0,0,0,0,0,0c0-0.6,0.1-1.1,0.1-1.7c0,0,0,0,0.1,0c0.1,0.3,0.3,0.7,0.4,1c0,0,0,0,0.1,0v-1.6c0,0,0,0,0,0c0.1,0.4,0.3,0.7,0.4,1.1
		c0,0,0,0,0,0v-2c0,0,0,0,0,0c0.1,0.4,0.3,0.8,0.4,1.3c0-0.2,0-0.5,0-0.7c0-0.2-0.1-0.4,0.1-0.7c0.1,0.3,0.2,0.5,0.3,0.7
		c0,0,0,0,0.1,0v-1.2h0c0.1,0.2,0.2,0.5,0.2,0.7c0,0,0,0,0.1,0c0-0.3,0-0.6,0.3-0.8c0,0.1,0.1,0.2,0.1,0.2c-0.1-0.8,0.5-1.3,0.8-1.8
		c0,0,0.1,0,0.1,0c-0.2,8.4-0.4,22.1-0.6,31.3L121.5,88.5L121.5,88.5z M104.1,88.5c0-1.5-0.1-3-0.1-4.5c-0.1-3-0.1-6.1-0.2-9.1
		c0-0.4,0.2-0.7,0.4-1c0,0,0,0,0,0c-0.1,0.3-0.1,0.7-0.2,1c0,0,0,0,0,0c0.2-0.3,0.3-0.5,0.5-0.8c0,0,0,0,0,0c-0.1,0.3-0.1,0.7-0.2,1
		c0,0,0,0,0,0c0.1-0.2,0.2-0.4,0.3-0.6c0,0,0,0,0,0c0,0.4-0.1,0.7-0.1,1.1c0,0,0,0,0,0c0.1-0.2,0.2-0.4,0.3-0.6c0,0,0,0,0,0
		c0,0.4,0,0.7,0,1.1c0,0,0,0,0,0c0.1-0.3,0.3-0.5,0.4-0.8c0,0,0,0,0,0c0,0.3,0,0.6,0,0.9c0,0,0,0,0,0c0.1-0.2,0.2-0.4,0.2-0.7
		c0,0,0,0,0,0c0,0.4,0,0.8,0,1.2c0,0,0,0,0,0c0.1-0.2,0.1-0.5,0.2-0.7c0,0,0,0,0.1,0c0,0.5,0,1.1,0,1.6c0,0,0,0,0,0
		c0.1-0.4,0.2-0.7,0.3-1.1c0,0,0,0,0,0c0,0.5-0.1,1.1-0.1,1.6c0,0,0,0,0,0c0.1-0.3,0.2-0.7,0.3-1c0,0,0,0,0,0c0,0.5-0.1,0.9-0.1,1.4
		c0,0,0,0,0,0c0.1-0.4,0.3-0.8,0.4-1.2c0,0,0,0,0,0c0,0.4,0,0.8-0.1,1.2c0,0,0,0,0,0c0.1-0.3,0.2-0.6,0.3-0.9c0,0,0,0,0,0
		c0,0.5-0.1,1-0.1,1.5c0,0,0,0,0,0c0.2-0.3,0.3-0.7,0.5-1c0,0,0,0,0,0c-0.1,0.6-0.3,1.1-0.4,1.7c0,0,0,0,0,0
		c0.2-0.4,0.4-0.8,0.7-1.2c0,0,0,0,0,0c-0.2,0.7-0.4,1.4-0.6,2.1c0,0,0,0,0,0c0.4-0.6,0.7-1.1,1.1-1.7c0,0,0,0,0,0
		c-0.2,0.7-0.4,1.3-0.7,1.9c0,0,0,0,0,0c0.3-0.5,0.7-0.9,1-1.4c0,0,0,0,0,0c-0.2,0.7-0.4,1.3-0.6,1.9c0,0,0,0,0,0
		c0.2-0.4,0.5-0.9,0.7-1.3c0,0,0,0,0,0c-0.2,0.8-0.3,1.6-0.5,2.4c0,0,0,0,0,0c0.3-0.6,0.5-1.2,0.8-1.7c0,0,0,0,0,0
		c0,0.4,0,0.7,0,1.1c-0.1,0.3-0.2,0.6-0.3,0.9c0,0,0,0,0.1,0c0.1-0.2,0.1-0.3,0.2-0.5c0,0.3,0,0.5,0,0.8c0,0,0,0,0,0
		c0.1-0.5,0.2-0.9,0.2-1.4c0-0.1,0.1-0.2,0.1-0.3c0,0.5,0.1,1,0.1,1.6c0,0,0,0,0,0c0.1-0.4,0.1-0.8,0.2-1.1c0,0,0,0,0,0
		c0.4,0.8,0.8,1.7,1.1,2.6c0,0,0,0,0,0c-0.2-0.8-0.5-1.6-0.7-2.4c0,0,0,0,0,0c0.2,0.2,0.3,0.4,0.5,0.6c0,0,0,0,0,0
		c-0.4-0.6-0.7-1.1-1.1-1.7c0,0,0,0,0-0.1c0.3,0.3,0.7,0.5,1,0.8c0,0,0,0,0,0c-0.3-0.4-0.6-0.8-0.9-1.1c0.1-0.1,0.1-0.2,0.2-0.4
		c0.2,0.1,0.4,0.3,0.6,0.4c0,0.1,0,0.3,0.1,0.4c0,0,0,0,0.1,0c0-0.1,0-0.2,0-0.3c0,0,0,0,0,0c0,0,0,0,0,0c0,0,0,0-0.1-0.1
		c0-0.7,0.1-1.3,0.1-2c0,0,0,0,0.1,0c0.1,0.8,0.3,1.7,0.4,2.5c0,0,0,0,0,0c0-1,0-2.1,0-3.1c0,0,0,0,0,0c0.3,0.8,0.7,1.5,1,2.3
		c0,0,0,0,0.1,0c-0.2-1.1-0.4-2.1-0.6-3.2c0,0,0,0,0.1,0c0.3,0.6,0.6,1.2,1,1.7c0,0,0,0,0,0c-0.3-0.9-0.5-1.7-0.7-2.6c0,0,0,0,0.1,0
		c0,0,0,0.1,0.1,0.1c0.1,0.3,0.2,0.7,0.3,1.1c0,0,0,0,0,0c0-0.2,0-0.4,0-0.6c0.3,0.4,0.7,0.9,1,1.4c0,0,0,0,0,0
		c-0.2-0.6-0.4-1.1-0.6-1.7c0-0.2,0-0.3,0-0.4c0,0,0,0,0,0c0.1,0.3,0.2,0.6,0.3,0.8c0,0,0,0,0,0c0-0.2,0-0.4-0.1-0.6
		c0.2,0.2,0.3,0.5,0.4,0.7c0.1,0.1,0.1,0.3,0.2,0.4c0,0,0,0,0,0c0,0,0-0.1,0-0.1c0.1,0.2,0.2,0.3,0.3,0.5c0,0,0,0,0,0
		c-0.1-0.3-0.2-0.5-0.2-0.8c0.1,0.1,0.2,0.3,0.2,0.4c0,0,0,0,0,0c-0.1-0.3-0.2-0.6-0.3-1c0.3,0.1,0.5,0.3,0.7,0.4
		c0-0.1,0-0.1-0.1-0.2c-0.1-0.1-0.2-0.2-0.3-0.3c-0.2-0.7-0.3-1.4-0.5-2.1c0,0,0,0,0.1,0c0.2,0.4,0.4,0.9,0.7,1.3c0,0,0,0,0.1,0
		c0-0.7-0.1-1.3-0.1-2c0,0,0,0,0.1,0c0.2,0.4,0.3,0.8,0.4,1.2c0,0,0,0,0,0c0-0.6-0.1-1.1-0.1-1.7c0,0,0,0,0.1,0
		c0.2,0.5,0.4,1,0.6,1.6c0,0,0,0,0,0c0-0.6-0.1-1.3-0.1-1.9c0,0,0,0,0.1,0c0.2,0.4,0.3,0.9,0.4,1.3c0,0,0,0,0.1,0
		c-0.1-0.7-0.1-1.4-0.2-2.2c0,0,0,0,0,0c0.1,0.5,0.3,1,0.4,1.5c0,0,0,0,0.1,0c0-0.7,0-1.4,0-2.1c0,0,0.1,0,0.1,0
		c0.1,0.3,0.2,0.6,0.3,1c0,0,0,0,0.1,0c0-0.6,0-1.1,0.1-1.7c0,0,0,0,0.1,0c0.1,0.3,0.2,0.6,0.3,0.9c0,0,0,0,0,0c0-0.4,0-0.8,0-1.2
		c0,0,0,0,0,0c0.2,0.4,0.4,0.7,0.6,1.1c0,0,0,0,0,0c0-0.5,0-1,0-1.4c0,0,0,0,0.1,0c0.1,0.3,0.3,0.6,0.4,0.8c0,0,0,0,0.1,0
		c0-0.5-0.1-1-0.1-1.5c0,0,0,0,0,0c0.1,0.3,0.3,0.5,0.4,0.8c0,0,0,0,0.1,0c-0.1-0.4-0.2-0.9-0.3-1.3c0,0,0,0,0,0
		c0.2,0.3,0.4,0.7,0.7,1c0,0,0,0,0.1,0c-0.1-0.4-0.2-0.9-0.3-1.4c0,0,0,0,0.1,0c0.2,0.4,0.5,0.8,0.5,1.3c-0.1,4.1-0.2,8.2-0.3,12.2
		c-0.1,2.2-0.1,4.3-0.2,6.5L104.1,88.5L104.1,88.5z M103.8,74.3c0-0.5,0-1,0-1.4C103.9,73.3,104,73.8,103.8,74.3z M109.2,71.3
		c0-0.1,0-0.1,0.1-0.2c0.1,0,0.1,0.1,0.2,0.1c0,0.5,0,1,0,1.6c-0.2-0.1-0.4-0.1-0.6-0.2C108.9,72.2,109,71.8,109.2,71.3
		c0,0.1,0.1,0.2,0.2,0.2c0,0,0,0,0,0C109.3,71.4,109.2,71.4,109.2,71.3z M109.8,71.3c0-0.1,0.1-0.2,0.1-0.3c0,0,0.1,0.1,0.1,0.1
		c0,0,0,0,0,0c0-0.1-0.1-0.1-0.1-0.2c0-0.1,0.1-0.2,0.1-0.3c0.1,0.1,0.1,0.1,0.2,0.2c0,0.4,0,0.9,0,1.3c0,0,0.1,0,0.1,0
		c0.1-0.4,0.2-0.8,0.3-1.1c0.1,0.1,0.1,0.2,0.2,0.3c0,0,0,0,0,0c0,0.4-0.1,0.8-0.1,1.3c0,0,0,0,0,0c0.2-0.5,0.3-1,0.5-1.4h0
		c0,0,0,0,0,0c0.1-0.2,0.1-0.4,0.2-0.6c0.1,0.1,0.1,0.2,0.2,0.3c0,0,0,0,0,0c-0.1-0.2-0.1-0.3-0.2-0.5c0-0.1,0-0.1,0.1-0.2
		c0,0.1,0.1,0.1,0.1,0.2c0,0.5,0,1.1,0,1.6c0,0,0,0,0,0c0.1-0.4,0.2-0.8,0.3-1.2c0.1,0.1,0.1,0.2,0.2,0.2c0,0,0,0,0,0
		c-0.1-0.1-0.1-0.2-0.2-0.3c0-0.1,0.1-0.2,0.1-0.3c0.1,0,0.1,0.1,0.2,0.1c0,0.5,0,1.1,0,1.6c0,0,0,0,0,0c0.2-0.4,0.3-0.8,0.4-1.3
		c0,0,0,0,0,0c0,0,0,0,0,0c0,0,0,0,0,0c0.1-0.2,0.1-0.3,0.2-0.5c0.1,0.1,0.2,0.1,0.3,0.2c0,0.2,0,0.5,0,0.7c0,0,0.1,0,0.1,0
		c0.2-0.4,0.3-0.7,0.5-1.1c0.1,0,0.2,0.1,0.2,0.1c0,0-0.1-0.1-0.1-0.1c0,0-0.1,0-0.1-0.1c0.2-0.5,0.4-1,0.6-1.4c0,0,0,0,0.1,0
		c-0.1,0.6-0.2,1.3-0.3,1.9c0,0,0,0,0,0c0.3-0.7,0.6-1.3,1-2c0,0,0,0,0.1,0c-0.1,0.6-0.1,1.2-0.2,1.8c0,0,0,0,0.1,0
		c0.3-0.6,0.6-1.3,0.8-1.9c0,0,0,0,0.1,0c0,0.4,0,0.8,0,1.3c0,0,0,0,0.1,0c0.3-0.5,0.5-1.1,0.7-1.6c0,0,0,0,0.1,0
		c-0.1,0.4-0.2,0.9-0.3,1.3c0.1-0.3,0.3-0.3,0.6-0.2c0,0.2,0,0.2-0.2,0.3c-0.3,0.1-0.5,0.2-0.8,0.3c0,0,0,0,0,0.1
		c0.3-0.1,0.7-0.1,1-0.2c0,0,0,0,0,0.1c-0.6,0.2-1.2,0.4-1.8,0.6c0,0,0,0,0,0c0.5-0.1,0.9-0.1,1.4-0.2c0,0,0,0,0,0.1
		c-0.8,0.4-1.5,0.7-2.3,1.1c0,0,0,0,0,0c0.6-0.1,1.1-0.3,1.7-0.4c0,0,0,0,0,0.1c-1.2,0.6-2.3,1.1-3.5,1.7c0,0,0,0,0,0
		c1-0.4,2-0.7,3-1.1c0,0,0,0,0,0.1c-1.2,0.8-2.4,1.6-3.6,2.4c0,0,0,0,0,0c1-0.5,2.1-1.1,3.1-1.6c0,0,0,0,0,0c-0.9,0.7-1.8,1.3-2.6,2
		c-0.5-0.4-1.1-0.8-1.7-1.1c-0.5-0.3-1-0.4-1.5-0.6c0.1-0.4,0.2-0.9,0.3-1.3c0.1,0.1,0.2,0.1,0.2,0.1c0,0,0,0,0,0
		C110,71.5,109.9,71.4,109.8,71.3z M110.1,70.3C110.1,70.3,110.1,70.3,110.1,70.3C110.2,70.4,110.2,70.4,110.1,70.3
		C110.2,70.4,110.1,70.3,110.1,70.3z M110.7,70.6c0-0.1,0.1-0.2,0.1-0.3c0,0.1,0.1,0.1,0.1,0.2c0,0.2,0,0.5-0.1,0.7
		C110.7,71,110.7,70.8,110.7,70.6z M112.3,69.9C112.3,69.9,112.3,69.9,112.3,69.9C112.3,69.9,112.3,69.9,112.3,69.9
		C112.3,69.9,112.3,69.9,112.3,69.9z M113.3,69.8c0,0.1,0,0.3,0,0.4c-0.1-0.1-0.1-0.2-0.2-0.2c0-0.1,0.1-0.2,0.1-0.2
		C113.2,69.8,113.2,69.8,113.3,69.8z M113.2,69.6C113.2,69.6,113.2,69.6,113.2,69.6C113.2,69.6,113.3,69.6,113.2,69.6
		C113.3,69.6,113.3,69.6,113.2,69.6C113.3,69.7,113.2,69.7,113.2,69.6z M115.8,62.1C115.8,62.2,115.8,62.2,115.8,62.1
		c-0.3,0.3-0.6,0.5-0.9,0.7c0,0-0.1,0-0.1,0c-0.2-0.1-0.4-0.2-0.6-0.3c0,0,0,0,0-0.1C114.7,62.4,115.2,62.3,115.8,62.1z M114.1,62.5
		c0,0-0.1,0-0.1,0c-0.2-0.1-0.4-0.2-0.6-0.2c0.6-0.2,1.3-0.3,1.9-0.5c0,0,0,0,0,0.1C114.8,62,114.4,62.3,114.1,62.5z M116.2,62.6
		C116.2,62.6,116.2,62.6,116.2,62.6c-0.2,0.2-0.4,0.3-0.5,0.5c-0.2,0.2-0.4,0.2-0.6-0.1C115.4,62.8,115.8,62.7,116.2,62.6z
		 M116.7,63.1C116.7,63.1,116.7,63.1,116.7,63.1c-0.2,0.2-0.3,0.3-0.5,0.3c-0.2,0.1-0.3,0.1-0.5-0.1C116,63.2,116.3,63.1,116.7,63.1
		z M116.9,63.3C116.9,63.3,116.9,63.3,116.9,63.3c-0.1,0.1-0.2,0.2-0.3,0.3c-0.3,0.2-0.3,0.2-0.5-0.1
		C116.4,63.5,116.7,63.4,116.9,63.3z M117.3,63.7C117.3,63.7,117.3,63.7,117.3,63.7c-0.1,0.1-0.2,0.2-0.3,0.3
		c-0.2,0.1-0.2,0.1-0.3-0.1C116.8,63.8,117.1,63.8,117.3,63.7z M117.6,64.1c0.1,0,0.1,0,0.2,0.1c0.4,0.5,0.8,0.9,1.2,1.4
		c0,0,0,0,0,0c-0.6-0.5-1.3-0.9-1.9-1.4C117.2,64.1,117.4,64.1,117.6,64.1z M118.6,66.4c-0.2,0-0.3,0-0.4-0.1c0,0,0,0,0-0.1
		c0.2-0.1,0.4,0,0.6,0.1C118.7,66.4,118.7,66.4,118.6,66.4z M118.7,68.2c-0.1,0-0.2,0.1-0.4,0.1C118.4,68.1,118.4,68.1,118.7,68.2z
		 M117.5,68.8c0.1-0.2,0.3-0.3,0.5-0.1C117.8,68.8,117.7,68.8,117.5,68.8z M117.8,69.1c-0.2,0.1-0.3,0.1-0.5,0.2
		C117.3,69.1,117.5,69,117.8,69.1z M117.7,68.4c0.1-0.1,0.1-0.2,0.2-0.3c0,0,0.1-0.1,0.1-0.1c0,0,0.1,0.1,0.1,0.1
		C118.1,68.4,118,68.5,117.7,68.4z M117.7,66c-0.1,0.1-0.2,0.3-0.4,0.3c0,0,0,0,0-0.1C117.4,66.2,117.5,66.1,117.7,66
		C117.7,66,117.7,66,117.7,66z M117.3,68C117.3,68,117.3,68,117.3,68c0,0.2,0.1,0.5-0.1,0.6c0,0.1,0,0.2,0,0.3
		c-0.1,0.1-0.2,0.1-0.3,0.2c0,0,0,0,0-0.1C116.9,68.6,117.1,68.3,117.3,68z M114,75.3c0.2,0.4,0.4,0.8,0.7,1.1
		c-0.2-0.2-0.4-0.4-0.5-0.6C114.1,75.6,114,75.4,114,75.3C114,75.3,114,75.3,114,75.3z M111.7,76.3c0-0.1,0-0.1,0-0.2
		c0.1,0,0.1-0.1,0.2-0.1c0,0,0,0.1,0,0.1C111.8,76.1,111.8,76.2,111.7,76.3z M111.8,76.9c0,0.1-0.1,0.1-0.1,0.2c0-0.1,0-0.1,0-0.2
		C111.7,76.9,111.8,76.9,111.8,76.9C111.8,76.9,111.8,76.9,111.8,76.9z M111.7,75.7c0-0.1,0-0.1,0-0.2c0,0,0,0,0,0
		C111.7,75.6,111.8,75.6,111.7,75.7C111.7,75.7,111.7,75.7,111.7,75.7z M111.3,75.6c0,0.1,0.1,0.3,0.1,0.4c-0.1,0.1-0.2,0.1-0.2,0.2
		c0-0.2,0-0.3,0-0.5C111.2,75.7,111.2,75.7,111.3,75.6z M111.1,75.6c0-0.1,0-0.2,0-0.3c0,0,0,0,0.1,0c0,0.1,0,0.1,0.1,0.2
		C111.2,75.6,111.2,75.6,111.1,75.6z M111,76.3c-0.1,0.1-0.2,0.2-0.3,0.2c-0.1-0.5-0.1-1-0.1-1.5c0,0,0,0,0,0
		C110.7,75.5,110.8,75.9,111,76.3z M109.5,76.6C109.5,76.6,109.5,76.6,109.5,76.6c0-0.5,0-1.1,0-1.6c0,0,0,0,0,0
		c0.2,0.5,0.3,1,0.5,1.5c0,0,0,0,0,0c0-0.5,0-1,0-1.5c0,0,0,0,0,0c0.2,0.6,0.4,1.1,0.6,1.7c-0.1,0.1-0.1,0.1-0.2,0.2c0,0,0,0,0,0
		c0.1-0.1,0.2-0.1,0.2-0.1c0,0.1,0.1,0.2,0.1,0.2c0,0,0,0,0,0c0-0.1,0-0.2,0-0.3c0.1-0.1,0.2-0.1,0.3-0.2c0,0,0,0.1,0,0.1
		c0,0,0,0,0.1,0c0-0.1,0-0.1,0-0.2c0.1-0.1,0.2-0.1,0.3-0.2c0,0.1,0,0.2,0.1,0.2c-0.6,0.6-1.2,1.2-1.8,1.8c0,0,0,0,0,0.1
		c0.6-0.4,1.2-0.8,1.8-1.3c0,0.1,0,0.1,0,0.2c-0.5,0.6-1,1.3-1.5,1.9c-1-0.7-1.9-1.5-2.9-2.2c0,0,0,0,0,0c0.8,0.4,1.6,0.8,2.3,1.2
		c0,0,0,0,0,0c-0.9-0.6-1.8-1.2-2.7-1.8c0,0,0,0,0,0c0.7,0.3,1.5,0.5,2.2,0.8c0,0,0,0,0,0c-0.9-0.4-1.7-0.8-2.6-1.3c0,0,0,0,0,0
		c0.4,0.1,0.8,0.2,1.2,0.3c0,0,0,0,0,0c-0.6-0.3-1.2-0.5-1.7-0.8c0,0,0,0,0,0c0.3,0.1,0.7,0.1,1.1,0.2c0,0,0,0,0,0
		c-0.5-0.2-0.9-0.3-1.4-0.4c0,0,0,0,0,0c0.3,0.1,0.5,0.1,0.8,0.1c0,0,0,0,0,0c-0.2-0.1-0.4-0.1-0.6-0.2c-0.1,0-0.2-0.1-0.1-0.2
		c0.2,0,0.3,0,0.4,0.2c-0.1-0.3-0.1-0.7-0.2-1c0,0,0,0,0,0c0.2,0.4,0.4,0.8,0.6,1.2c0,0,0,0,0,0c0-0.3,0-0.6,0-1c0,0,0,0,0,0
		c0.2,0.5,0.4,0.9,0.6,1.4c0,0,0,0,0,0c0-0.4-0.1-0.9-0.1-1.3c0,0,0,0,0,0c0.2,0.5,0.5,1,0.7,1.5c0,0,0,0,0,0
		c-0.1-0.5-0.2-0.9-0.2-1.4c0,0,0,0,0,0c0.3,0.7,0.6,1.3,0.8,1.9c0,0,0,0,0.1,0c0-0.4,0-0.7,0-1.1c0,0,0,0,0.1,0
		C109.1,75.4,109.3,76,109.5,76.6z M110.3,80.1c-0.1-0.1-0.3-0.3-0.4-0.4c0,0,0.1,0,0.1-0.1c0.2,0.1,0.3,0.2,0.5,0.3
		C110.4,79.9,110.3,80,110.3,80.1z M110.4,80.5c0,0.1-0.1,0.2-0.1,0.3c-0.1-0.1-0.1-0.2-0.2-0.2c0,0,0.1-0.1,0.1-0.1
		C110.3,80.4,110.3,80.5,110.4,80.5z M110.1,80.3C110.1,80.4,110,80.4,110.1,80.3c-0.1,0-0.2,0-0.2-0.1c0,0,0,0,0,0
		C110,80.3,110,80.3,110.1,80.3z M109.2,78.7C109.3,78.7,109.3,78.7,109.2,78.7c0.3,0.1,0.6,0.3,0.9,0.5c0,0.1-0.1,0.1-0.1,0.2
		C109.7,79.1,109.5,78.9,109.2,78.7z M109.8,79.5C109.8,79.5,109.8,79.6,109.8,79.5c-0.1,0-0.1,0-0.2-0.1c0,0,0,0,0,0
		C109.7,79.4,109.8,79.5,109.8,79.5z M110.1,79.4c0.1-0.1,0.2-0.1,0.2-0.2c0.1,0.1,0.2,0.1,0.3,0.2c0,0,0,0,0,0
		c-0.1-0.1-0.2-0.1-0.2-0.2c0.3-0.2,0.5-0.4,0.8-0.6c0,0,0,0,0,0c-0.3,0.4-0.5,0.7-0.7,1.1C110.3,79.7,110.2,79.6,110.1,79.4z
		 M111.1,80C111.1,80,111.1,80,111.1,80c0.1,0.3,0.1,0.7,0.2,1c-0.2-0.2-0.3-0.3-0.4-0.4C110.9,80.4,111,80.2,111.1,80z M105.7,74.2
		c-0.2,0-0.3-0.1-0.4-0.1C105.5,74,105.6,74.1,105.7,74.2z M105.2,73.7C105.2,73.7,105.3,73.6,105.2,73.7c0.1-0.1,0.1-0.1,0.1,0
		c0.1,0.1,0.1,0.2,0.1,0.3C105.3,73.9,105.2,73.9,105.2,73.7z M105.8,74.6c-0.1-0.1-0.3-0.1-0.4-0.1
		C105.7,74.3,105.8,74.4,105.8,74.6z M105.8,73.6C105.8,73.6,105.8,73.6,105.8,73.6c0.2,0.2,0.3,0.5,0.4,0.7c0,0,0,0,0,0.1
		c-0.1,0-0.2-0.1-0.3-0.1c0,0,0-0.1,0-0.2C105.8,73.9,105.8,73.7,105.8,73.6z M106.5,72.1c0,0.1,0,0.2,0,0.2c0,0-0.1,0-0.1,0
		s-0.1,0-0.1,0c0-0.1,0.1-0.2,0.1-0.3C106.4,72.1,106.4,72.1,106.5,72.1z M106.4,71.8C106.5,71.8,106.5,71.8,106.4,71.8
		C106.5,71.8,106.5,71.8,106.4,71.8C106.5,71.8,106.5,71.9,106.4,71.8C106.5,71.9,106.5,71.9,106.4,71.8z M106.8,72.3
		C106.8,72.3,106.8,72.3,106.8,72.3c-0.1,0.1-0.1,0.1-0.2,0.1c0-0.1,0-0.1,0-0.2C106.7,72.2,106.8,72.2,106.8,72.3z M106.7,72.1
		c0-0.1,0.1-0.2,0.1-0.3c0,0,0,0,0.1,0C106.8,71.9,106.8,72.1,106.7,72.1C106.8,72.2,106.7,72.1,106.7,72.1z M107.4,72
		c0,0.1,0,0.3,0,0.4c-0.1,0-0.2,0-0.3,0c0-0.1,0.1-0.3,0.1-0.4C107.3,72,107.3,72,107.4,72z M107.3,71.8c0-0.1,0-0.2,0.1-0.2
		c0,0,0,0,0.1,0c0,0.1,0,0.2,0,0.3C107.3,71.8,107.3,71.8,107.3,71.8z M108,71.7c0-0.1,0.1-0.3,0.1-0.4c0,0,0.1,0,0.1,0.1
		c0,0.4,0,0.8,0,1.2c-0.2,0-0.3-0.1-0.4-0.1c0.1-0.2,0.1-0.4,0.2-0.6c0.1,0,0.2,0.1,0.3,0.1c0,0,0,0,0,0
		C108.2,71.8,108.1,71.7,108,71.7z M108.2,71C108.2,71,108.2,71,108.2,71C108.2,71,108.3,71,108.2,71C108.3,71,108.3,71.1,108.2,71
		C108.3,71.1,108.2,71.1,108.2,71z M108.4,72.5c0.1-0.3,0.3-0.7,0.4-1c0,0,0,0,0,0c-0.1,0.3-0.1,0.7-0.2,1
		C108.6,72.6,108.5,72.6,108.4,72.5z M109.4,70.9C109.4,70.8,109.3,70.8,109.4,70.9c-0.1-0.1-0.1-0.2,0-0.2c0,0,0,0,0.1,0
		C109.4,70.7,109.4,70.8,109.4,70.9z M108.9,68.6c-0.2-0.1-0.4-0.2-0.7-0.3c0,0,0,0,0,0c0.3,0.1,0.6,0.1,0.9,0.1
		C109.1,68.5,109,68.5,108.9,68.6z M108.7,68.7c-0.1,0.1-0.3,0.2-0.4,0.3c-0.2-0.1-0.4-0.2-0.6-0.3c0,0-0.1-0.1-0.1-0.1c0,0,0,0,0,0
		C107.9,68.6,108.3,68.7,108.7,68.7z M108.1,69.1c-0.1,0.1-0.1,0.1-0.2,0.2c-0.2-0.1-0.4-0.2-0.6-0.3c0,0,0,0,0,0
		C107.6,69,107.8,69.1,108.1,69.1z M107.8,69.4c-0.1,0.1-0.2,0.2-0.3,0.2c-0.2-0.1-0.4-0.3-0.6-0.4c0,0,0,0,0,0
		C107.2,69.3,107.5,69.3,107.8,69.4z M107.3,69.8c-0.1,0.1-0.1,0.1-0.2,0.2c0,0-0.1,0-0.1-0.1c-0.1-0.1-0.3-0.2-0.4-0.3
		c0,0,0,0,0-0.1C106.9,69.6,107.1,69.7,107.3,69.8z M107,70.1c-0.1,0.2-0.2,0.2-0.4,0.1c-0.1-0.1-0.2-0.1-0.3-0.2c0,0,0,0,0-0.1
		C106.5,69.9,106.8,70,107,70.1z M106.7,70.3c-0.2,0.2-0.2,0.2-0.4,0.1c-0.1-0.1-0.2-0.1-0.3-0.2c0,0,0,0,0,0
		C106.3,70.1,106.5,70.2,106.7,70.3z M106.3,70.5c-0.1,0.1-0.1,0.1-0.2,0.1c-0.1-0.1-0.2-0.1-0.3-0.2c0,0,0,0,0,0
		C106,70.4,106.1,70.4,106.3,70.5z M106,70.7c-0.5,0.4-1,0.7-1.4,1.1c0,0,0,0,0,0c0.3-0.3,0.6-0.7,0.9-1c0,0,0.1-0.1,0.1-0.1
		C105.7,70.7,105.8,70.7,106,70.7z M105.1,73.8c-0.1,0-0.2-0.1-0.3-0.1C105,73.6,105,73.6,105.1,73.8z M104.7,72.4
		c0.1,0,0.2-0.1,0.3-0.1c0,0-0.1,0.1-0.1,0.1c0,0,0,0-0.1,0C104.8,72.4,104.7,72.4,104.7,72.4z M120,67c0,0.6,0,1.3,0,1.9
		C119.7,68.3,119.8,67.7,120,67z M123,60.9C123,60.9,123,60.9,123,60.9c0.3,0,0.7,0.1,1,0.1c0,0,0,0,0,0c-0.2-0.1-0.4-0.3-0.6-0.4
		c0,0,0,0,0,0c0.3,0.1,0.6,0.3,1,0.4c0,0,0,0.1-0.1,0.2c-0.1,0.1-0.2,0.2-0.3,0.2c-0.2,0.3-0.5,0.3-0.7,0.2c-0.2,0-0.3-0.1-0.5-0.1
		c0,0,0,0,0-0.1c0.3,0,0.7,0,1,0c0,0,0,0,0,0C123.6,61.2,123.3,61.1,123,60.9z M125.7,61.9c0,0,0-0.1,0-0.1c0.1,0.1,0.2,0.2,0.3,0.2
		c0,0.1,0,0.2,0,0.3c0,0,0,0,0.1,0c0-0.1,0-0.1,0-0.2c0.3,0.2,0.7,0.5,1,0.7c0,0,0,0,0,0c-1,0.2-2,0.5-2.9,0.9c0-0.1,0-0.2,0.1-0.3
		c0,0,0.1,0.1,0.1,0.1c0,0,0,0,0,0c0-0.1-0.1-0.2-0.1-0.2c0-0.2,0.1-0.3,0.1-0.5c0.1,0.1,0.3,0.3,0.4,0.4c0,0,0,0,0,0.1
		c0,0,0,0,0.1,0c0-0.2,0.1-0.3,0.1-0.5c0,0,0.1,0.1,0.1,0.1c0,0,0,0,0,0c0-0.1-0.1-0.1-0.1-0.2c0-0.1,0.1-0.3,0.1-0.4
		c0.1,0.1,0.3,0.2,0.4,0.3c0,0,0,0.1,0,0.2h0c0,0,0-0.1,0-0.1c0,0,0,0,0.1,0c0,0,0,0,0,0c0,0-0.1-0.1-0.1-0.1c0-0.1,0-0.2,0.1-0.3
		c0.3,0.2,0.5,0.4,0.8,0.6c0,0,0,0,0,0C126.2,62.4,125.9,62.2,125.7,61.9z M126.5,61.7c0,0.1,0,0.1,0,0.2c-0.1-0.1-0.2-0.2-0.3-0.4
		l0,0C126.3,61.6,126.4,61.7,126.5,61.7z M126.3,61.1C126.3,61.1,126.4,61.1,126.3,61.1c0.1,0,0.1,0,0.2,0c0,0,0,0.1,0,0.1
		C126.5,61.2,126.4,61.2,126.3,61.1z M130,60.5c-0.1,0.1-0.2,0.2-0.4,0.3c-0.4-0.2-0.8-0.4-1.2-0.5c0,0,0,0,0,0
		C129,60.2,129.5,60.3,130,60.5z M128.5,59.1c0-0.1,0-0.1,0-0.2c0,0,0,0,0,0L128.5,59.1C128.5,59.1,128.5,59.1,128.5,59.1z
		 M132.4,58.7C132.3,58.7,132.3,58.6,132.4,58.7c-0.9,0-1.7,0-2.5,0.2c0.2-0.5,0.3-0.9,0.5-1.4c0,0,0,0,0,0v1.3c0,0,0,0,0,0
		c0.2-0.6,0.4-1.2,0.6-1.7c0,0,0.1,0,0.1,0v1.2c0,0,0.1,0,0.1,0c0.2-0.6,0.4-1.2,0.6-1.9c0,0,0,0,0.1,0c0,0.4,0.1,0.8,0.1,1.2
		c0,0,0,0,0.1,0c0.2-0.4,0.3-0.8,0.5-1.3c0,0,0,0,0.1,0c0,0.4,0.1,0.7,0.1,1.1c0,0,0,0,0,0c0.1-0.4,0.3-0.8,0.4-1.2h0.1
		c0.1,0.3,0.1,0.7,0.2,1c0,0,0,0,0.1,0c0.1-0.3,0.2-0.7,0.3-1h0.1c0.1,0.3,0.1,0.6,0.2,1c0.2-0.3,0.4-0.6,0.5-0.8c0,0,0,0,0.1,0V57
		c0,0,0,0,0.1,0c0.2-0.2,0.3-0.4,0.6-0.7V57c0.1-0.1,0.2-0.2,0.4-0.4c0,0.5,0,0.6-0.4,0.8c-1.5,0.6-3,1.5-4.3,2.4c0,0,0,0,0,0
		c-0.4-0.1-0.9-0.2-1.3-0.3c0,0,0,0,0,0C130.4,59.2,131.4,59,132.4,58.7C132.4,58.7,132.4,58.7,132.4,58.7z M134.8,51.7
		c0.5-0.4,1.1-0.8,1.6-1.2c0,0,0,0,0.1,0c-0.3,0.3-0.5,0.7-0.8,1c0,0,0,0,0,0c0.4-0.3,0.8-0.6,1.1-0.9c0,0,0,0,0,0
		c-0.2,0.4-0.4,0.7-0.6,1.1c0,0,0,0,0,0c0.3-0.2,0.5-0.5,0.8-0.7c0,0,0,0,0,0c-0.2,0.3-0.4,0.7-0.6,1.1c0,0,0,0,0,0
		c0.3-0.3,0.6-0.5,0.9-0.8c0,0,0,0,0,0c-0.1,0.4-0.3,0.7-0.4,1.1c0,0,0,0,0,0c0.2-0.3,0.4-0.6,0.6-1c0,0,0,0,0.1,0
		c0,0.3-0.1,0.6-0.1,1c0,0,0,0,0,0c0.2-0.2,0.4-0.4,0.6-0.7v1c0,0,0,0,0.1,0c0.1-0.2,0.2-0.3,0.3-0.4c0,0,0,0,0,0v0.9
		c0.1-0.2,0.2-0.3,0.3-0.5c0,0,0,0,0.1,0c0,0.2-0.1,0.5-0.1,0.8c-1.6-0.9-3.3-1.6-5.1-1.9c0,0,0,0,0-0.1c0.7-0.5,1.3-0.9,2-1.4
		c0,0,0,0,0,0C135.5,50.8,135.1,51.2,134.8,51.7C134.8,51.7,134.8,51.7,134.8,51.7z M137.6,49.7c0.4-0.1,0.8-0.1,1.1-0.2
		c0,0,0,0,0,0c-0.4,0.2-0.7,0.3-1.1,0.5v0h1.2c0,0,0,0.1,0,0.1c-0.2,0-0.4,0-0.5,0.1c-0.3,0.1-0.6,0.1-0.9-0.2
		c-0.1-0.2-0.3-0.3-0.5-0.4c0.4-0.2,0.9-0.4,1.3-0.6c0,0,0,0,0,0C138.1,49.3,137.9,49.5,137.6,49.7
		C137.6,49.7,137.6,49.7,137.6,49.7z M139.7,52.3c0.2,0,0.4,0.1,0.6,0.2C140.1,52.5,139.9,52.7,139.7,52.3z M140.7,53
		c-0.2,0.2-0.3,0.1-0.5-0.1C140.4,53,140.5,53,140.7,53z M140,58.3L140,58.3l0.1,0.4c0,0-0.1,0-0.1,0C140,58.5,140,58.4,140,58.3z
		 M139.3,54c0.1-0.1,0.2-0.2,0.3-0.4c0,0.1,0.1,0.2,0.1,0.3c0,0.1,0,0.1,0.1,0.3c0-0.1,0.1-0.2,0.1-0.3c0.1,0.2,0.1,0.3,0.1,0.5
		c0,0,0,0,0,0C139.8,54.2,139.6,54.1,139.3,54z M140.1,51.7c-0.2,0-0.5,0.1-0.7,0.1c-0.1,0-0.2,0-0.2-0.1c-0.1-0.1-0.2-0.2-0.2-0.3
		C139.3,51.5,139.7,51.6,140.1,51.7L140.1,51.7L140.1,51.7z M139.3,55.4c-0.1,0.4-0.1,0.5-0.4,0.3C139.1,55.6,139.2,55.5,139.3,55.4
		z M139,53.7c0.1-0.2,0.2-0.3,0.2-0.4c0,0,0,0,0,0v0.6C139.2,53.8,139.1,53.8,139,53.7z M138.6,51c0.3,0.1,0.6,0.1,0.9,0.2
		C139.2,51.3,138.7,51.3,138.6,51z M139.5,50.8c-0.4,0-0.7,0-1.1,0c-0.1,0-0.2-0.1-0.3-0.2c0,0,0,0,0-0.1
		C138.6,50.7,139.1,50.7,139.5,50.8C139.5,50.8,139.5,50.8,139.5,50.8z M138.7,56.5c-0.5,0.1-0.9,0.2-1.4,0.2c0,0,0,0,0-0.1
		C137.7,56.4,138.3,56.5,138.7,56.5z M137.5,55.5c0.2-0.2,0.4-0.3,0.5-0.5c0,0,0,0,0,0c-0.1,0.2-0.1,0.3-0.2,0.5
		C137.8,55.6,137.6,55.6,137.5,55.5C137.5,55.5,137.5,55.5,137.5,55.5z M138.2,55.6c0.1-0.1,0.2-0.2,0.3-0.3
		C138.6,55.6,138.5,55.7,138.2,55.6z M136.3,57c-0.2,0.1-0.4,0.1-0.6,0.1c0.3-0.2,0.5-0.4,0.8-0.6C136.6,56.9,136.6,56.9,136.3,57z
		 M136.5,64c-0.1,0-0.1,0-0.2,0c0-0.2,0.1-0.5,0.1-0.7h0C136.5,63.4,136.5,63.7,136.5,64z M135.8,63.4
		C135.8,63.4,135.8,63.4,135.8,63.4c0.1,0.1,0.1,0.3,0.2,0.4c-0.1,0-0.1,0-0.2,0V63.4z M135.7,61.3c-0.1-0.2,0-0.4,0.1-0.6
		C136,60.9,136,61,135.7,61.3z M135.8,55.4c0.2-0.1,0.3-0.3,0.5-0.4C136.1,55.5,136.1,55.5,135.8,55.4z M135.1,54.7
		c-0.2,0.3-0.4,0.5-0.6,0.7c-0.1,0-0.2,0-0.3,0.1c-0.2,0-0.3,0-0.5,0c0,0,0,0,0-0.1C134.1,55.2,134.6,54.9,135.1,54.7L135.1,54.7z
		 M135.6,54.8c-0.2,0.5-0.4,0.7-0.7,0.6C135.2,55.2,135.4,55,135.6,54.8z M135.2,62c-0.1-0.3,0.1-0.5,0.3-0.7
		C135.7,61.6,135.4,61.7,135.2,62z M135.4,64.7c0-0.1-0.1-0.1-0.1-0.2v0h0.1C135.4,64.6,135.4,64.6,135.4,64.7z M135,62
		c0.1,0.2-0.1,0.5-0.4,0.9C134.6,62.8,134.7,62.5,135,62z M134.6,62c0-0.2,0-0.3,0-0.5c0,0,0.1,0,0.1,0c0,0.2,0,0.3,0.1,0.5
		C134.6,62,134.6,62,134.6,62z M134.2,68.8c0,0.1,0.1,0.2,0.1,0.3C134.3,69,134.2,69,134.2,68.8C134.2,68.9,134.2,68.9,134.2,68.8
		C134.2,68.8,134.2,68.8,134.2,68.8z M134.2,63.1v-0.7C134.4,62.7,134.4,62.8,134.2,63.1z M134.3,63.4c0-0.1,0.1-0.2,0.2-0.3
		c0.1,0.1,0,0.2,0,0.4C134.4,63.4,134.3,63.4,134.3,63.4z M132.8,72c-0.6-0.6-1.3-1.1-1.9-1.6c0,0,0,0,0,0c-0.1-0.5-0.1-0.9-0.2-1.4
		c0,0,0,0,0,0c0-0.3,0-0.5,0-0.8c0.1,0.3,0.3,0.7,0.4,1.1c0,0,0,0,0,0l0,0c0,0.1,0.1,0.2,0.1,0.3c0,0,0,0,0,0c0-0.3-0.1-0.5-0.1-0.7
		c0-0.1,0-0.3,0-0.4c0,0,0,0,0,0c0.1,0.4,0.2,0.8,0.4,1.2c0,0,0,0,0,0c0-0.3,0-0.5,0-0.8c0,0,0,0,0,0c0.1,0.5,0.2,0.9,0.3,1.4
		c0,0,0,0,0,0c0-0.3,0.1-0.7,0.1-1.1c0,0,0,0,0,0c0.1,0.4,0.1,0.8,0.2,1.2c0,0,0,0,0.1,0c0.1-0.4,0.1-0.7,0.2-1.1c0,0,0,0,0.1,0
		c0.1,0.3,0.1,0.7,0.2,1c0,0.1,0,0.3,0,0.4C132.8,71.1,132.8,71.6,132.8,72z M132.8,74c-0.1-0.2-0.1-0.3-0.2-0.5c0,0,0,0,0.1,0
		c0,0.1,0.1,0.1,0.1,0.2C132.8,73.8,132.8,73.9,132.8,74z M128.5,66.1c-0.1,0-0.2-0.1-0.3-0.1c-0.2,0-0.3,0-0.5,0
		c-0.1,0-0.2-0.1-0.3-0.2c0,0-0.1-0.1-0.1-0.1c0.1-0.1,0.1-0.2,0.2-0.3c0.2,0.1,0.3,0.3,0.5,0.4c0,0,0,0.1,0,0.1c0,0,0,0,0.1,0
		c0,0,0-0.1,0.1-0.1c0,0,0.1,0.1,0.1,0.1c0,0-0.1-0.1-0.1-0.1c0.1-0.1,0.1-0.2,0.2-0.3c0.2,0.2,0.4,0.3,0.6,0.5c0,0,0,0,0,0
		c-0.1-0.3-0.3-0.6-0.4-0.8c0-0.1,0.1-0.1,0.1-0.2c0.3,0.3,0.6,0.6,0.9,0.9c-0.1,0.1-0.1,0.2-0.2,0.3c-0.1,0-0.1,0-0.2,0
		C129,66.2,128.7,66.2,128.5,66.1z M129.1,67c-0.1,0.2-0.1,0.3-0.2,0.5c0-0.3,0-0.5,0.1-0.8c0,0,0,0,0.1,0
		C129,66.8,129,66.9,129.1,67z M126.1,67.5c-0.1-0.1-0.2-0.1-0.3-0.2c0.1-0.1,0.1-0.2,0.1-0.3c0,0,0,0.1,0.1,0.1c0-0.1,0-0.1,0-0.2
		c0-0.1,0.1-0.2,0.1-0.2c0.1,0.2,0.2,0.3,0.3,0.4c0,0,0,0,0.1,0c0-0.1,0-0.3,0-0.4c0,0,0,0,0.1,0c0.1,0.2,0.3,0.4,0.4,0.7
		c0.1-0.3,0.1-0.6,0.2-0.8c0,0,0,0,0,0c0.1,0.3,0.2,0.6,0.3,0.9c0,0,0,0,0.1,0c0.1-0.3,0.1-0.6,0.2-0.9c0,0,0,0,0.1,0
		c0.1,0.3,0.2,0.7,0.3,1c0,0,0,0,0,0c0-0.3,0.1-0.6,0.1-0.9c0,0,0,0,0.1,0c0.1,0.3,0.3,0.7,0.4,1.1c-0.1,0.3-0.3,0.7-0.4,1
		C127.7,68.3,126.9,67.8,126.1,67.5z M128,70.5C128,70.5,128,70.5,128,70.5c-0.1-0.1-0.2-0.2-0.3-0.3c0,0,0.1,0,0.1-0.1
		C127.9,70.3,127.9,70.4,128,70.5z M126.9,71.8c0,0.2,0,0.3,0,0.6C126.7,72.1,126.7,72,126.9,71.8z M126.8,72.9
		c-0.2-0.2-0.3-0.5-0.2-0.6C126.8,72.5,126.9,72.6,126.8,72.9z M126.5,71.4c0-0.1,0-0.3,0.1-0.4c0,0,0.1,0,0.1,0
		C126.6,71.1,126.6,71.3,126.5,71.4C126.6,71.4,126.5,71.4,126.5,71.4z M126.5,72.2c-0.3-0.3-0.4-0.7-0.3-0.8
		C126.5,71.8,126.6,72.1,126.5,72.2z M126,71.4c-0.1-0.2-0.4-0.3-0.2-0.6C125.9,71,126.1,71.1,126,71.4z M125.7,66.9
		c0.1,0.1,0.1,0.1,0.1,0.2c0,0.1-0.1,0.2-0.1,0.3C125.7,67.2,125.7,67.1,125.7,66.9z M126.3,65.8C126.3,65.8,126.2,65.8,126.3,65.8
		c-0.1,0-0.3,0-0.3-0.1c0,0,0.1-0.1,0.1-0.1C126.1,65.7,126.2,65.8,126.3,65.8z M126.2,65.3C126.3,65.3,126.3,65.3,126.2,65.3
		c0.1,0,0.1,0,0.2,0c0,0.1,0,0.1-0.1,0.2C126.3,65.4,126.3,65.4,126.2,65.3z M127.3,65.9C127.3,65.9,127.3,65.9,127.3,65.9
		c-0.1,0.1-0.1,0-0.1,0C127.2,65.9,127.2,65.9,127.3,65.9C127.3,65.9,127.3,65.9,127.3,65.9z M127.3,64.8
		C127.3,64.8,127.3,64.8,127.3,64.8C127.3,64.8,127.3,64.8,127.3,64.8C127.3,64.8,127.3,64.8,127.3,64.8z M127.1,65.5
		c-0.1-0.1-0.1-0.1-0.2-0.2c0-0.1,0.1-0.1,0.1-0.2c0.1,0,0.1,0.1,0.1,0.1C127.2,65.3,127.1,65.4,127.1,65.5z M127,65.7
		c0,0.1-0.1,0.1-0.1,0.2c0,0-0.1,0-0.1,0c-0.1,0-0.2,0-0.2-0.1l0,0c0.1-0.1,0.1-0.2,0.2-0.3C126.9,65.6,126.9,65.7,127,65.7z
		 M127.6,65.2c0-0.1,0.1-0.1,0.1-0.1c0.2,0.1,0.3,0.2,0.4,0.4c0,0.1-0.1,0.2-0.1,0.3C127.9,65.6,127.8,65.4,127.6,65.2z M128.3,64.8
		C128.3,64.8,128.3,64.7,128.3,64.8C128.3,64.7,128.4,64.8,128.3,64.8C128.4,64.8,128.3,64.8,128.3,64.8
		C128.3,64.8,128.3,64.8,128.3,64.8z M128.9,64.7C128.9,64.7,128.9,64.7,128.9,64.7c0.2,0,0.3,0.1,0.4,0.2c0,0.1-0.1,0.2-0.1,0.2
		c0,0,0,0,0.1,0c0-0.1,0.1-0.1,0.1-0.2c0.2,0.1,0.3,0.2,0.5,0.4c-0.1,0.2-0.2,0.3-0.3,0.5C129.3,65.5,129.1,65.1,128.9,64.7z
		 M129.5,64.4C129.5,64.4,129.5,64.4,129.5,64.4C129.5,64.4,129.5,64.4,129.5,64.4C129.5,64.4,129.5,64.4,129.5,64.4z M129.6,64.6
		C129.6,64.6,129.6,64.5,129.6,64.6c0.2,0.1,0.3,0.2,0.4,0.3c0,0,0,0.1-0.1,0.1C129.9,64.9,129.8,64.7,129.6,64.6z M129.7,68.7
		c0.2,0.4,0.4,0.8,0.5,1.2c0,0,0,0,0.1,0c-0.1-0.4-0.1-0.9-0.1-1.3c0-0.1,0-0.3,0-0.4h0c0.2,0.8,0.5,1.5,0.7,2.3
		c-0.4-0.3-0.7-0.6-1.1-0.8c0,0-0.1,0-0.1-0.1C129.6,69.2,129.6,68.9,129.7,68.7C129.6,68.7,129.6,68.7,129.7,68.7z M130.2,62.7
		c0.1-0.2,0.3-0.4,0.4-0.6c0,0,0,0,0,0c-0.1,0.2-0.2,0.4-0.3,0.6C130.3,62.7,130.3,62.7,130.2,62.7z M130.9,62.7
		c0.2-0.3,0.4-0.5,0.5-0.8c0,0,0,0,0.1,0c-0.1,0.3-0.2,0.5-0.4,0.8C131,62.8,130.9,62.7,130.9,62.7z M131.1,66.8c0,0-0.1,0-0.1,0
		c0,0,0,0,0,0C131,66.7,131,66.7,131.1,66.8C131,66.8,131.1,66.8,131.1,66.8z M132,67.2v-0.4c0,0,0,0,0,0c0.1,0.2,0.1,0.4,0.2,0.6
		C132.2,67.3,132.1,67.3,132,67.2z M132.6,67.6c-0.1-0.8-0.2-1.5-0.3-2.3c0.1,0.1,0.2,0.2,0.3,0.3c0.1,0.3,0.3,0.5,0.4,0.8
		c0,0,0,0,0.1,0c0-0.1,0-0.2,0-0.3c0.1,0.1,0.2,0.2,0.3,0.3c-0.1,0.5-0.2,1-0.3,1.4C132.9,67.8,132.8,67.7,132.6,67.6z M132.9,61
		C132.9,61,132.9,60.9,132.9,61c0-0.2,0.1-0.3,0.1-0.5c0,0,0.1,0,0.1,0.1C133.1,60.7,133,60.8,132.9,61z M133,64.6
		C133,64.5,133,64.5,133,64.6C133,64.5,133,64.5,133,64.6C133,64.5,133,64.5,133,64.6z M133,65.6c0-0.2,0-0.3,0-0.5
		c0.1,0.1,0.2,0.2,0.3,0.3c0,0,0,0,0,0c0,0,0,0,0,0c0.1,0.1,0.2,0.2,0.2,0.2c-0.1,0.2-0.1,0.4-0.2,0.6C133.3,66,133.2,65.8,133,65.6
		z M133.3,64.7c0.1,0.2,0.3,0.3,0.4,0.5c0,0.1-0.1,0.3-0.1,0.4c-0.1-0.1-0.2-0.3-0.2-0.4C133.4,65,133.4,64.8,133.3,64.7z
		 M133.6,71.4c0.1,0.6,0.3,1.2,0.4,1.7c-0.1-0.1-0.2-0.2-0.4-0.4C133.6,72.3,133.5,71.8,133.6,71.4
		C133.5,71.4,133.5,71.4,133.6,71.4z M133.7,63.2V63c0.1,0.1,0.1,0.2,0.1,0.3C133.8,63.3,133.7,63.2,133.7,63.2z M129.7,58.8
		c-0.1,0-0.2,0-0.3,0.1c0.1-0.3,0.2-0.6,0.2-0.9c0,0,0.1,0,0.1,0L129.7,58.8L129.7,58.8z M130.6,59.9c-0.1,0.1-0.3,0.2-0.4,0.3
		c-0.4-0.2-0.8-0.3-1.2-0.4c0,0,0,0,0,0C129.5,59.8,130.1,59.9,130.6,59.9z M128.8,59c0.1-0.2,0.1-0.4,0.2-0.6c0,0,0,0,0.1,0
		c0,0.2,0,0.3,0,0.5C129,59,128.9,59,128.8,59z M129.5,60.8c-0.1,0.1-0.3,0.2-0.4,0.3c-0.3-0.2-0.6-0.4-0.9-0.6c0,0,0,0,0-0.1
		C128.6,60.5,129.1,60.7,129.5,60.8z M128.9,61.3c-0.1,0.1-0.3,0.2-0.4,0.3c-0.3-0.3-0.6-0.5-0.9-0.8c0,0,0,0,0,0
		C128,61,128.4,61.1,128.9,61.3z M128.3,61.8c-0.2,0.1-0.3,0.3-0.5,0.4c-0.4-0.3-0.8-0.6-1.1-0.9c0-0.1,0-0.1,0-0.2
		c0.1,0,0.2,0.1,0.3,0.1c0,0.1,0,0.1,0,0.2h0.1c0,0,0-0.1,0-0.1C127.5,61.5,127.9,61.6,128.3,61.8z M127.7,62.3
		c-0.2,0.1-0.3,0.3-0.4,0.4l0,0c-0.2-0.3-0.5-0.5-0.7-0.8h0c0-0.1,0-0.1,0-0.2C127,61.9,127.3,62.1,127.7,62.3z M125.5,70.3
		c0.1,0.1,0.2,0.3,0.1,0.5C125.4,70.6,125.4,70.5,125.5,70.3z M125.1,67.2c-0.1,0-0.1,0-0.2-0.1c0.1-0.1,0.1-0.1,0.2-0.2
		c0.2,0.1,0.3,0.3,0.5,0.4C125.4,67.3,125.3,67.2,125.1,67.2z M123.2,65.8c0.1,0.1,0.2,0.2,0.3,0.3C123.2,66.1,123.2,66,123.2,65.8z
		 M123.3,66.7C123.3,66.7,123.3,66.8,123.3,66.7c-0.1,0-0.1,0-0.2,0C123.1,66.7,123.2,66.7,123.3,66.7z M122.9,64.4
		c0-0.2-0.1-0.4-0.1-0.6c0,0,0,0,0.1,0c0.1,0.1,0.2,0.3,0.2,0.4c0-0.3,0-0.5,0-0.8c0,0,0,0,0,0c0.1,0.1,0.1,0.3,0.2,0.4
		c0,0,0,0,0.1,0c0-0.3,0-0.5,0-0.8c0.2,0.2,0.3,0.4,0.5,0.5c0,0,0,0,0,0c0-0.3-0.1-0.5-0.1-0.8c0,0,0,0,0.1,0c0,0.1,0.1,0.1,0.1,0.2
		c0,0.3,0,0.6,0,1l0,0C123.6,64,123.2,64.2,122.9,64.4z M122.9,66.1c-0.2,0.1-0.3,0.1-0.3-0.3C122.7,65.9,122.8,66,122.9,66.1z
		 M122.6,64.6c0-0.2,0-0.3,0-0.5c0,0,0,0,0,0c0.1,0.1,0.1,0.2,0.2,0.3C122.8,64.5,122.7,64.5,122.6,64.6z M122.4,62.3
		c0.3,0,0.5-0.1,0.8-0.1C123.1,62.3,122.6,62.4,122.4,62.3z M123.7,65.5c0.1,0.1,0.3,0.2,0.4,0.3c0,0-0.1,0.1-0.1,0.1
		c-0.1,0-0.1,0-0.1,0C123.7,65.8,123.7,65.7,123.7,65.5C123.6,65.5,123.6,65.5,123.7,65.5z M124,66.8c0.1,0,0.2,0.1,0.3,0.1
		c0,0,0,0,0,0.1c-0.1,0-0.3-0.1-0.4-0.1C123.9,66.8,123.9,66.8,124,66.8z M124.8,62.5c0,0.2,0,0.3,0.1,0.5c-0.1-0.2-0.2-0.4-0.3-0.6
		c0,0,0-0.1,0-0.1C124.6,62.3,124.7,62.4,124.8,62.5z M124.6,61.9C124.6,61.9,124.6,61.9,124.6,61.9c0.1,0,0.1,0,0.1,0
		c0,0.1,0,0.1,0,0.2C124.7,62,124.7,62,124.6,61.9z M125.1,61.9c0,0,0-0.1,0-0.1c0.1,0.1,0.2,0.1,0.2,0.2c0,0.1,0,0.2,0.1,0.3
		C125.3,62.2,125.2,62.1,125.1,61.9z M125.4,59.2c-0.1,0-0.2-0.1-0.3-0.2c0,0,0,0,0,0c0.2,0,0.3,0,0.5,0
		C125.6,59,125.5,59.1,125.4,59.2z M125.4,59.2C125.4,59.2,125.4,59.3,125.4,59.2c-0.2,0.1-0.3,0-0.3,0c0,0,0,0,0,0
		C125.2,59.2,125.3,59.2,125.4,59.2z M125.2,59.5c-0.1,0.1-0.1,0.2-0.2,0.2c-0.1,0-0.2-0.1-0.3-0.1c0,0,0,0,0,0
		C124.9,59.6,125,59.5,125.2,59.5z M124.9,59.9c-0.1,0.1-0.1,0.2-0.2,0.2c-0.2-0.1-0.3-0.2-0.4-0.3c0,0,0,0,0,0
		C124.5,59.8,124.7,59.8,124.9,59.9z M124.8,60.2c-0.1,0.1-0.1,0.2-0.1,0.3c-0.2-0.2-0.3-0.4-0.5-0.5c0,0,0,0,0,0
		C124.3,60,124.6,60.1,124.8,60.2z M124.6,60.6c0,0.1-0.1,0.2-0.1,0.3c-0.1,0-0.1-0.1-0.2-0.2c-0.2-0.1-0.3-0.3-0.5-0.4c0,0,0,0,0,0
		C124,60.4,124.3,60.5,124.6,60.6z M123.5,61.8C123.5,61.8,123.5,61.8,123.5,61.8c-0.1,0.1-0.1,0.2-0.2,0.2c-0.3,0-0.6,0-0.9,0
		c0,0,0,0,0,0C122.8,61.9,123.1,61.8,123.5,61.8z M122.9,62.5c-0.1,0.1-0.1,0.2-0.2,0.3c-0.1,0-0.1,0.1-0.2,0.1
		c-0.2,0-0.4-0.1-0.6-0.1c0,0,0,0,0,0C122.2,62.6,122.5,62.5,122.9,62.5z M122,64.9C122,64.9,122,64.9,122,64.9
		c0-0.2,0.1-0.3,0.1-0.4c0,0.1,0.1,0.1,0.1,0.2c0-0.1,0.1-0.2,0.1-0.2s0-0.1,0.1-0.2c0.1,0.1,0.2,0.2,0.2,0.3
		C122.3,64.7,122.2,64.8,122,64.9z M122,68.6C122,68.6,122,68.6,122,68.6c-0.1-0.1-0.1-0.3-0.1-0.4c0,0,0,0,0.1,0
		C122,68.3,122,68.5,122,68.6z M122.2,63.2c-0.1,0.3-0.3,0.2-0.6,0.1C121.8,63.3,122,63.3,122.2,63.2z M121.8,63.7
		c-0.1,0.2-0.2,0.3-0.4,0.1C121.6,63.8,121.7,63.8,121.8,63.7z M142.3,57.2c0,0,0.1,0,0.1,0c0.3,0.6,0.8,1,0.8,1.8
		c0-0.1,0.1-0.1,0.1-0.2c0.2,0.2,0.3,0.5,0.3,0.8c0,0,0,0,0.1,0c0.1-0.2,0.2-0.5,0.2-0.7h0V60c0,0,0,0,0.1,0
		c0.1-0.2,0.2-0.5,0.3-0.7c0.2,0.3,0.1,0.5,0.1,0.7c0,0.2,0,0.4,0,0.7c0.1-0.4,0.3-0.8,0.4-1.3c0,0,0,0,0,0v2c0,0,0,0,0,0
		c0.1-0.3,0.3-0.7,0.4-1.1c0,0,0,0,0,0v1.6c0,0,0,0,0.1,0c0.1-0.3,0.3-0.7,0.4-1c0,0,0,0,0.1,0c0,0.6,0.1,1.1,0.1,1.7c0,0,0,0,0,0
		c0.1-0.3,0.3-0.6,0.4-0.8c0,0,0,0,0.1,0c0.1,0.8,0.3,1.5,0.4,2.3h0.1c0-0.3,0-0.6,0.1-0.9h0c0.1,0.5,0.1,1.1,0.2,1.7c0,0,0,0,0.1,0
		c0.1-0.5,0.2-1,0.3-1.5c0,0,0.1,0,0.1,0v2.5h0.1c0.1-0.5,0.2-0.9,0.3-1.4h0.1v2.9c0,0,0.1,0,0.1,0c0.1-0.4,0.3-0.8,0.4-1.3
		c0,0,0,0,0.1,0c-0.1,0.8-0.2,1.6-0.3,2.4c0,0,0,0,0.1,0c0.2-0.4,0.4-0.8,0.5-1.2c0,0,0,0,0.1,0c-0.1,0.8-0.3,1.7-0.4,2.5
		c0,0,0,0,0.1,0c0.2-0.4,0.3-0.8,0.5-1.2c0,0,0,0,0.1,0c-0.1,0.8-0.3,1.7-0.5,2.5c0,0,0,0,0,0c0.2-0.4,0.4-0.9,0.7-1.3
		c0,0,0,0,0.1,0c0,1-0.1,2.1-0.1,3.1c0,0,0,0,0.1,0c0.1-0.6,0.3-1.2,0.4-1.8c0,0,0,0,0.1,0c-0.1,0.9-0.1,1.9-0.2,2.8c0,0,0,0,0.1,0
		c0.2-0.4,0.3-0.9,0.5-1.3h0.1c0.1,0.9,0.1,1.8,0.2,2.8h0.1c0-0.1,0-0.3,0-0.4c0-1.5,0.1-3.1,0-4.6c-0.1-2.2-0.5-4.4-1.3-6.4
		c0-0.1,0-0.1,0-0.2c0.1-0.4,0.3-0.7,0.5-1v1.7c0,0,0,0,0,0c0.1-0.3,0.2-0.6,0.3-0.9c0,0,0,0,0.1,0c0,0.5-0.1,1.1-0.1,1.6
		c0,0,0,0,0.1,0c0.1-0.3,0.2-0.6,0.3-0.9c0,0,0,0,0.1,0c-0.1,0.7-0.1,1.3-0.1,1.9c0,0,0,0,0.1,0c0.2-0.4,0.4-0.9,0.7-1.3
		c0,0,0,0,0.1,0c-0.1,1.2-0.3,2.5-0.5,3.7c0,0,0,0,0,0c0.2-0.7,0.5-1.4,0.7-2c0,0,0,0,0,0v2c0,0,0,0,0,0c0.3-0.7,0.6-1.4,0.9-2.1
		c0,0,0,0,0.1,0c-0.1,0.9-0.2,1.9-0.3,2.8c0,0,0,0,0,0c0.2-0.6,0.5-1.1,0.7-1.7c0,0,0,0,0.1,0c-0.1,0.8-0.3,1.7-0.4,2.5
		c0,0,0,0,0.1,0c0.2-0.8,0.5-1.5,0.7-2.3h0.1c-0.1,0.6-0.1,1.2-0.2,1.7c0,0,0,0,0.1,0c0.2-0.4,0.4-0.8,0.5-1.2c0,0,0,0,0.1,0
		c0,0.8-0.1,1.6-0.1,2.3c0,0,0,0,0.1,0c0.1-0.4,0.3-0.8,0.5-1.2c0,0,0,0,0.1,0c-0.1,0.6-0.1,1.1-0.2,1.7c0,0,0,0,0.1,0
		c0.2-0.5,0.5-0.9,0.7-1.4v2.1c0,0,0,0,0,0c0.1-0.4,0.2-0.9,0.4-1.3c0.2-0.6,0.1-1.1-0.1-1.7c-0.6-1.8-1.3-3.5-2.3-5.2
		c-0.4-0.7-0.6-1.4-0.9-2.1c0,0,0,0,0.1,0c0.7,1.1,1.5,2.2,2.2,3.3c0,0,0,0,0.1,0c-0.5-1-1-2-1.5-3c0,0,0,0,0,0
		c0.8,1.3,1.7,2.6,2.5,3.9c0,0,0,0,0.1,0c-0.3-0.9-0.6-1.8-0.9-2.7c0,0,0,0,0,0c0.7,1.2,1.4,2.3,2.1,3.5c0,0,0,0,0.1,0
		c-0.3-0.7-0.5-1.5-0.8-2.2c0,0,0,0,0.1,0c0.5,1,1.1,2,1.6,3c0,0,0,0,0.1,0c-0.3-0.8-0.5-1.6-0.8-2.4c0,0,0,0,0.1,0
		c0.7,0.9,1.4,1.9,2,2.8c0,0,0,0,0.1,0c-0.2-0.6-0.5-1.2-0.7-1.8c0,0,0,0,0.1,0c1,0.7,1.9,1.4,2.9,2.2c0,0,0,0,0,0
		c0,0,0-0.1-0.1-0.1c-2.6-3.1-5.4-5.9-8.7-8.2c-1.4-1-2.8-1.8-4.3-2.4c-0.4-0.2-0.4-0.3-0.4-0.8c0.1,0.2,0.2,0.3,0.4,0.4v-0.7
		c0.2,0.3,0.4,0.5,0.6,0.7c0,0,0,0,0.1,0v-0.5c0,0,0.1,0,0.1,0c0.2,0.3,0.3,0.5,0.5,0.8c0.1-0.4,0.2-0.7,0.2-1h0.1
		c0.1,0.3,0.2,0.7,0.3,1c0,0,0,0,0.1,0c0.1-0.3,0.1-0.7,0.2-1h0.1c0.1,0.4,0.3,0.8,0.4,1.2c0,0,0,0,0,0c0.1-0.4,0.1-0.7,0.1-1.1
		c0,0,0,0,0.1,0c0.2,0.4,0.4,0.8,0.5,1.3c0,0,0,0,0.1,0c0-0.4,0.1-0.8,0.1-1.2c0,0,0,0,0.1,0c0.2,0.6,0.4,1.2,0.6,1.9
		c0,0,0.1,0,0.1,0V57c0,0,0.1,0,0.1,0c0.2,0.6,0.4,1.2,0.6,1.7c0,0,0,0,0,0v-1.3c0,0,0,0,0,0c0.2,0.6,0.4,1.1,0.6,1.7h0.1V58
		c0,0,0.1,0,0.1,0c0.1,0.5,0.3,0.9,0.4,1.4h0.1c0-0.3,0.1-0.7,0.1-1c0,0,0,0,0.1,0c0.1,0.5,0.3,0.9,0.4,1.4c0,0,0,0,0,0v-0.9
		c0,0,0,0,0,0c0.1,0.6,0.2,1.1,0.4,1.7h0.1c0-0.4,0.1-0.8,0.1-1.3c0,0,0,0,0.1,0c0.1,0.5,0.2,1,0.3,1.5h0.1c0.1-0.4,0.1-0.9,0.2-1.3
		h0.1c0.1,0.7,0.2,1.3,0.4,2h0.1c0-0.5,0.1-0.9,0.1-1.4c0,0,0,0,0.1,0c0.1,0.6,0.1,1.2,0.2,1.8h0c0-0.5,0.1-0.9,0.1-1.4h0.1
		c0.1,0.6,0.2,1.1,0.3,1.7c0,0,0,0,0.1,0c0.1-0.5,0.1-0.9,0.1-1.3h0.1c0.1,0.6,0.2,1.2,0.3,1.8h0c0.1-0.4,0.1-0.9,0.2-1.3
		c0,0,0,0,0.1,0c0.1,0.6,0.2,1.3,0.3,1.9c0,0,0,0,0.1,0c0.1-0.5,0.1-1.1,0.2-1.7c0,0,0.1,0,0.1,0c0.2,1,0.3,2.1,0.5,3.2
		c0,0,0,0,0.1,0c0-0.3,0.1-0.6,0.1-0.9c0.1-2.9-1.2-5-3.6-6.4c-1.2-0.7-2.5-1.2-3.9-1.5c-0.3-0.1-0.6-0.1-0.8-0.2
		c-0.1,0-0.2-0.1-0.4-0.1c-0.2,0-0.4,0-0.6,0c-0.1,0-0.3-0.1-0.4-0.2c-0.3-0.4-0.7-0.8-1-1.2c0,0,0-0.1-0.1-0.1c0.1,0,0.1,0,0.2,0.1
		c0.6,0.5,1.2,1,1.9,1.4c-0.3-0.4-0.6-0.8-0.9-1.2c0-0.1-0.1-0.1-0.1-0.2c0.6,0.5,1.3,1,1.9,1.5c0,0,0,0,0,0c-0.3-0.5-0.5-1-0.8-1.5
		c0,0,0,0,0,0c0.5,0.5,1,1,1.5,1.5c0,0,0.1,0,0.1-0.1c-0.3-0.5-0.7-1-1-1.5c0,0,0,0,0,0c0.8,0.6,1.6,1.2,2.4,1.8c0,0,0,0,0,0
		c-0.5-0.7-1.1-1.3-1.6-2c0,0,0,0,0,0c0.7,0.6,1.3,1.3,2,1.9c0,0,0,0,0,0c-0.4-0.6-0.8-1.2-1.2-1.7c0.4,0.4,0.9,0.9,1.3,1.3
		c0,0,0,0,0.1,0c-0.3-0.4-0.5-0.8-0.8-1.2c0,0,0,0,0.1,0c0.5,0.5,1,1,1.5,1.6c0,0,0.1,0,0.1-0.1c-0.3-0.5-0.6-1.1-0.9-1.6
		c0,0,0,0,0.1,0c0.8,0.9,1.6,1.8,2.4,2.6c0,0,0,0,0,0c-0.4-0.7-0.8-1.4-1.1-2.1c0,0,0,0,0,0c0.4,0.4,0.8,0.7,1.1,1.1c0,0,0,0,0.1,0
		c-0.3-0.6-0.6-1.1-1-1.7c0,0,0,0,0,0c0.7,0.8,1.4,1.7,2.2,2.5c0,0,0,0,0.1,0c-0.2-0.7-0.4-1.3-0.7-2c0,0,0,0,0.1,0l1.5,1.8
		c0,0,0,0,0,0c-0.4-0.6-0.8-1.2-1.1-1.8c0,0,0,0,0,0c0.5,0.4,1,0.8,1.5,1.1c0,0,0,0,0,0c-0.3-0.4-0.5-0.8-0.8-1.2c0,0,0,0,0,0
		c0.6,0.5,1.3,1.1,1.9,1.6c0,0,0,0,0,0c-0.2-0.4-0.4-0.8-0.6-1.2c0,0,0,0,0,0c0.5,0.2,1,0.5,1.6,0.7c0,0,0,0,0-0.1
		c-0.3-0.2-0.6-0.5-0.9-0.7h2.1c0,0,0,0,0,0c-0.4-0.1-0.8-0.3-1.2-0.3c-1.7-0.5-3.4-0.9-5.1-1.3c-2-0.5-4-0.7-6.1-0.6
		c-0.4,0-0.7,0.1-1,0.1c-0.1,0-0.2,0-0.2,0c-0.4-0.4-0.8-0.9-1.2-1.4c0.7,0.4,1.5,0.8,2.2,1.2c0,0,0,0,0,0c-0.7-0.5-1.4-1.1-2.1-1.6
		c0,0,0,0,0-0.1c1,0.4,2,0.8,2.9,1.1c0,0,0,0,0,0c-0.5-0.5-1-0.9-1.6-1.4c0,0,0,0,0,0c0.9,0.4,1.8,0.7,2.6,1.1c0,0,0,0,0,0
		c-0.7-0.5-1.3-1-2-1.4c0,0,0,0,0-0.1c0.9,0.3,1.8,0.6,2.8,0.9c0,0,0,0,0,0l-2.5-1.1c0,0,0,0,0-0.1c1.1,0.2,2.2,0.5,3.3,0.7
		c0,0,0,0,0,0c-0.9-0.3-1.8-0.6-2.7-1c0,0,0,0,0,0c0.9,0.1,1.9,0.2,2.8,0.2c0,0,0,0,0,0c-0.8-0.2-1.5-0.3-2.3-0.5c0,0,0,0,0-0.1
		c1.2-0.3,2.3-0.6,3.5-0.9v0c0,0-0.1,0-0.1,0c-1.8,0-3.5,0.2-5.3,0.7c-1.2,0.4-2.3,0.9-3.4,1.6c-0.1,0-0.1,0.1-0.2,0.1
		c-0.4,0.3-0.4,0.3-0.7,0c-0.2-0.2-0.4-0.3-0.6-0.5c0,0,0,0,0,0c0.4,0.2,0.8,0.4,1.2,0.5c0,0,0,0,0,0c-0.3-0.3-0.5-0.6-0.8-0.9
		c0,0,0,0,0,0c0.2,0.1,0.5,0.2,0.7,0.3c0,0,0,0,0,0c-0.2-0.1-0.4-0.3-0.5-0.4c0,0,0,0,0-0.1c0.4,0.1,0.8,0.2,1.2,0.3c0,0,0,0,0,0
		c-0.3-0.1-0.5-0.3-0.8-0.4c0,0,0,0,0-0.1c0.4,0,0.8-0.1,1.3-0.1c0,0,0,0,0,0c-0.3-0.1-0.6-0.2-0.9-0.3c0,0,0,0,0,0
		c0.1,0,0.3,0,0.4,0.1c0,0,0,0,0,0c-0.1-0.1-0.3-0.1-0.4-0.2c0,0,0,0,0,0h1c0,0,0,0,0-0.1c-0.3,0-0.6-0.1-0.8-0.2c0,0,0,0,0-0.1
		c0.4-0.1,0.8-0.3,1.2-0.4c0,0,0,0,0-0.1c-0.3,0.1-0.7,0.1-1,0.2c-2.3,0.6-3.8,2.1-4.8,4.2c-0.4,0.8-0.6,1.5-0.9,2.3
		c-0.2-0.8-0.5-1.6-0.9-2.3c-1-2.1-2.5-3.6-4.8-4.2c-0.3-0.1-0.7-0.1-1-0.2c-0.1,0.1-0.1,0.1-0.1,0.1c0.4,0.2,0.8,0.3,1.2,0.4
		c0,0,0,0,0,0.1c-0.3,0.1-0.6,0.1-0.8,0.2c0,0,0,0,0,0.1h1c0,0,0,0,0,0c-0.1,0.1-0.3,0.1-0.4,0.2c0,0,0,0,0,0c0.1,0,0.3,0,0.4-0.1
		c0,0,0,0,0,0c-0.3,0.1-0.6,0.2-0.9,0.3c0,0,0,0,0,0c0.4,0,0.8,0.1,1.3,0.1c0,0,0,0,0,0.1c-0.3,0.1-0.5,0.3-0.8,0.4c0,0,0,0,0,0
		c0.4-0.1,0.8-0.2,1.2-0.3c0,0,0,0,0,0.1c-0.2,0.1-0.4,0.3-0.5,0.4c0,0,0,0,0,0c0.2-0.1,0.5-0.2,0.7-0.3c0,0,0,0,0,0
		c-0.3,0.3-0.5,0.6-0.8,0.9c0,0,0,0,0,0c0.4-0.2,0.8-0.4,1.2-0.5c0,0,0,0,0,0c-0.2,0.2-0.4,0.3-0.6,0.5c-0.4,0.3-0.4,0.3-0.7,0
		c-0.1,0-0.1-0.1-0.2-0.1c-1-0.7-2.2-1.3-3.4-1.6c-1.7-0.5-3.5-0.7-5.3-0.7c0,0-0.1,0-0.1,0v0c1.2,0.3,2.3,0.6,3.5,0.9
		c0,0,0,0,0,0.1c-0.8,0.2-1.5,0.3-2.3,0.5c0,0,0,0,0,0c0.9-0.1,1.9-0.2,2.8-0.2c0,0,0,0,0,0c-0.9,0.3-1.8,0.7-2.7,1c0,0,0,0,0,0
		c1.1-0.2,2.2-0.5,3.3-0.7c0,0,0,0,0,0.1l-2.5,1.1c0,0,0,0,0,0c0.9-0.3,1.8-0.6,2.8-0.9c0,0,0,0,0,0.1c-0.7,0.5-1.3,1-2,1.4
		c0,0,0,0,0,0c0.9-0.4,1.8-0.7,2.6-1.1c0,0,0,0,0,0c-0.5,0.5-1,0.9-1.6,1.4c0,0,0,0,0,0c1-0.4,2-0.8,2.9-1.1c0,0,0,0,0,0.1
		c-0.7,0.5-1.4,1.1-2.1,1.6c0,0,0,0,0,0c0.7-0.4,1.5-0.8,2.2-1.2c-0.4,0.5-0.8,0.9-1.2,1.4c0,0-0.2,0-0.2,0c-0.3,0-0.7-0.1-1-0.1
		c-2.1-0.1-4.1,0.1-6.1,0.6c-1.7,0.4-3.4,0.9-5.2,1.3c-0.4,0.1-0.8,0.2-1.2,0.3c0,0,0,0,0,0h2.1c-0.3,0.3-0.6,0.5-0.9,0.7
		c0,0,0,0,0,0.1c0.5-0.2,1-0.5,1.6-0.7c0,0,0,0,0,0c-0.2,0.4-0.4,0.8-0.6,1.2c0,0,0,0,0,0c0.6-0.5,1.3-1.1,1.9-1.6c0,0,0,0,0,0
		c-0.3,0.4-0.5,0.8-0.8,1.2c0,0,0,0,0,0c0.5-0.4,1-0.8,1.5-1.1c0,0,0,0,0,0c-0.4,0.6-0.8,1.2-1.1,1.8c0,0,0,0,0,0l1.5-1.8
		c0,0,0,0,0.1,0c-0.2,0.7-0.4,1.3-0.7,2c0,0,0,0,0.1,0c0.7-0.8,1.4-1.7,2.2-2.5c0,0,0,0,0,0c-0.3,0.6-0.7,1.1-1,1.7c0,0,0,0,0.1,0
		c0.4-0.3,0.8-0.7,1.1-1.1c0,0,0,0,0,0c-0.4,0.7-0.8,1.4-1.2,2.1c0,0,0,0,0,0c0.8-0.9,1.6-1.8,2.4-2.6c0,0,0,0,0.1,0
		c-0.3,0.5-0.6,1.1-0.9,1.6c0,0,0.1,0,0.1,0.1c0.5-0.5,1-1,1.5-1.6c0,0,0,0,0.1,0c-0.3,0.4-0.5,0.8-0.8,1.2c0,0,0,0,0.1,0
		c0.4-0.5,0.9-0.9,1.3-1.3c-0.4,0.5-0.8,1.2-1.2,1.7c0,0,0,0,0,0c0.7-0.6,1.3-1.3,2-1.9c0,0,0,0,0,0c-0.6,0.7-1.1,1.3-1.6,2
		c0,0,0,0,0,0c0.8-0.6,1.6-1.2,2.4-1.8c0,0,0,0,0,0c-0.3,0.5-0.7,1-1,1.5c0,0,0,0,0.1,0.1c0.5-0.5,1-1,1.5-1.5c0,0,0,0,0,0
		c-0.3,0.5-0.5,1-0.8,1.5c0,0,0,0,0,0c0.6-0.5,1.3-1,1.9-1.5c0,0.1-0.1,0.2-0.1,0.2c-0.3,0.4-0.6,0.8-0.9,1.2c0.6-0.5,1.2-1,1.9-1.4
		c0.1,0,0.1-0.1,0.2-0.1c0,0,0,0.1-0.1,0.1c-0.3,0.4-0.7,0.8-1,1.2c-0.1,0.1-0.2,0.2-0.4,0.2c-0.2,0-0.4,0-0.6,0
		c-0.1,0-0.2,0.1-0.4,0.1c-0.3,0.1-0.6,0.1-0.8,0.2c-1.4,0.3-2.7,0.8-3.9,1.5c-0.7,0.4-1.3,0.9-1.8,1.5c-0.2,0-0.3-0.1-0.5-0.1
		c0,0,0,0,0,0c0.3-0.1,0.7-0.3,1-0.4c0,0,0,0,0,0c-0.3,0.1-0.6,0.1-0.9,0.2c-2,0.5-3.2,1.8-4.1,3.5c-0.5,1-0.8,2-1,3.1
		c0,0.1,0,0.1-0.1,0.2c0,0,0,0.1-0.1,0.1c0-0.3,0-0.6,0.1-0.8c0.1-1.3,0.1-2.6,0-3.8c-0.1-0.7-0.2-1.5-0.6-2.2
		c-0.1-0.3-0.4-0.5-0.6-0.7c-0.1-0.1-0.2-0.1-0.2-0.1c0.3,0.6,0.5,1.2,0.5,2c-0.6-0.4-1.2-0.8-1.8-1.3c0,0,0,0,0,0
		c0.5,0.5,1.1,1.1,1.6,1.6c0,0,0,0,0,0c-0.7-0.3-1.4-0.7-2.1-1c0,0,0,0,0,0c0.7,0.5,1.3,1.1,2,1.6c0,0,0,0,0,0
		c-0.4-0.1-0.9-0.3-1.3-0.4c0,0,0,0,0,0c0.5,0.4,1.1,0.8,1.6,1.3c0,0,0,0,0,0c-0.4-0.1-0.7-0.2-1.1-0.4c0,0,0,0,0,0
		c0.4,0.4,0.8,0.8,1.3,1.2c0,0,0,0,0,0c-0.3-0.1-0.7-0.2-1-0.3c0,0,0,0,0,0c0.4,0.4,0.8,0.8,1.3,1.1c0,0,0,0,0,0
		c-0.3-0.1-0.6-0.2-0.8-0.3c0,0,0,0,0,0c0.3,0.3,0.5,0.5,0.8,0.8c-0.3,0-0.6-0.1-0.7-0.4c-1-1.8-2.3-3.4-3.9-4.7
		c-1.1-0.8-2.2-1.5-3.5-1.8c0,0-0.1,0-0.1,0c0.8,0.5,1.6,0.9,2,1.9c-0.7-0.2-1.3-0.5-2.1-0.3c0.8,0.1,1.6,0.3,2.4,0.6
		c-0.7,0-1.5,0-2.2,0.2c0.8,0,1.5,0.1,2.2,0.4c-0.4,0.1-0.9,0.3-1.3,0.4c0,0,0,0,0,0c0.5,0,1.1-0.1,1.6-0.2c0,0,0,0,0,0
		c-0.5,0.3-1.1,0.5-1.6,0.8c0,0,0,0,0,0c0.7-0.1,1.3-0.2,1.9-0.3c0,0,0,0,0,0c-0.5,0.2-1,0.4-1.5,0.6c0,0,0,0,0,0
		c0.8-0.1,1.6-0.2,2.4-0.3c0,0,0,0,0,0c-0.1,0-0.1,0.1-0.2,0.1c-0.4,0.2-0.9,0.5-1.3,0.7c-0.1,0-0.1,0.1-0.2,0.2l0,0
		c-0.4-0.1-0.8-0.2-1.2-0.2c-1.5-0.3-2.9-0.1-4.3,0.4c-0.5,0.2-1,0.5-1.6,0.7c0,0-0.1,0-0.1,0.1c0.6-0.2,1.1-0.3,1.7-0.5
		c0,0,0,0,0,0c-0.3,0.3-0.6,0.6-0.8,0.9c0,0,0,0,0,0c0.4-0.3,0.8-0.6,1.1-0.9c0,0,0,0,0,0c-0.1,0.2-0.2,0.4-0.3,0.6c0,0,0,0,0,0
		c0.2-0.2,0.4-0.4,0.5-0.6c0,0,0,0,0,0c-0.3,0.4-0.5,0.8-0.8,1.1c0,0,0,0,0,0c0.5-0.3,0.9-0.6,1.4-0.9c0,0,0,0,0,0
		c-0.2,0.4-0.4,0.8-0.6,1.2c0,0,0,0,0,0c0.4-0.4,0.8-0.9,1.1-1.4c0,0,0,0,0,0c-0.1,0.4-0.2,0.7-0.3,1.1c0,0,0,0,0,0
		c0.2-0.4,0.4-0.7,0.6-1.1c0,0,0,0,0.1,0c0,0.5-0.1,1-0.1,1.5c0,0,0,0,0.1,0c0.3-0.5,0.6-1,0.8-1.5c0,0,0,0,0.1,0
		c-0.1,0.6-0.3,1.1-0.4,1.7c0,0,0,0,0.1,0c0.3-0.6,0.6-1.2,0.9-1.7c0,0,0,0,0,0c-0.1,0.4-0.3,0.8-0.4,1.2c0,0,0,0,0,0
		c0.3-0.4,0.7-0.8,1-1.1c0,0,0,0,0,0c-0.2,0.5-0.5,0.9-0.7,1.4c0,0,0,0,0,0c0.4-0.3,0.9-0.7,1.4-1c0,0,0,0,0,0c-0.5,0.5-1,1-1.4,1.6
		c0,0,0,0,0,0c0.8-0.5,1.6-1,2.4-1.5c0,0,0,0,0,0c-0.5,0.4-1,0.9-1.5,1.3c0,0,0,0,0,0c0.6-0.3,1.2-0.6,1.9-1c0,0,0,0,0,0
		c-0.4,0.3-0.8,0.6-1.1,0.8c0,0,0,0,0,0.1c0.6-0.3,1.2-0.6,1.8-0.8c0,0,0,0,0,0c-0.4,0.4-0.8,0.9-1.2,1.3c0,0,0,0,0,0
		c0.7-0.3,1.3-0.6,2-0.8c0,0,0,0,0,0c-0.4,0.3-0.8,0.6-1.2,0.9c0,0,0,0,0,0c0.6-0.2,1.2-0.5,1.8-0.7c0,0,0,0,0,0
		c-0.3,0.3-0.6,0.6-0.8,0.8c0,0,0,0,0,0c0.4-0.2,0.9-0.4,1.3-0.6c0,0,0,0,0,0c-0.1,0.2-0.2,0.3-0.3,0.4c-0.1,0.2-0.2,0.2-0.4,0.2
		c-2.2,0-4.3,0.4-6.2,1.4c-0.3,0.2-0.7,0.4-1,0.6c-0.3-0.1-0.6-0.3-0.8-0.4c0,0,0,0,0,0c0.4,0,0.8,0.1,1.2,0.1c0,0,0,0,0,0
		c-0.3-0.1-0.7-0.2-1-0.3c0.6-0.2,1.1-0.3,1.7-0.3c-0.5-0.1-1.1-0.1-1.7-0.2c0.6-0.2,1.2-0.4,1.8-0.5c-0.6-0.1-1.1,0.1-1.6,0.2
		c0.3-0.7,0.9-1,1.5-1.4c0,0-0.1,0-0.1,0c-1,0.3-1.8,0.7-2.6,1.3c-1.2,1-2.2,2.2-2.9,3.5c-0.1,0.2-0.3,0.3-0.5,0.3
		c0.2-0.2,0.4-0.4,0.6-0.6c0,0,0,0,0,0c-0.2,0.1-0.4,0.2-0.6,0.2c0,0,0,0,0,0c0.3-0.3,0.6-0.6,1-0.8c0,0,0,0,0,0
		c-0.3,0.1-0.5,0.1-0.8,0.2c0,0,0,0,0,0c0.3-0.3,0.6-0.6,0.9-0.9c0,0,0,0,0,0c-0.3,0.1-0.5,0.2-0.8,0.3c0,0,0,0,0,0
		c0.4-0.3,0.8-0.6,1.2-0.9c0,0,0,0,0,0c-0.3,0.1-0.7,0.2-1,0.3c0,0,0,0,0,0c0.5-0.4,1-0.8,1.5-1.2c0,0,0,0,0,0
		c-0.5,0.3-1.1,0.5-1.6,0.8c0,0,0,0,0,0c0.4-0.4,0.8-0.8,1.2-1.2c0,0,0,0,0,0c-0.4,0.3-0.9,0.6-1.4,0.9c0-0.6,0.2-1,0.4-1.5
		c-0.1,0-0.1,0-0.2,0.1c-0.1,0.2-0.3,0.3-0.4,0.5c-0.3,0.5-0.4,1.1-0.4,1.6c-0.1,1-0.1,1.9,0,2.9c0,0.2,0,0.4,0,0.6c0,0,0,0,0-0.1
		c0-0.1,0-0.1,0-0.1c-0.2-0.8-0.4-1.6-0.8-2.3c-0.6-1.3-1.6-2.3-3-2.7c-0.2-0.1-0.4-0.1-0.7-0.1c0,0,0,0,0,0
		c0.2,0.1,0.5,0.2,0.7,0.3c0,0,0,0,0,0c-0.2,0-0.3,0.1-0.5,0.1c0,0,0,0,0,0c0.2,0,0.4,0,0.6,0c0,0,0,0,0,0c-0.1,0-0.2,0.1-0.3,0.1
		c0,0,0,0,0,0c0.1,0,0.2,0,0.3,0c0,0,0,0,0,0c-0.2,0.1-0.4,0.1-0.5,0.2c0,0,0,0,0,0c0.3,0,0.5,0.1,0.8,0.1c0,0,0,0,0,0
		c-0.2,0.1-0.3,0.2-0.5,0.2c0,0,0,0,0,0c0.3-0.1,0.5-0.1,0.8-0.2c0,0,0,0,0,0c-0.1,0.1-0.2,0.2-0.3,0.2c0,0,0,0,0,0
		c0.2-0.1,0.3-0.1,0.4-0.2c0,0,0,0,0,0c-0.2,0.2-0.3,0.4-0.5,0.6c0,0,0,0,0,0c0.3-0.1,0.5-0.2,0.8-0.3c0,0,0,0,0,0
		c-0.1,0.1-0.3,0.2-0.4,0.3c-0.2,0.2-0.2,0.2-0.5,0c0,0-0.1-0.1-0.1-0.1c-0.7-0.4-1.4-0.8-2.1-1c-1.1-0.3-2.2-0.4-3.3-0.5
		c0,0-0.1,0-0.1,0c0,0,0,0,0,0c0.7,0.2,1.5,0.4,2.2,0.6c0,0,0,0,0,0c-0.5,0.1-1,0.2-1.4,0.3c0,0,0,0,0,0c0.6-0.1,1.2-0.1,1.8-0.2
		c0,0,0,0,0,0c-0.6,0.2-1.1,0.4-1.7,0.6c0,0,0,0,0,0c0.7-0.1,1.4-0.3,2.1-0.4c0,0,0,0,0,0c-0.5,0.2-1,0.5-1.6,0.7c0,0,0,0,0,0
		c0.6-0.2,1.2-0.4,1.7-0.6c0,0,0,0,0,0c-0.4,0.3-0.8,0.6-1.3,0.9c0,0,0,0,0,0c0.6-0.2,1.1-0.5,1.7-0.7c0,0,0,0,0,0
		c-0.3,0.3-0.7,0.6-1,0.9c0,0,0,0,0,0c0.6-0.2,1.2-0.5,1.9-0.7c0,0,0,0,0,0c-0.4,0.3-0.9,0.7-1.3,1c0,0,0,0,0,0
		c0.5-0.2,0.9-0.5,1.4-0.7c-0.2,0.3-0.5,0.6-0.8,0.9c0,0-0.1,0-0.2,0c-0.2,0-0.4-0.1-0.7-0.1c-1.3-0.1-2.6,0.1-3.8,0.4
		c-1.1,0.3-2.2,0.6-3.3,0.8c-0.3,0.1-0.5,0.2-0.7,0.2c0,0,0,0,0,0c0.4,0,0.8,0,1.3,0c-0.2,0.2-0.4,0.3-0.6,0.4c0,0,0,0,0,0
		c0.3-0.1,0.7-0.3,1-0.4c0,0,0,0,0,0c-0.1,0.2-0.3,0.5-0.4,0.7c0,0,0,0,0,0c0.4-0.3,0.8-0.7,1.2-1c0,0,0,0,0,0
		c-0.2,0.3-0.3,0.5-0.5,0.8c0,0,0,0,0,0c0.3-0.2,0.6-0.5,0.9-0.7c0,0,0,0,0,0c-0.2,0.4-0.5,0.8-0.7,1.2c0,0,0,0,0,0
		c0.3-0.4,0.6-0.8,0.9-1.1c0,0,0,0,0,0c-0.1,0.4-0.3,0.8-0.4,1.3c0,0,0,0,0,0c0.4-0.5,0.9-1.1,1.4-1.6c0,0,0,0,0,0
		c-0.2,0.4-0.4,0.7-0.6,1.1c0,0,0,0,0,0c0.2-0.2,0.5-0.4,0.7-0.7c0,0,0,0,0,0c-0.2,0.4-0.5,0.9-0.7,1.3c0,0,0,0,0,0
		c0.5-0.6,1-1.1,1.5-1.7c0,0,0,0,0,0c-0.2,0.3-0.4,0.7-0.6,1c0,0,0,0,0.1,0c0.3-0.3,0.6-0.7,0.9-1c0,0,0,0,0,0
		c-0.2,0.3-0.3,0.5-0.5,0.7c0,0,0,0,0,0c0.3-0.3,0.6-0.6,0.8-0.8c-0.2,0.3-0.5,0.7-0.7,1.1c0,0,0,0,0,0c0.4-0.4,0.8-0.8,1.3-1.2
		c0,0,0,0,0,0c-0.3,0.4-0.7,0.8-1,1.2c0,0,0,0,0,0c0.5-0.4,1-0.7,1.5-1.1c0,0,0,0,0,0c-0.2,0.3-0.4,0.7-0.6,1c0,0,0,0,0.1,0
		c0.3-0.3,0.6-0.6,0.9-1c0,0,0,0,0,0c-0.2,0.3-0.3,0.7-0.5,1c0,0,0,0,0,0c0.4-0.3,0.8-0.7,1.2-1c0,0.1,0,0.1-0.1,0.1
		c-0.2,0.3-0.4,0.5-0.6,0.8c0.4-0.3,0.8-0.6,1.2-0.9c0,0,0.1-0.1,0.1-0.1c0,0,0,0.1-0.1,0.1c-0.2,0.3-0.4,0.5-0.6,0.8
		C98.1,71.9,98.1,72,98,72c-0.1,0-0.2,0-0.4,0c-0.1,0-0.2,0.1-0.2,0.1c-0.2,0-0.3,0.1-0.5,0.1c-0.9,0.2-1.7,0.5-2.5,0.9
		c-1.5,0.9-2.3,2.2-2.3,4.1c0,0.2,0,0.4,0.1,0.6c0,0,0,0,0,0c0.1-0.7,0.2-1.3,0.3-2c0,0,0,0,0,0c0,0.3,0.1,0.7,0.1,1c0,0,0,0,0,0
		c0.1-0.4,0.1-0.8,0.2-1.2c0,0,0,0,0,0c0,0.3,0.1,0.6,0.1,0.8c0,0,0,0,0,0c0.1-0.4,0.1-0.8,0.2-1.1c0,0,0,0,0,0
		c0,0.3,0.1,0.6,0.1,0.8c0,0,0,0,0,0c0.1-0.3,0.2-0.7,0.2-1.1c0,0,0,0,0,0c0,0.3,0,0.6,0.1,0.9c0,0,0,0,0,0c0.1-0.4,0.1-0.8,0.1-1.2
		c0,0,0,0,0,0c0,0.3,0.1,0.6,0.1,0.9c0,0,0,0,0,0c0.1-0.4,0.1-0.8,0.2-1.2c0,0,0,0,0,0c0,0.3,0.1,0.6,0.1,0.8c0,0,0,0,0,0
		c0.1-0.3,0.1-0.6,0.2-0.9c0,0,0,0,0,0c0,0.3,0,0.5,0.1,0.8c0,0,0,0,0,0c0.1-0.3,0.1-0.7,0.2-1.1c0,0,0,0,0,0c0,0.2,0,0.4,0,0.6
		c0,0,0,0,0,0c0.1-0.3,0.2-0.6,0.3-0.9c0,0,0,0,0,0c0,0.2,0,0.4,0.1,0.7c0,0,0,0,0,0c0.1-0.3,0.2-0.6,0.3-0.9c0,0,0,0,0.1,0
		c0,0.2,0,0.4,0,0.7c0,0,0,0,0,0c0.1-0.3,0.3-0.7,0.4-1.1c0,0,0,0,0,0c0,0.3,0,0.5,0,0.8c0,0,0,0,0,0c0.1-0.4,0.2-0.7,0.4-1.1
		c0,0,0,0,0.1,0c0,0.3,0,0.5,0,0.8c0,0,0,0,0,0c0.1-0.4,0.2-0.8,0.4-1.2c0,0,0,0,0,0c0,0.2,0,0.5,0.1,0.7c0,0,0,0,0,0
		c0.1-0.3,0.2-0.5,0.3-0.8c0,0,0,0,0,0c0,0.2,0.1,0.5,0.1,0.7c0,0,0,0,0,0c0.1-0.2,0.2-0.5,0.2-0.7c0,0,0,0,0,0
		c0.1,0.2,0.1,0.4,0.1,0.7c0,0,0,0,0,0c0.1-0.2,0.1-0.4,0.2-0.7c0,0,0,0,0,0c0.1,0.2,0.1,0.4,0.2,0.6c0.1-0.2,0.2-0.3,0.3-0.5
		c0,0,0,0,0.1,0c0,0.1,0,0.2,0,0.3c0,0,0,0,0,0c0.1-0.1,0.2-0.3,0.3-0.4c0,0.2,0,0.3,0,0.4c0.1-0.1,0.1-0.2,0.2-0.2
		c0,0.3,0,0.4-0.3,0.5c-1,0.4-1.9,0.9-2.7,1.5c-2.1,1.5-3.8,3.2-5.5,5.2c0,0,0,0.1-0.1,0.1c0,0.1,0,0.1,0,0.1
		c0.6-0.4,1.2-0.9,1.8-1.4c0,0,0,0,0,0c-0.2,0.4-0.3,0.8-0.5,1.1c0,0,0,0,0,0c0.4-0.6,0.8-1.2,1.3-1.8c0,0,0,0,0,0
		c-0.2,0.5-0.3,1-0.5,1.5c0,0,0,0,0,0c0.3-0.6,0.7-1.3,1-1.9c0,0,0,0,0,0c-0.2,0.5-0.3,0.9-0.5,1.4c0,0,0,0,0,0
		c0.4-0.7,0.9-1.4,1.3-2.2c0,0,0,0,0,0c-0.2,0.6-0.4,1.1-0.5,1.7c0,0,0,0,0,0c0.5-0.8,1.1-1.6,1.6-2.4c0,0,0,0,0,0
		c-0.3,0.6-0.6,1.3-0.9,1.9c0,0,0,0,0,0c0.5-0.7,0.9-1.4,1.4-2.1c0,0,0,0,0,0c-0.2,0.4-0.4,0.9-0.6,1.3c-0.6,1-1.1,2.1-1.4,3.3
		c-0.1,0.4-0.2,0.7,0,1.1c0.1,0.3,0.2,0.6,0.2,0.8h0c0-0.4,0-0.9,0-1.3c0.2,0.3,0.3,0.6,0.4,0.9c0,0,0,0,0,0c0-0.4-0.1-0.7-0.1-1.1
		c0,0,0,0,0,0c0.1,0.3,0.2,0.5,0.3,0.8c0,0,0,0,0,0c0-0.5,0-1-0.1-1.5c0,0,0,0,0,0c0.1,0.3,0.2,0.5,0.3,0.8c0,0,0,0,0,0
		c0-0.4-0.1-0.7-0.1-1.1c0,0,0,0,0,0c0.2,0.5,0.3,1,0.5,1.4c0,0,0,0,0,0c-0.1-0.5-0.2-1.1-0.3-1.6c0,0,0,0,0,0
		c0.1,0.4,0.3,0.7,0.4,1.1c0,0,0,0,0,0c-0.1-0.6-0.1-1.2-0.2-1.8c0,0,0,0,0,0c0.2,0.4,0.4,0.9,0.6,1.3c0,0,0,0,0,0
		c0-0.4,0-0.8,0-1.3c0,0,0,0,0,0c0.2,0.4,0.3,0.9,0.4,1.3c0,0,0,0,0,0c-0.1-0.8-0.2-1.6-0.3-2.3c0,0,0,0,0,0
		c0.1,0.3,0.3,0.6,0.4,0.8c0,0,0,0,0,0c0-0.4-0.1-0.8-0.1-1.2c0,0,0,0,0,0c0.1,0.2,0.1,0.4,0.2,0.6c0,0,0,0,0,0c0-0.3-0.1-0.7-0.1-1
		c0,0,0,0,0,0c0.1,0.2,0.1,0.4,0.2,0.6c0,0,0,0,0,0c0-0.4,0-0.7,0-1.1c0.1,0.2,0.2,0.4,0.3,0.7c0,0,0,0.1,0,0.1
		c-0.5,1.3-0.8,2.7-0.8,4.1c0,1,0,1.9,0,2.9c0,0.1,0,0.2,0,0.2c0,0,0,0,0,0c0.1-0.6,0.1-1.2,0.2-1.7c0,0,0,0,0,0
		c0.1,0.3,0.2,0.6,0.3,0.8c0,0,0,0,0,0c-0.1-0.6-0.1-1.2-0.1-1.8c0,0,0,0,0,0c0.1,0.4,0.2,0.8,0.3,1.1c0,0,0,0,0,0
		c0-0.7-0.1-1.3-0.1-2c0,0,0,0,0,0c0.1,0.3,0.3,0.5,0.4,0.8c0,0,0,0,0,0c-0.1-0.5-0.2-1-0.3-1.6c0,0,0,0,0,0
		c0.1,0.2,0.2,0.5,0.3,0.7c0,0,0,0,0,0c-0.1-0.5-0.2-1.1-0.3-1.6c0,0,0,0,0,0c0.1,0.3,0.2,0.5,0.3,0.8c0,0,0,0,0,0
		c-0.1-0.5-0.1-1-0.2-1.5c0,0,0,0,0,0c0.1,0.3,0.2,0.5,0.3,0.8c0,0,0,0,0.1,0c0-0.6,0-1.2,0-1.9c0,0,0,0,0.1,0
		c0.1,0.3,0.1,0.6,0.2,0.9c0,0,0,0,0.1,0c0-0.5,0-1.1,0-1.6c0,0,0,0,0.1,0c0.1,0.3,0.1,0.6,0.2,0.9c0,0,0,0,0,0c0-0.3,0.1-0.7,0.1-1
		c0,0,0,0,0,0c0,0.2,0,0.4,0,0.6c0,0,0,0,0,0c0.1-0.5,0.2-0.9,0.3-1.4c0,0,0,0,0,0c0.1,0.2,0.2,0.3,0.3,0.5c0,0,0,0,0,0
		c0-0.3,0.1-0.7,0.1-1.1c0,0,0,0,0,0c0.1,0.2,0.2,0.4,0.3,0.6c0,0,0,0,0,0c0-0.3,0-0.7,0-1c0,0,0,0,0,0c0.1,0.2,0.2,0.4,0.2,0.7
		c0,0,0,0,0,0c0-0.4,0-0.8,0-1.2c0,0,0,0,0,0c0.1,0.3,0.2,0.5,0.3,0.8c0-0.1,0-0.3,0-0.4c0-0.1-0.1-0.3,0-0.4
		c0.1,0.2,0.1,0.3,0.2,0.5c0,0,0,0,0,0c0-0.2,0-0.5,0-0.7c0,0,0,0,0,0c0.1,0.2,0.1,0.3,0.2,0.5c0,0,0,0,0,0c0-0.2,0-0.4,0.2-0.5
		c0,0.1,0.1,0.1,0.1,0.1c0-0.5,0.3-0.8,0.5-1.1c0,0,0,0,0.1,0c-0.1,5.1-0.3,10.3-0.4,15.4H67.8c0.7-31.6,26.6-57.1,58.4-57.1
		s57.7,25.5,58.4,57.1h-41.7C142.7,79.2,142.5,65.6,142.3,57.2z M144.6,49.6C144.7,49.6,144.7,49.5,144.6,49.6
		c0.4,0,0.8,0.1,1.1,0.2c0,0,0,0,0,0c-0.3-0.2-0.5-0.3-0.7-0.5c0,0,0,0,0,0c0.4,0.2,0.8,0.4,1.3,0.6c-0.2,0.2-0.4,0.3-0.5,0.4
		c-0.2,0.3-0.5,0.3-0.9,0.2c-0.2,0-0.4-0.1-0.5-0.1c0,0,0,0,0-0.1h1.2v-0.1C145.4,49.9,145,49.8,144.6,49.6z M146.5,50.7
		C146.5,50.7,146.6,50.7,146.5,50.7c0.4,0.3,0.8,0.6,1.2,0.9c0,0,0,0,0,0c-0.3-0.3-0.5-0.7-0.8-1c0,0,0,0,0.1,0
		c0.5,0.4,1.1,0.8,1.6,1.2c0,0,0,0,0,0c-0.4-0.4-0.8-0.9-1.2-1.3c0,0,0,0,0,0c0.7,0.5,1.3,0.9,2,1.4c0,0,0,0,0,0.1
		c-1.8,0.3-3.5,1-5.1,1.9c0-0.3-0.1-0.5-0.1-0.8c0,0,0,0,0.1,0c0.1,0.2,0.2,0.3,0.3,0.5v-0.9c0,0,0,0,0,0c0.1,0.2,0.2,0.3,0.3,0.4
		c0,0,0,0,0.1,0v-1c0.2,0.3,0.4,0.5,0.6,0.7c0,0,0,0,0,0c0-0.3-0.1-0.6-0.1-1c0,0,0,0,0.1,0c0.2,0.3,0.4,0.6,0.6,1c0,0,0,0,0,0
		c-0.1-0.4-0.3-0.7-0.4-1.1c0,0,0,0,0,0c0.3,0.3,0.6,0.5,0.9,0.8c0,0,0,0,0,0c-0.2-0.4-0.4-0.7-0.6-1.1c0,0,0,0,0,0
		c0.3,0.2,0.5,0.5,0.8,0.7c0,0,0,0,0,0C146.9,51.5,146.7,51.1,146.5,50.7z M148.4,54.7L148.4,54.7c0.5,0.2,0.9,0.5,1.3,0.8
		c0,0,0,0,0,0.1c-0.2,0-0.3,0-0.5,0c-0.1,0-0.2,0-0.3-0.1C148.7,55.2,148.6,54.9,148.4,54.7z M148.5,55.4c-0.3,0.1-0.5-0.1-0.7-0.6
		C148,55,148.3,55.2,148.5,55.4z M147.7,57.1c-0.2,0-0.4-0.1-0.6-0.1c-0.3-0.1-0.3-0.1-0.2-0.5C147.2,56.7,147.4,56.9,147.7,57.1z
		 M147.2,55c0.2,0.2,0.4,0.3,0.5,0.4C147.3,55.5,147.3,55.5,147.2,55z M147.6,60.7c0.1,0.2,0.2,0.3,0.1,0.6
		C147.4,61,147.4,60.9,147.6,60.7z M146.1,56.6C146.1,56.7,146.1,56.7,146.1,56.6c-0.5,0-1-0.1-1.4-0.2
		C145.2,56.5,145.7,56.4,146.1,56.6z M144.9,55.3c0.1,0.1,0.2,0.2,0.3,0.3C144.9,55.7,144.8,55.6,144.9,55.3z M145.4,55
		C145.4,55,145.4,55,145.4,55c0.2,0.1,0.4,0.3,0.6,0.5c0,0,0,0.1,0,0.1c-0.1,0-0.3,0-0.3-0.1C145.5,55.4,145.4,55.2,145.4,55z
		 M144.5,55.7c-0.3,0.1-0.3,0.1-0.4-0.3C144.3,55.5,144.4,55.6,144.5,55.7z M144.2,53.9v-0.6c0,0,0,0,0,0c0.1,0.1,0.1,0.3,0.2,0.4
		C144.3,53.8,144.3,53.8,144.2,53.9z M143.9,51.2c0.3,0,0.6-0.1,0.9-0.2C144.7,51.3,144.2,51.3,143.9,51.2z M145.2,50.6
		C145.2,50.7,145.3,50.7,145.2,50.6c-0.1,0.1-0.1,0.2-0.2,0.2c-0.4,0-0.7,0-1.1,0c0,0,0,0,0-0.1C144.4,50.7,144.8,50.7,145.2,50.6z
		 M144.5,51.4c-0.1,0.2-0.1,0.3-0.2,0.3c-0.1,0-0.1,0.1-0.2,0.1c-0.2,0-0.5-0.1-0.7-0.1v0C143.7,51.6,144.1,51.5,144.5,51.4z
		 M143.4,54.4C143.4,54.4,143.4,54.3,143.4,54.4c0-0.2,0.1-0.3,0.1-0.5c0,0.1,0.1,0.2,0.1,0.3c0-0.1,0.1-0.2,0.1-0.3
		s0.1-0.1,0.1-0.3c0.1,0.1,0.2,0.2,0.3,0.4C143.9,54.1,143.6,54.2,143.4,54.4z M143.5,58.7C143.4,58.7,143.4,58.7,143.5,58.7
		l-0.1-0.4h0.1C143.5,58.4,143.5,58.5,143.5,58.7z M143.7,52.3c-0.1,0.3-0.4,0.2-0.6,0.2C143.3,52.4,143.5,52.4,143.7,52.3z
		 M143.2,52.9c-0.1,0.3-0.3,0.3-0.5,0.1C142.9,53,143.1,53,143.2,52.9z M147.9,61.3c0.1,0.2,0.4,0.4,0.3,0.7
		C148.1,61.7,147.8,61.6,147.9,61.3z M148.8,63c-0.3-0.4-0.5-0.8-0.4-0.9C148.8,62.5,148.9,62.8,148.8,63z M148.8,62
		c0-0.2,0-0.3,0.1-0.5c0,0,0.1,0,0.1,0c0,0.2,0,0.3,0,0.5C148.8,62,148.8,62,148.8,62z M149.1,63.7c-0.2-0.3-0.3-0.5-0.2-0.7
		C149.2,63.3,149.3,63.4,149.1,63.7z M149.2,62.5v0.7C149,62.8,149,62.7,149.2,62.5z M150.2,60.5C150.3,60.5,150.3,60.5,150.2,60.5
		c0.2,0.1,0.2,0.2,0.3,0.4c0,0,0,0-0.1,0C150.4,60.8,150.3,60.7,150.2,60.5z M101.5,72.6c-0.3,0.1-0.6,0.1-0.9,0.2c0,0,0,0,0,0
		C100.9,72.6,101.2,72.7,101.5,72.6z M100.7,72c0.1-0.1,0.2-0.2,0.3-0.3c0,0,0,0,0,0c-0.1,0.1-0.1,0.2-0.2,0.3
		C100.9,72.1,100.8,72.1,100.7,72C100.7,72.1,100.7,72,100.7,72z M101.2,72.1c0.1-0.1,0.2-0.1,0.2-0.2
		C101.4,72.1,101.4,72.1,101.2,72.1z M98.4,69.7C98.4,69.7,98.4,69.7,98.4,69.7c0.4-0.3,0.8-0.6,1.3-0.9c0,0,0,0,0,0
		c-0.3,0.3-0.5,0.5-0.7,0.8c0,0,0,0,0,0c0.3-0.3,0.7-0.5,1-0.8c0,0,0,0,0,0c-0.2,0.2-0.3,0.4-0.5,0.6c0,0,0,0,0,0
		c0.2-0.2,0.5-0.4,0.7-0.6c0,0,0,0,0,0c-0.1,0.2-0.3,0.4-0.4,0.7c0,0,0,0,0,0c0.2-0.2,0.3-0.3,0.5-0.4c0,0,0,0,0,0
		c-0.1,0.2-0.3,0.4-0.4,0.7c0,0,0,0,0,0c0.2-0.2,0.4-0.3,0.6-0.5c0,0,0,0,0,0c-0.1,0.2-0.2,0.5-0.3,0.7c0,0,0,0,0,0
		c0.1-0.2,0.3-0.4,0.4-0.6c0,0,0,0,0,0c0,0.2-0.1,0.4-0.1,0.6c0,0,0,0,0,0c0.1-0.1,0.2-0.3,0.4-0.4c0,0.2,0,0.4,0,0.6c0,0,0,0,0,0
		c0.1-0.1,0.1-0.2,0.2-0.3c0,0,0,0,0,0c0,0.2,0,0.3,0,0.6c0.1-0.1,0.1-0.2,0.2-0.3c0,0,0,0,0,0c0,0.2,0,0.3-0.1,0.5
		C100.6,70.3,99.6,69.9,98.4,69.7z M99.6,73.1c0.2-0.1,0.3-0.3,0.5-0.4c0.1,0.2,0,0.3-0.2,0.3C99.8,73,99.7,73,99.6,73.1z
		 M99.6,75.7c-0.1-0.1,0-0.3,0.1-0.4C99.8,75.5,99.8,75.5,99.6,75.7z M99.6,72c0.1-0.1,0.2-0.2,0.3-0.3C99.9,72,99.8,72,99.6,72z
		 M99.6,71.6c-0.1,0.3-0.2,0.4-0.5,0.4C99.3,71.9,99.4,71.8,99.6,71.6z M98.8,72c0,0-0.1,0-0.2,0c-0.1,0-0.2,0-0.3,0c0,0,0,0,0,0
		c0.3-0.2,0.6-0.3,0.8-0.5c0,0,0,0,0,0C99.1,71.7,98.9,71.8,98.8,72z M100.8,68.4c0.2,0,0.5-0.1,0.7-0.1c0,0,0,0,0,0
		c-0.2,0.1-0.4,0.2-0.7,0.3c0,0,0,0,0,0c0.3,0,0.5,0,0.8,0c0,0,0,0,0,0.1c-0.1,0-0.2,0-0.3,0.1c-0.2,0.1-0.4,0.1-0.6-0.1
		c-0.1-0.1-0.2-0.2-0.3-0.3c0.3-0.1,0.5-0.2,0.8-0.4c0,0,0,0,0,0C101.1,68.1,101,68.2,100.8,68.4C100.8,68.4,100.8,68.4,100.8,68.4z
		 M101.3,69.1c-0.1,0-0.1-0.1-0.2-0.1c0,0,0,0,0-0.1c0.3,0,0.6,0.1,0.8,0.1c0,0,0,0,0,0C101.8,69.1,101.5,69.1,101.3,69.1z
		 M102,69.3c-0.2,0.1-0.5,0-0.6-0.1C101.6,69.3,101.8,69.3,102,69.3z M101.8,70.7C101.8,70.7,101.8,70.7,101.8,70.7
		c0,0.1,0,0.2,0,0.4c-0.1,0-0.1-0.1-0.2-0.1C101.7,70.8,101.8,70.7,101.8,70.7z M101.9,71.9c-0.1,0.3-0.1,0.3-0.3,0.2
		C101.7,72.1,101.8,72,101.9,71.9z M101.8,69.7c-0.1-0.1-0.1-0.1-0.2-0.2c0.3,0.1,0.5,0.1,0.7,0.2c0,0,0,0,0,0
		c-0.2,0-0.3,0.1-0.4,0.1C101.9,69.7,101.8,69.7,101.8,69.7z M102.1,70.8c0,0.1,0,0.1,0.1,0.2s0,0.1,0.1,0.2c0-0.1,0-0.1,0.1-0.2
		c0,0.1,0.1,0.2,0.1,0.3c0,0,0,0,0,0c-0.1-0.1-0.3-0.2-0.4-0.3C101.9,71,102,70.9,102.1,70.8z M102.3,73.8
		C102.3,73.8,102.3,73.8,102.3,73.8c0,0.1,0,0.2,0,0.3c0,0,0,0-0.1,0C102.3,73.9,102.3,73.8,102.3,73.8z M102.1,70
		c0.1,0,0.3,0.1,0.4,0.1C102.4,70.1,102.2,70.2,102.1,70z M102.7,70.5c-0.1,0.1-0.2,0.1-0.3-0.1C102.5,70.4,102.6,70.4,102.7,70.5z
		 M99.5,75.7c0.1,0.2-0.1,0.3-0.2,0.4C99.3,75.9,99.4,75.8,99.5,75.7z M99.2,76.2c0.1,0.1-0.1,0.3-0.2,0.6
		C98.9,76.6,98.9,76.4,99.2,76.2z M98.9,76.1c0-0.1,0-0.2,0-0.3c0,0,0,0,0.1,0C98.9,75.9,98.9,76,98.9,76.1
		C98.9,76.1,98.9,76.1,98.9,76.1z M98.8,76.8c0.1,0.1,0,0.3-0.1,0.4C98.6,77,98.7,76.9,98.8,76.8z M98.6,76.8c0-0.2,0-0.3,0-0.4
		C98.8,76.5,98.8,76.6,98.6,76.8z M98,75.2c-0.1,0.1-0.1,0.2-0.2,0.3c0,0,0,0-0.1,0C97.8,75.4,97.9,75.3,98,75.2
		C98,75.2,98,75.2,98,75.2z"/>
</g>
</svg>
