<?xml version="1.0" encoding="utf-8"?>
<!-- Generator: Adobe Illustrator 24.0.3, SVG Export Plug-In . SVG Version: 6.00 Build 0)  -->
<svg version="1.1" id="Layer_1" xmlns="http://www.w3.org/2000/svg" xmlns:xlink="http://www.w3.org/1999/xlink" x="0px" y="0px"
	 viewBox="0 0 252.28 144.57" style="enable-background:new 0 0 252.28 144.57;" xml:space="preserve">
<style type="text/css">
	.st0{fill:#387C3D;}
</style>
<g>
	<path class="st0" d="M71.94,96.74H69.8v5.66h-1.73v-5.66h-2.15v-1.61h6.03V96.74z"/>
	<path class="st0" d="M96.27,97.93h3.06v-2.8h1.73v7.26h-1.73v-2.86h-3.06v2.86h-1.73v-7.26h1.73V97.93z"/>
	<path class="st0" d="M127.35,95.14c1.8,0,2.75,0.89,2.75,2.32c0,1.15-0.73,1.96-2.03,2.17l2.09,2.77h-2.07l-1.92-2.72h-0.26v2.72
		h-1.73v-7.26H127.35z M125.92,96.71v1.52h1.41c0.62,0,1.01-0.24,1.01-0.76c0-0.51-0.39-0.75-1.01-0.75H125.92z"/>
	<path class="st0" d="M158.55,102.4h-5.56v-7.26h5.54v1.56h-3.81v1.26h3.59v1.56h-3.59v1.33h3.83V102.4z"/>
	<path class="st0" d="M187.11,102.4h-5.56v-7.26h5.54v1.56h-3.81v1.26h3.59v1.56h-3.59v1.33h3.83V102.4z"/>
	<path class="st0" d="M67.73,113.38v2.45H66v-7.26h3.11c1.8,0,2.74,0.97,2.74,2.42c0,1.43-0.95,2.39-2.73,2.39H67.73z M67.73,110.14
		v1.69h1.36c0.62,0,1-0.29,1-0.84c0-0.56-0.38-0.85-1-0.85H67.73z"/>
	<path class="st0" d="M101.62,115.83h-1.85l-0.55-1.53h-2.89l-0.55,1.53h-1.81l2.79-7.26h2.07L101.62,115.83z M96.9,112.74h1.76
		l-0.88-2.45L96.9,112.74z"/>
	<path class="st0" d="M129.87,115.83h-5.38v-7.26h1.73v5.65h3.65V115.83z"/>
	<path class="st0" d="M159.88,115.83h-1.73v-4.97l-1.46,4.29h-1.84l-1.46-4.27v4.96h-1.73v-7.26h2.45l1.66,4.61l1.64-4.61h2.46
		V115.83z"/>
	<path class="st0" d="M186.58,110.63c-0.52-0.31-1.23-0.61-2.08-0.61c-0.66,0-1.14,0.22-1.14,0.65c0,0.46,0.69,0.57,1.49,0.71
		l0.3,0.05c1.41,0.24,2.3,0.9,2.3,2.09c0,1.73-1.49,2.45-3.05,2.45c-1.21,0-2.39-0.32-3.2-0.92l0.87-1.41
		c0.55,0.38,1.32,0.76,2.34,0.76c0.65,0,1.15-0.22,1.15-0.67c0-0.44-0.49-0.56-1.44-0.71l-0.36-0.06c-1.49-0.23-2.3-0.91-2.28-2.22
		c0.03-1.41,1.23-2.3,2.93-2.3c0.98,0,1.83,0.16,2.93,0.77L186.58,110.63z"/>
	<path class="st0" d="M187.45,90.23c0-8.54-1.77-16.67-4.96-24.05c-9.26-21.97-31.02-37.42-56.32-37.42
		c-33.68,0-61.09,27.4-61.09,61.08v1.34h122.17h0.19v-0.18V90.23z M121.51,88.49c-0.17-7.05-0.34-14.11-0.51-21.16
		c0.03-0.01,0.06-0.02,0.08-0.02c0.27,0.48,0.7,0.88,0.66,1.53c0.03-0.06,0.06-0.11,0.09-0.18c0.2,0.21,0.26,0.44,0.23,0.7
		c0.02,0,0.04,0.01,0.05,0.01c0.07-0.2,0.14-0.41,0.2-0.61c0.01,0,0.03,0,0.04,0c0,0.33,0,0.65,0,0.98c0.02,0,0.04,0.01,0.05,0.01
		c0.08-0.19,0.16-0.38,0.25-0.62c0.14,0.22,0.05,0.4,0.05,0.58c-0.01,0.19-0.02,0.37,0.01,0.56c0.11-0.35,0.23-0.71,0.34-1.06
		c0.01,0,0.02,0.01,0.04,0.01c0,0.55,0,1.1,0,1.65c0.01,0,0.02,0.01,0.03,0.01c0.11-0.3,0.22-0.6,0.32-0.9c0.01,0,0.02,0,0.04,0
		c0,0.45,0,0.89,0,1.34c0.02,0,0.03,0.01,0.05,0.01c0.12-0.28,0.24-0.56,0.35-0.84c0.02,0,0.03,0,0.05,0.01
		c0.03,0.47,0.06,0.94,0.09,1.42c0.01,0,0.02,0.01,0.03,0.01c0.12-0.24,0.24-0.47,0.36-0.71c0.02,0,0.03,0,0.05,0.01
		c0.12,0.64,0.25,1.28,0.37,1.92c0.02,0,0.03,0,0.05,0c0.02-0.25,0.04-0.51,0.06-0.76c0.01,0,0.02,0,0.04,0
		c0.06,0.47,0.11,0.93,0.17,1.4c0.02,0,0.03,0,0.05,0c0.09-0.41,0.18-0.82,0.27-1.23c0.02,0,0.05,0,0.07,0c0,0.71,0,1.42,0,2.12
		c0.02,0,0.04,0,0.06,0c0.09-0.4,0.18-0.79,0.26-1.19c0.02,0,0.04,0,0.06,0c0,0.83,0,1.66,0,2.49c0.03,0,0.05,0.01,0.08,0.01
		c0.12-0.36,0.24-0.72,0.37-1.08c0.02,0,0.03,0,0.04,0.01c-0.07,0.69-0.15,1.37-0.22,2.06c0.02,0,0.03,0.01,0.05,0.01
		c0.14-0.35,0.29-0.7,0.43-1.05c0.02,0,0.04,0.01,0.05,0.01c-0.12,0.72-0.24,1.43-0.36,2.15c0.01,0.01,0.03,0.01,0.04,0.02
		c0.14-0.33,0.29-0.65,0.43-0.98c0.02,0,0.03,0.01,0.05,0.01c-0.13,0.7-0.26,1.39-0.39,2.09c0.01,0,0.02,0.01,0.03,0.01
		c0.19-0.36,0.38-0.73,0.57-1.09c0.02,0,0.03,0.01,0.05,0.01c-0.04,0.87-0.08,1.75-0.12,2.62c0.01,0,0.03,0.01,0.04,0.01
		c0.12-0.51,0.23-1.01,0.35-1.52c0.02,0,0.04,0,0.05,0.01c-0.06,0.8-0.13,1.61-0.19,2.41c0.02,0,0.03,0.01,0.05,0.01
		c0.14-0.38,0.29-0.76,0.43-1.14c0.02,0,0.03,0,0.05,0c0.06,0.77,0.13,1.55,0.19,2.32c0.01,0,0.03,0,0.04,0
		c0.01-0.11,0.03-0.22,0.03-0.32c0.01-1.3,0.05-2.6,0-3.89c-0.07-1.87-0.39-3.7-1.12-5.44c-0.02-0.05-0.04-0.12-0.03-0.16
		c0.11-0.3,0.23-0.6,0.38-0.89c0,0.48,0,0.97,0,1.45c0.01,0,0.02,0.01,0.02,0.01c0.09-0.25,0.17-0.5,0.26-0.75
		c0.02,0,0.03,0.01,0.05,0.01c-0.03,0.45-0.06,0.9-0.09,1.35c0.02,0,0.03,0.01,0.05,0.01c0.09-0.27,0.18-0.53,0.26-0.8
		c0.02,0,0.03,0,0.05,0.01c-0.04,0.54-0.09,1.09-0.13,1.63c0.01,0,0.03,0.01,0.04,0.01c0.19-0.37,0.38-0.75,0.58-1.12
		c0.02,0,0.04,0.01,0.05,0.01c-0.13,1.04-0.27,2.08-0.4,3.12c0.01,0,0.03,0.01,0.04,0.01c0.2-0.57,0.39-1.15,0.59-1.72
		c0.01,0,0.02,0,0.03,0.01c0,0.56,0,1.12,0,1.68c0.01,0,0.02,0.01,0.03,0.01c0.27-0.59,0.53-1.18,0.8-1.77
		c0.02,0,0.03,0.01,0.05,0.01c-0.09,0.79-0.19,1.59-0.28,2.38c0.01,0,0.03,0.01,0.04,0.01c0.19-0.48,0.38-0.96,0.57-1.44
		c0.02,0,0.03,0.01,0.05,0.01c-0.11,0.71-0.22,1.42-0.33,2.14c0.02,0,0.03,0.01,0.05,0.01c0.2-0.65,0.41-1.29,0.61-1.94
		c0.02,0,0.04,0,0.05,0.01c-0.05,0.49-0.09,0.98-0.14,1.46c0.01,0,0.03,0.01,0.04,0.01c0.15-0.34,0.29-0.68,0.44-1.02
		c0.02,0,0.03,0,0.05,0.01c-0.03,0.66-0.05,1.31-0.08,1.97c0.02,0,0.03,0.01,0.05,0.01c0.13-0.34,0.26-0.67,0.39-1.01
		c0.02,0,0.03,0.01,0.05,0.01c-0.06,0.48-0.12,0.96-0.17,1.44c0.01,0.01,0.03,0.01,0.04,0.02c0.19-0.4,0.39-0.79,0.61-1.23
		c0,0.62,0,1.2,0,1.77c0.01,0,0.01,0,0.02,0.01c0.1-0.37,0.18-0.76,0.31-1.12c0.18-0.49,0.12-0.94-0.04-1.43
		c-0.51-1.52-1.13-2.98-1.93-4.37c-0.29-0.5-0.49-1.03-0.72-1.56c0.01-0.01,0.03-0.01,0.04-0.02c0-0.03-0.01-0.07-0.01-0.1
		c0.6,0.89,1.2,1.79,1.8,2.68c0.01-0.01,0.03-0.02,0.04-0.02c-0.41-0.86-0.83-1.72-1.24-2.58c0.01-0.01,0.02-0.01,0.04-0.02
		c0.72,1.09,1.43,2.18,2.15,3.27c0.01-0.01,0.03-0.01,0.04-0.02c-0.24-0.76-0.49-1.51-0.73-2.27c0.01-0.01,0.02-0.01,0.03-0.02
		c0.44,0.74,0.88,1.47,1.32,2.21c0,0.19,0.01,0.39,0.01,0.58c0,0.13,0.02,0.26,0.03,0.39h0.05c0.02-0.24,0.04-0.48,0.06-0.73
		c0.09,0.16,0.19,0.31,0.28,0.47c0.01-0.01,0.03-0.01,0.04-0.02c-0.1-0.28-0.2-0.56-0.29-0.84c0.01-0.13,0.02-0.27,0.03-0.4
		c0.34,0.64,0.68,1.28,1.03,1.93c0.01-0.01,0.03-0.01,0.04-0.02c-0.22-0.68-0.43-1.36-0.65-2.04c0.02-0.01,0.03-0.02,0.05-0.02
		c0.57,0.79,1.14,1.58,1.71,2.38c0.01-0.01,0.03-0.02,0.04-0.02c-0.2-0.51-0.41-1.02-0.61-1.52c0.01-0.01,0.03-0.02,0.04-0.03
		c0.83,0.61,1.65,1.22,2.48,1.83c0.01-0.01,0.02-0.01,0.03-0.02c-0.02-0.04-0.04-0.08-0.07-0.11c-0.98-1.15-2-2.26-3.07-3.32
		c0,0,0.01,0,0.01,0c-0.04-0.86-0.08-1.72-0.12-2.58c0-0.04,0.01-0.08,0.01-0.12c0.02,0,0.04,0,0.06,0
		c0.09,0.51,0.18,1.01,0.26,1.52c0.01,0,0.03,0,0.04,0c0.05-0.34,0.1-0.68,0.14-1.02c0.04,0.08,0.08,0.16,0.12,0.23
		c0.07,0.42,0.15,0.83,0.22,1.25c0.01,0,0.03,0,0.04,0c0.05-0.47,0.1-0.93,0.15-1.4c0.02,0,0.04,0,0.06,0
		c0.14,0.89,0.28,1.77,0.43,2.66c0.02,0,0.04,0,0.05,0c0.02-0.25,0.06-0.49,0.07-0.74c0.06-1.28-0.23-2.37-0.8-3.31
		c-0.13-0.75-0.25-1.49-0.37-2.23c0.01-0.01,0.04-0.01,0.06-0.02c0.17,0.42,0.35,0.83,0.51,1.24c0.01-0.01,0.04-0.01,0.05-0.01
		c-0.08-0.79-0.17-1.56-0.25-2.35c0,0,0,0,0.01,0c0-0.01-0.01-0.02-0.01-0.03c0-0.02,0-0.03-0.01-0.05c0.02,0,0.04-0.01,0.06-0.01
		c0.14,0.43,0.29,0.85,0.43,1.27c0.03,0,0.06,0,0.09-0.01v-1.6c0.06,0.07,0.12,0.14,0.18,0.21c0.01-0.01,0.02-0.02,0.03-0.02
		c-0.07-0.11-0.14-0.23-0.21-0.34V65c0.08,0.06,0.15,0.12,0.23,0.18c0.05,0.24,0.11,0.48,0.16,0.72h0.07v-0.54
		c0.02,0.02,0.05,0.04,0.07,0.05c0.01-0.01,0.02-0.02,0.03-0.03c-0.03-0.05-0.07-0.11-0.1-0.16v-0.45c0.37,0.31,0.75,0.62,1.12,0.93
		c0.01-0.01,0.02-0.01,0.04-0.02c-0.16-0.32-0.33-0.65-0.49-0.97c0.01-0.01,0.02-0.02,0.03-0.03c0.44,0.19,0.87,0.39,1.31,0.58
		c0.01-0.02,0.02-0.03,0.03-0.05c-0.25-0.19-0.49-0.38-0.78-0.6c0.62,0,1.19,0,1.76,0c0-0.01,0-0.02,0.01-0.04
		c-0.33-0.1-0.65-0.21-0.99-0.3c-0.39-0.1-0.78-0.21-1.17-0.31c0.14-0.72,0.28-1.45,0.42-2.17c0.01,0,0.04-0.01,0.05-0.01
		c0.14,0.28,0.28,0.56,0.43,0.84c0.01-0.01,0.02-0.01,0.04-0.02c0.04-0.56,0.07-1.12,0.11-1.67c0.02,0,0.04,0,0.06-0.01
		c0.14,0.33,0.28,0.66,0.42,0.99c0.02,0,0.04-0.01,0.06-0.01v-1.59c0.01,0,0.03,0,0.04-0.01c0.12,0.36,0.26,0.71,0.38,1.06
		c0.01,0,0.03-0.01,0.04-0.01v-1.95c0.01-0.01,0.03-0.01,0.04-0.01c0.14,0.42,0.27,0.84,0.4,1.26c0.04-0.23,0.02-0.45,0.01-0.67
		c-0.01-0.21-0.1-0.43,0.06-0.68c0.11,0.28,0.21,0.51,0.3,0.73c0.02,0,0.04-0.01,0.07-0.01v-1.16h0.04
		c0.08,0.23,0.16,0.48,0.24,0.72c0.02-0.01,0.04-0.01,0.06-0.01c-0.03-0.32,0.04-0.59,0.27-0.83c0.04,0.08,0.07,0.15,0.11,0.21
		c-0.05-0.76,0.46-1.25,0.79-1.81c0.03,0.01,0.07,0.02,0.1,0.03c-0.2,8.45-0.41,22.05-0.61,31.32H121.51z M104.12,88.49
		c-0.04-1.49-0.08-2.98-0.11-4.47c-0.07-3.04-0.14-6.08-0.23-9.12c-0.01-0.4,0.23-0.66,0.36-0.98c0.01,0,0.03,0.01,0.04,0.01
		c-0.06,0.34-0.13,0.68-0.19,1.02c0.01,0,0.02,0.01,0.04,0.01c0.16-0.25,0.33-0.51,0.49-0.76c0.01,0.01,0.02,0.01,0.03,0.02
		c-0.07,0.33-0.14,0.66-0.21,0.99c0.01,0,0.02,0.01,0.03,0.01c0.09-0.2,0.19-0.4,0.28-0.59c0.01,0,0.02,0,0.03,0.01
		c-0.03,0.36-0.06,0.72-0.09,1.09c0.01,0,0.03,0,0.04,0.01c0.1-0.21,0.19-0.42,0.29-0.63c0.01,0,0.02,0.01,0.03,0.01
		c0,0.36,0,0.72,0,1.08c0.01,0,0.02,0,0.03,0c0.14-0.27,0.28-0.54,0.42-0.8c0.01,0,0.02,0.01,0.02,0.01c0,0.3,0,0.61,0,0.91
		c0.01,0,0.01,0,0.02,0c0.08-0.22,0.15-0.44,0.23-0.65c0.01,0,0.03,0.01,0.04,0.01c0.01,0.41,0.03,0.83,0.04,1.24
		c0.01,0,0.03,0,0.04,0c0.07-0.24,0.14-0.48,0.21-0.72c0.02,0,0.04,0,0.06,0c0,0.53,0,1.07,0,1.6c0.01,0,0.03,0,0.04,0
		c0.1-0.37,0.21-0.74,0.31-1.11c0.01,0,0.02,0.01,0.03,0.01c-0.04,0.53-0.08,1.07-0.13,1.6c0.01,0,0.03,0,0.04,0
		c0.11-0.33,0.22-0.66,0.33-0.99c0.01,0,0.03,0.01,0.04,0.01c-0.03,0.47-0.05,0.95-0.08,1.42c0.01,0,0.02,0.01,0.03,0.01
		c0.14-0.39,0.27-0.78,0.41-1.16c0.01,0,0.03,0.01,0.04,0.01c-0.02,0.41-0.04,0.82-0.06,1.23c0.01,0,0.02,0,0.03,0
		c0.11-0.29,0.23-0.58,0.34-0.87c0.01,0,0.03,0.01,0.04,0.01c-0.03,0.5-0.05,1-0.08,1.5c0.01,0,0.02,0,0.03,0.01
		c0.17-0.33,0.33-0.65,0.5-0.98c0.01,0.01,0.02,0.01,0.04,0.02c-0.14,0.56-0.28,1.11-0.41,1.67c0.01,0,0.02,0.01,0.03,0.01
		c0.22-0.39,0.45-0.78,0.67-1.17c0.01,0,0.02,0.01,0.03,0.01c-0.21,0.71-0.43,1.42-0.64,2.12c0.01,0,0.02,0.01,0.03,0.01
		c0.36-0.55,0.72-1.1,1.07-1.65c0.01,0.01,0.02,0.01,0.03,0.02c-0.22,0.65-0.45,1.3-0.67,1.94c0.01,0.01,0.02,0.01,0.03,0.02
		c0.35-0.47,0.69-0.95,1.04-1.42c0.01,0.01,0.02,0.01,0.03,0.02c-0.18,0.65-0.37,1.3-0.55,1.95c0.01,0,0.02,0.01,0.03,0.01
		c0.24-0.43,0.47-0.86,0.71-1.29c0.01,0,0.03,0.01,0.04,0.01c-0.16,0.79-0.31,1.59-0.47,2.38c0.01,0,0.02,0.01,0.03,0.01
		c0.25-0.57,0.5-1.15,0.75-1.72c0.01,0,0.02,0.01,0.02,0.01c0,0.37,0,0.74,0,1.1c-0.09,0.29-0.17,0.58-0.26,0.87
		c0.02,0.01,0.03,0.01,0.05,0.02c0.07-0.16,0.14-0.32,0.21-0.48c0,0.27,0,0.54,0,0.81c0.01,0,0.01,0,0.02,0
		c0.08-0.46,0.15-0.92,0.23-1.38c0.04-0.1,0.08-0.19,0.13-0.29c0.02,0.52,0.05,1.04,0.07,1.57c0.01,0,0.03,0,0.04,0
		c0.05-0.38,0.11-0.76,0.16-1.13c0.01,0,0.02,0,0.04-0.01c0.38,0.85,0.75,1.71,1.13,2.56c0.01,0,0.02-0.01,0.04-0.01
		c-0.23-0.79-0.47-1.58-0.7-2.37c0.01-0.01,0.02-0.01,0.03-0.02c0.17,0.19,0.34,0.39,0.51,0.58c0.01-0.01,0.02-0.02,0.03-0.02
		c-0.37-0.55-0.74-1.11-1.11-1.66c0.01-0.02,0.01-0.03,0.02-0.05c0.34,0.25,0.68,0.5,1.02,0.76c0.01-0.01,0.01-0.02,0.02-0.02
		c-0.29-0.38-0.57-0.76-0.86-1.13c0.05-0.12,0.11-0.24,0.16-0.36c0.18,0.13,0.37,0.25,0.55,0.38c0.02,0.12,0.03,0.25,0.05,0.37
		c0.02,0,0.04,0,0.05,0c0-0.1,0.01-0.19,0.01-0.29c0.01,0.01,0.02,0.01,0.03,0.02c0.01-0.01,0.02-0.02,0.03-0.04
		c-0.02-0.02-0.04-0.04-0.05-0.05c0.03-0.66,0.06-1.31,0.09-1.97c0.02,0,0.04-0.01,0.06-0.01c0.14,0.82,0.27,1.65,0.41,2.47
		c0.01,0,0.02,0,0.02,0c0-1.04,0-2.08,0-3.12c0.01,0,0.02-0.01,0.03-0.01c0.34,0.77,0.67,1.54,1.01,2.31c0.02,0,0.03-0.01,0.05-0.01
		c-0.21-1.06-0.42-2.13-0.63-3.19c0.02-0.01,0.03-0.01,0.05-0.02c0.32,0.58,0.64,1.15,0.96,1.73c0.01,0,0.02-0.01,0.04-0.01
		c-0.25-0.87-0.49-1.74-0.74-2.61c0.02-0.01,0.03-0.02,0.05-0.03c0.02,0.03,0.04,0.06,0.06,0.09c0.1,0.35,0.2,0.7,0.31,1.05
		c0.01,0,0.02,0,0.03-0.01c0-0.19,0-0.39,0-0.58c0.33,0.45,0.66,0.9,0.99,1.36c0.01-0.01,0.03-0.02,0.04-0.02
		c-0.19-0.56-0.39-1.11-0.58-1.67c-0.01-0.15-0.02-0.3-0.03-0.45c0.01,0,0.03,0,0.04,0c0.08,0.28,0.16,0.57,0.25,0.85
		c0.01,0,0.02,0,0.03-0.01c-0.02-0.19-0.04-0.38-0.06-0.57c0.15,0.23,0.3,0.46,0.45,0.69c0.06,0.13,0.11,0.26,0.17,0.39
		c0.01,0,0.02-0.01,0.03-0.01c-0.01-0.04-0.02-0.07-0.03-0.11c0.1,0.16,0.21,0.32,0.31,0.47c0.01-0.01,0.03-0.01,0.04-0.02
		c-0.08-0.26-0.16-0.52-0.24-0.78c0.08,0.14,0.16,0.29,0.24,0.43c0.01,0,0.02-0.01,0.04-0.01c-0.1-0.31-0.2-0.62-0.31-0.96
		c0.27,0.14,0.5,0.26,0.74,0.38c-0.01-0.06-0.04-0.11-0.07-0.15c-0.1-0.11-0.2-0.22-0.3-0.34c-0.18-0.71-0.35-1.41-0.53-2.12
		c0.02-0.01,0.03-0.01,0.05-0.02c0.22,0.44,0.44,0.87,0.67,1.31c0.02,0,0.03-0.01,0.05-0.01c-0.04-0.67-0.07-1.34-0.11-2.01
		c0.02,0,0.04-0.01,0.06-0.01c0.15,0.39,0.3,0.78,0.45,1.16c0.01,0,0.03,0,0.04,0c-0.03-0.55-0.06-1.1-0.08-1.65
		c0.02,0,0.03-0.01,0.05-0.01c0.18,0.52,0.36,1.04,0.55,1.56c0.01,0,0.03-0.01,0.04-0.01c-0.04-0.63-0.07-1.27-0.11-1.9
		c0.02,0,0.04-0.01,0.05-0.01c0.15,0.44,0.29,0.88,0.44,1.32c0.02,0,0.03,0,0.05-0.01c-0.06-0.72-0.11-1.43-0.17-2.15
		c0.01,0,0.03-0.01,0.04-0.01c0.14,0.5,0.28,1,0.41,1.49c0.02,0,0.04,0,0.06,0c0-0.71,0-1.43,0-2.14c0.02,0,0.05,0,0.07-0.01
		c0.09,0.32,0.19,0.64,0.28,0.96c0.02,0,0.04,0,0.05,0c0.02-0.55,0.04-1.11,0.06-1.66c0.02,0,0.03-0.01,0.05-0.01
		c0.1,0.29,0.21,0.58,0.31,0.88c0.01,0,0.02,0,0.03,0c0-0.41,0-0.82,0-1.22c0.01,0,0.02-0.01,0.03-0.01
		c0.19,0.36,0.37,0.72,0.56,1.08c0.01,0,0.02,0,0.04-0.01c0-0.48,0-0.97,0-1.45c0.02,0,0.03-0.01,0.05-0.01
		c0.13,0.28,0.26,0.56,0.38,0.84c0.02,0,0.03-0.01,0.05-0.01c-0.04-0.49-0.08-0.97-0.13-1.46c0.01,0,0.03-0.01,0.04-0.01
		c0.12,0.27,0.25,0.53,0.37,0.8c0.02,0,0.03-0.01,0.05-0.01c-0.09-0.44-0.18-0.88-0.28-1.32c0.01-0.01,0.03-0.01,0.04-0.02
		c0.22,0.34,0.44,0.68,0.66,1.02c0.02,0,0.03-0.01,0.05-0.01c-0.09-0.45-0.17-0.91-0.26-1.36c0.02,0,0.04-0.01,0.06-0.01
		c0.17,0.43,0.5,0.77,0.48,1.31c-0.12,4.08-0.21,8.15-0.31,12.23c-0.05,2.17-0.11,4.33-0.16,6.5H104.12z M103.77,74.31
		c0-0.49,0-0.98,0-1.44C103.92,73.32,104.02,73.81,103.77,74.31z M109.15,71.31c0.02-0.07,0.04-0.14,0.06-0.21
		c0.06,0.04,0.12,0.08,0.18,0.11c0,0.52,0,1.04,0,1.56c-0.21-0.06-0.41-0.13-0.62-0.18c0.12-0.4,0.23-0.79,0.35-1.19
		c0.08,0.04,0.16,0.08,0.24,0.13c0.01-0.01,0.01-0.02,0.02-0.03C109.3,71.44,109.22,71.37,109.15,71.31z M109.83,71.33
		c0.02-0.09,0.05-0.19,0.07-0.28c0.04,0.03,0.07,0.06,0.11,0.08c0.01-0.01,0.02-0.02,0.03-0.02c-0.03-0.07-0.07-0.13-0.1-0.2
		c0.03-0.11,0.05-0.21,0.08-0.32c0.05,0.06,0.1,0.11,0.15,0.17c0,0.44,0,0.88,0,1.32c0.02,0,0.05,0,0.07,0.01
		c0.11-0.38,0.22-0.76,0.33-1.14c0.06,0.11,0.12,0.22,0.18,0.34c0.01,0,0.02-0.01,0.02-0.01c-0.04,0.42-0.08,0.85-0.12,1.27
		c0.01,0,0.03,0.01,0.04,0.01c0.16-0.48,0.32-0.96,0.48-1.44c0,0,0.01,0,0.01,0c0-0.01,0-0.01,0-0.02c0.07-0.2,0.14-0.4,0.2-0.61
		c0.06,0.11,0.11,0.22,0.17,0.33c0.01,0,0.02-0.01,0.03-0.01c-0.05-0.15-0.1-0.31-0.15-0.46c0.02-0.06,0.04-0.12,0.06-0.19
		c0.04,0.05,0.08,0.1,0.12,0.15c0,0.54,0,1.07,0,1.61c0.01,0,0.02,0,0.03,0.01c0.12-0.38,0.24-0.77,0.35-1.15
		c0.06,0.08,0.13,0.16,0.19,0.23c0.01-0.01,0.02-0.01,0.03-0.02c-0.06-0.11-0.12-0.23-0.18-0.34c0.03-0.11,0.07-0.22,0.1-0.33
		c0.06,0.04,0.12,0.07,0.17,0.11c0,0.52,0,1.05,0,1.57c0.01,0,0.03,0.01,0.04,0.01c0.15-0.42,0.3-0.84,0.45-1.27
		c0.01,0,0.01,0.01,0.02,0.01c0.01-0.01,0.02-0.02,0.03-0.03c-0.01-0.01-0.02-0.02-0.02-0.04c0.06-0.17,0.12-0.34,0.18-0.51
		c0.08,0.07,0.17,0.13,0.25,0.2c0,0.24,0,0.49,0,0.73c0.02,0,0.05,0,0.07,0c0.16-0.36,0.31-0.73,0.47-1.09
		c0.08,0.02,0.16,0.05,0.24,0.07c-0.02-0.04-0.05-0.07-0.08-0.08c-0.04-0.02-0.08-0.04-0.12-0.06c0.21-0.48,0.41-0.96,0.62-1.44
		c0.02,0.01,0.03,0.01,0.05,0.02c-0.1,0.63-0.21,1.27-0.31,1.9c0.01,0,0.03,0.01,0.04,0.01c0.32-0.67,0.64-1.35,0.96-2.02
		c0.02,0,0.03,0.01,0.05,0.01c-0.05,0.59-0.11,1.18-0.16,1.76c0.02,0,0.03,0.01,0.05,0.01c0.27-0.63,0.55-1.27,0.82-1.9
		c0.02,0,0.04,0.01,0.05,0.01c0,0.43,0,0.85,0,1.28c0.02,0,0.03,0.01,0.05,0.01c0.25-0.53,0.5-1.05,0.74-1.58
		c0.02,0,0.03,0.01,0.05,0.01c-0.1,0.44-0.19,0.88-0.29,1.31c0.12-0.26,0.32-0.28,0.55-0.21c0.04,0.16-0.02,0.24-0.17,0.28
		c-0.26,0.08-0.51,0.17-0.76,0.25c0,0.02,0.01,0.03,0.01,0.05c0.34-0.06,0.68-0.13,1.03-0.19c0,0.02,0.01,0.03,0.01,0.05
		c-0.61,0.2-1.23,0.4-1.84,0.61c0,0.01,0.01,0.02,0.01,0.03c0.47-0.07,0.93-0.13,1.4-0.2c0.01,0.02,0.01,0.03,0.02,0.05
		c-0.77,0.36-1.54,0.73-2.32,1.09c0,0.01,0.01,0.02,0.01,0.04c0.56-0.13,1.11-0.26,1.67-0.39c0.01,0.02,0.01,0.03,0.02,0.05
		c-1.16,0.56-2.33,1.12-3.49,1.69c0.01,0.01,0.01,0.03,0.02,0.04c0.99-0.36,1.98-0.73,2.97-1.09c0.01,0.02,0.02,0.03,0.02,0.05
		c-1.2,0.82-2.39,1.63-3.59,2.45c0.01,0.01,0.02,0.03,0.02,0.04c1.04-0.54,2.08-1.08,3.12-1.61c0.01,0.01,0.02,0.03,0.03,0.04
		c-0.88,0.66-1.76,1.33-2.64,1.99c-0.53-0.4-1.09-0.76-1.69-1.07c-0.49-0.25-1-0.43-1.52-0.58c0.11-0.45,0.22-0.89,0.33-1.34
		c0.07,0.05,0.15,0.09,0.22,0.14c0.01-0.01,0.02-0.02,0.02-0.03C109.97,71.48,109.9,71.41,109.83,71.33z M110.13,70.33
		c0.01,0,0.02,0,0.03,0c0,0.03,0,0.05,0,0.08C110.15,70.38,110.14,70.35,110.13,70.33z M110.65,70.64c0.03-0.1,0.06-0.2,0.09-0.31
		c0.03,0.06,0.07,0.13,0.1,0.19c-0.02,0.23-0.04,0.46-0.06,0.69C110.74,71.02,110.7,70.83,110.65,70.64z M112.32,69.87
		c0.01,0,0.01,0,0.02,0c0,0.01,0,0.02,0,0.02C112.33,69.89,112.32,69.88,112.32,69.87z M113.27,69.83c0,0.14,0,0.29,0,0.43
		c-0.07-0.08-0.14-0.15-0.21-0.23c0.03-0.08,0.06-0.16,0.09-0.24C113.19,69.8,113.23,69.82,113.27,69.83z M113.2,69.64
		C113.21,69.64,113.21,69.63,113.2,69.64c0.02-0.01,0.05-0.01,0.07-0.01c0,0.01,0,0.02,0,0.04
		C113.25,69.66,113.23,69.65,113.2,69.64z M115.77,62.13c0.01,0.02,0.02,0.04,0.02,0.06c-0.31,0.22-0.61,0.44-0.92,0.65
		c-0.03,0.02-0.1,0.02-0.14,0c-0.2-0.08-0.4-0.17-0.6-0.26c0-0.02,0-0.04,0-0.06C114.67,62.39,115.22,62.26,115.77,62.13z
		 M114.06,62.47c-0.04,0.02-0.1,0.04-0.14,0.02c-0.2-0.07-0.4-0.15-0.6-0.22c0.63-0.17,1.27-0.34,1.9-0.5
		c0,0.02,0.01,0.04,0.01,0.06C114.84,62.04,114.45,62.26,114.06,62.47z M116.18,62.57c-0.01,0.04-0.01,0.06-0.02,0.06
		c-0.17,0.13-0.34,0.27-0.51,0.4c-0.23,0.18-0.36,0.16-0.57-0.08C115.44,62.83,115.8,62.7,116.18,62.57z M116.67,63.06
		c-0.02,0.04-0.02,0.06-0.03,0.06c-0.16,0.09-0.31,0.19-0.47,0.28c-0.22,0.12-0.3,0.1-0.49-0.11
		C116.01,63.21,116.33,63.13,116.67,63.06z M116.93,63.32c0.01,0.02,0.02,0.03,0.02,0.05c-0.11,0.08-0.22,0.16-0.33,0.24
		c-0.25,0.18-0.26,0.18-0.53-0.07C116.38,63.46,116.65,63.39,116.93,63.32z M117.27,63.7c0.01,0.01,0.01,0.03,0.02,0.04
		c-0.11,0.07-0.23,0.14-0.34,0.21c-0.15,0.09-0.2,0.07-0.31-0.11C116.85,63.8,117.06,63.75,117.27,63.7z M117.58,64.08
		c0.05,0,0.13,0.03,0.16,0.07c0.41,0.46,0.81,0.92,1.21,1.38c-0.01,0.01-0.02,0.02-0.03,0.03c-0.62-0.46-1.25-0.93-1.92-1.43
		C117.24,64.11,117.41,64.08,117.58,64.08z M118.62,66.4c-0.15-0.01-0.3-0.03-0.44-0.05c0-0.02,0-0.03,0-0.05
		c0.22-0.1,0.42,0.03,0.63,0.08C118.74,66.4,118.68,66.41,118.62,66.4z M118.66,68.2c-0.13,0.04-0.24,0.07-0.38,0.11
		C118.36,68.08,118.41,68.07,118.66,68.2z M117.48,68.85c0.09-0.22,0.26-0.26,0.54-0.14C117.85,68.76,117.68,68.8,117.48,68.85z
		 M117.77,69.11c-0.19,0.06-0.34,0.12-0.52,0.18C117.33,69.07,117.46,69.03,117.77,69.11z M117.67,68.42
		c0.06-0.13,0.11-0.24,0.18-0.34c0.02-0.04,0.1-0.08,0.13-0.07c0.04,0.02,0.08,0.09,0.08,0.14
		C118.06,68.38,117.96,68.46,117.67,68.42z M117.66,66.04c-0.14,0.09-0.2,0.3-0.42,0.27c-0.01-0.02-0.02-0.03-0.03-0.05
		c0.14-0.09,0.28-0.18,0.42-0.27C117.65,66.01,117.65,66.02,117.66,66.04z M117.27,67.96c0.02,0.01,0.03,0.01,0.05,0.02
		c-0.06,0.22,0.01,0.47-0.14,0.62c0,0.12,0.03,0.24-0.01,0.27c-0.1,0.08-0.23,0.11-0.35,0.17c-0.01-0.02-0.03-0.04-0.04-0.06
		C116.95,68.63,117.11,68.3,117.27,67.96z M114.02,75.27c0.22,0.38,0.43,0.75,0.65,1.13c-0.18-0.21-0.36-0.42-0.54-0.62
		c-0.05-0.16-0.1-0.33-0.15-0.49C113.99,75.28,114.01,75.27,114.02,75.27z M111.69,76.25c0-0.06,0-0.13,0-0.19
		c0.05-0.03,0.11-0.07,0.16-0.1c0.01,0.03,0.02,0.07,0.03,0.1C111.81,76.12,111.75,76.19,111.69,76.25z M111.82,76.92
		c-0.04,0.06-0.09,0.11-0.13,0.17c0-0.05,0-0.1,0-0.15c0.03-0.02,0.06-0.04,0.09-0.06C111.79,76.9,111.8,76.91,111.82,76.92z
		 M111.69,75.72c0-0.07,0-0.14,0-0.21c0.01,0,0.02,0,0.03,0c0.01,0.05,0.03,0.1,0.04,0.15C111.74,75.68,111.71,75.7,111.69,75.72z
		 M111.26,75.63c0.03,0.13,0.06,0.25,0.1,0.38c-0.08,0.07-0.16,0.14-0.24,0.2c0-0.17,0-0.34,0-0.5
		C111.16,75.69,111.21,75.66,111.26,75.63z M111.12,75.61c0-0.1,0-0.19,0-0.29c0.02,0,0.04,0,0.06,0c0.02,0.07,0.03,0.14,0.05,0.21
		C111.19,75.55,111.15,75.58,111.12,75.61z M110.98,76.34c-0.09,0.08-0.18,0.16-0.27,0.23c-0.05-0.5-0.09-1-0.14-1.5
		c0.01,0,0.02,0,0.04-0.01C110.73,75.49,110.85,75.91,110.98,76.34z M109.46,76.55c0.01,0,0.02,0,0.03-0.01c0-0.52,0-1.04,0-1.57
		c0.01,0,0.02,0,0.03-0.01c0.16,0.51,0.31,1.02,0.47,1.52c0.01,0,0.01,0,0.02-0.01c0-0.51,0-1.01,0-1.52c0.01,0,0.01,0,0.02,0
		c0.19,0.56,0.38,1.12,0.57,1.69c-0.07,0.06-0.14,0.12-0.22,0.19c0.01,0.01,0.02,0.02,0.02,0.03c0.07-0.05,0.15-0.09,0.22-0.14
		c0.03,0.08,0.05,0.16,0.08,0.23c0.01,0,0.02-0.01,0.03-0.01c-0.01-0.09-0.02-0.19-0.03-0.28c0.1-0.06,0.2-0.13,0.3-0.19
		c0.01,0.04,0.03,0.09,0.04,0.14c0.02,0,0.04,0,0.06,0c0-0.06,0-0.13,0-0.19c0.1-0.06,0.2-0.12,0.29-0.19
		c0.02,0.08,0.04,0.15,0.06,0.23c-0.58,0.59-1.17,1.17-1.75,1.76c0.01,0.02,0.03,0.03,0.04,0.05c0.62-0.43,1.23-0.85,1.85-1.27
		c0.01,0.05,0.03,0.1,0.04,0.15c-0.49,0.64-0.98,1.28-1.46,1.93c-0.97-0.73-1.93-1.46-2.9-2.19c0.01-0.01,0.01-0.02,0.02-0.03
		c0.78,0.4,1.55,0.8,2.33,1.2c0.01-0.01,0.01-0.02,0.02-0.03c-0.89-0.61-1.79-1.22-2.68-1.83c0.01-0.01,0.01-0.02,0.02-0.03
		c0.74,0.27,1.48,0.54,2.22,0.82c0-0.01,0.01-0.02,0.01-0.03c-0.87-0.42-1.74-0.84-2.6-1.26c0-0.01,0.01-0.02,0.01-0.04
		c0.41,0.1,0.83,0.19,1.24,0.29c0-0.01,0.01-0.02,0.01-0.03c-0.58-0.27-1.15-0.54-1.73-0.82c0.01-0.01,0.01-0.03,0.02-0.04
		c0.35,0.05,0.7,0.1,1.05,0.15c0-0.01,0-0.02,0.01-0.02c-0.46-0.15-0.92-0.3-1.37-0.45c0-0.01,0.01-0.02,0.01-0.03
		c0.26,0.05,0.51,0.09,0.77,0.14c0-0.01,0.01-0.02,0.01-0.04c-0.19-0.06-0.38-0.13-0.57-0.19c-0.11-0.03-0.16-0.09-0.13-0.21
		c0.18-0.04,0.33-0.04,0.41,0.16c-0.07-0.33-0.14-0.65-0.21-0.98c0.01,0,0.02-0.01,0.04-0.01c0.19,0.39,0.37,0.79,0.56,1.18
		c0.01,0,0.03,0,0.04-0.01c0-0.32,0-0.64,0-0.96c0.01,0,0.03,0,0.04-0.01c0.2,0.47,0.41,0.94,0.61,1.42c0.01,0,0.03,0,0.04-0.01
		c-0.04-0.44-0.08-0.88-0.12-1.32c0.01,0,0.02-0.01,0.04-0.01c0.24,0.5,0.48,1,0.71,1.51c0.01,0,0.02-0.01,0.03-0.01
		c-0.08-0.47-0.15-0.95-0.23-1.42c0.01,0,0.02-0.01,0.04-0.01c0.28,0.65,0.55,1.29,0.83,1.94c0.02,0,0.03,0,0.05,0
		c0-0.36,0-0.72,0-1.08c0.02,0,0.03,0,0.05,0C109.05,75.38,109.26,75.97,109.46,76.55z M110.29,80.05
		c-0.14-0.14-0.28-0.29-0.43-0.43c0.02-0.02,0.05-0.03,0.07-0.05c0.16,0.1,0.32,0.2,0.48,0.3
		C110.37,79.93,110.33,79.99,110.29,80.05z M110.36,80.52c-0.02,0.08-0.05,0.17-0.07,0.25c-0.06-0.08-0.12-0.16-0.18-0.23
		c0.04-0.04,0.07-0.08,0.11-0.12C110.26,80.45,110.31,80.49,110.36,80.52z M110.09,80.34c-0.02,0.03-0.04,0.06-0.07,0.1
		c-0.05-0.06-0.1-0.13-0.15-0.19c0.01-0.01,0.02-0.02,0.03-0.03C109.97,80.25,110.03,80.29,110.09,80.34z M109.24,78.71
		c0.01-0.01,0.01-0.02,0.02-0.03c0.28,0.16,0.57,0.33,0.85,0.49c-0.04,0.06-0.09,0.12-0.13,0.18
		C109.73,79.13,109.49,78.92,109.24,78.71z M109.85,79.51c-0.01,0.02-0.03,0.04-0.04,0.05c-0.05-0.05-0.1-0.1-0.15-0.16
		c0-0.01,0.01-0.01,0.01-0.02C109.73,79.43,109.79,79.47,109.85,79.51z M110.09,79.44c0.07-0.05,0.15-0.11,0.22-0.16
		c0.09,0.05,0.19,0.11,0.28,0.16c0.01-0.01,0.01-0.02,0.02-0.03c-0.08-0.06-0.16-0.12-0.24-0.18c0.27-0.2,0.54-0.4,0.8-0.6
		c0.01,0.01,0.02,0.02,0.03,0.03c-0.25,0.37-0.49,0.73-0.74,1.1C110.35,79.66,110.22,79.55,110.09,79.44z M111.06,79.99
		c0.02,0,0.03,0.01,0.05,0.01c0.05,0.34,0.09,0.68,0.14,1.02c-0.15-0.15-0.3-0.3-0.45-0.45C110.89,80.38,110.98,80.19,111.06,79.99z
		 M105.66,74.22c-0.15-0.04-0.28-0.07-0.4-0.1C105.46,74.02,105.6,74.05,105.66,74.22z M105.23,73.69c0-0.04,0.03-0.08,0.06-0.1
		c0.02-0.01,0.08,0.02,0.09,0.05c0.05,0.07,0.08,0.16,0.13,0.25C105.3,73.92,105.22,73.87,105.23,73.69z M105.82,74.55
		c-0.14-0.05-0.25-0.09-0.39-0.14C105.67,74.35,105.77,74.38,105.82,74.55z M105.78,73.57c0.01-0.01,0.03-0.01,0.04-0.02
		c0.12,0.25,0.24,0.5,0.36,0.76c-0.01,0.02-0.02,0.03-0.03,0.05c-0.09-0.04-0.19-0.07-0.26-0.12c-0.03-0.02,0-0.12,0-0.2
		C105.77,73.92,105.82,73.73,105.78,73.57z M106.49,72.11c-0.01,0.08-0.02,0.15-0.03,0.23c-0.04,0-0.07-0.01-0.11-0.01
		c-0.04,0-0.08-0.01-0.11-0.02c0.04-0.09,0.08-0.17,0.12-0.26C106.4,72.06,106.44,72.08,106.49,72.11z M106.44,71.83
		c0.01-0.02,0.02-0.04,0.02-0.05c0.02,0,0.03,0.01,0.05,0.01c0,0.04-0.01,0.07-0.01,0.11C106.49,71.88,106.47,71.86,106.44,71.83z
		 M106.79,72.25c0,0.03-0.01,0.07-0.01,0.1c-0.06,0-0.11-0.01-0.16-0.01c0.01-0.05,0.03-0.1,0.04-0.15
		C106.7,72.21,106.75,72.23,106.79,72.25z M106.69,72.09c0.02-0.09,0.05-0.17,0.07-0.26c0.02,0,0.04,0,0.05,0
		c-0.01,0.12-0.02,0.24-0.03,0.36C106.76,72.16,106.73,72.12,106.69,72.09z M107.39,72c0,0.13,0,0.25,0,0.38
		c-0.09-0.01-0.18-0.01-0.27-0.02c0.04-0.14,0.08-0.28,0.12-0.42C107.28,71.96,107.33,71.98,107.39,72z M107.27,71.79
		c0.02-0.07,0.04-0.15,0.06-0.22c0.02,0.01,0.04,0.01,0.05,0.02c0,0.1,0,0.2,0,0.29C107.35,71.85,107.31,71.82,107.27,71.79z
		 M108.02,71.65c0.04-0.14,0.08-0.28,0.12-0.43c0.04,0.02,0.08,0.04,0.13,0.06c-0.01,0.41-0.03,0.82-0.04,1.22
		c-0.15-0.02-0.29-0.05-0.44-0.07c0.06-0.2,0.12-0.4,0.18-0.6c0.09,0.04,0.17,0.07,0.26,0.11c0.01-0.01,0.02-0.02,0.02-0.03
		C108.17,71.82,108.1,71.73,108.02,71.65z M108.2,71.03c0.01-0.03,0.02-0.06,0.03-0.09c0.02,0.01,0.04,0.02,0.06,0.03
		c0,0.04,0,0.08,0,0.12C108.25,71.07,108.23,71.05,108.2,71.03z M108.43,72.53c0.13-0.34,0.26-0.67,0.39-1.01
		c0.01,0,0.03,0.01,0.04,0.01c-0.06,0.34-0.12,0.69-0.19,1.03C108.6,72.56,108.51,72.55,108.43,72.53z M109.39,70.86
		c-0.03-0.03-0.06-0.06-0.09-0.1c0.01-0.04,0.02-0.09,0.04-0.13c0.02,0.01,0.03,0.02,0.05,0.04
		C109.39,70.74,109.39,70.8,109.39,70.86z M108.87,68.59c-0.22-0.1-0.44-0.19-0.66-0.29c0-0.01,0.01-0.02,0.01-0.04
		c0.31,0.05,0.62,0.09,0.93,0.14C109.05,68.46,108.96,68.53,108.87,68.59z M108.68,68.72c-0.14,0.09-0.28,0.18-0.41,0.28
		c-0.21-0.11-0.42-0.23-0.63-0.34c-0.04-0.02-0.07-0.05-0.11-0.07c0-0.01,0.01-0.02,0.01-0.03
		C107.92,68.62,108.3,68.67,108.68,68.72z M108.1,69.13c-0.07,0.05-0.13,0.11-0.19,0.16c-0.19-0.11-0.38-0.21-0.57-0.32
		c0-0.01,0.01-0.03,0.01-0.04C107.59,69,107.84,69.07,108.1,69.13z M107.77,69.4c-0.1,0.08-0.2,0.16-0.29,0.24
		c-0.19-0.13-0.37-0.27-0.56-0.4c0.01-0.01,0.01-0.03,0.02-0.04C107.21,69.27,107.49,69.34,107.77,69.4z M107.32,69.77
		c-0.06,0.05-0.12,0.1-0.18,0.15c-0.04-0.01-0.07-0.01-0.12-0.05c-0.13-0.1-0.25-0.2-0.38-0.3c-0.01,0-0.01-0.02-0.02-0.05
		C106.87,69.62,107.09,69.69,107.32,69.77z M107,70.06c-0.14,0.16-0.21,0.17-0.37,0.08c-0.12-0.07-0.24-0.14-0.35-0.21
		c-0.01,0-0.01-0.02-0.02-0.05C106.51,69.95,106.75,70.01,107,70.06z M106.69,70.25c-0.2,0.19-0.21,0.19-0.39,0.05
		c-0.08-0.06-0.17-0.12-0.25-0.18c0.01-0.01,0.01-0.02,0.02-0.04C106.27,70.14,106.48,70.19,106.69,70.25z M106.29,70.48
		c-0.08,0.13-0.12,0.14-0.23,0.08c-0.09-0.05-0.17-0.1-0.26-0.15c0-0.01,0.01-0.02,0.01-0.03
		C105.97,70.41,106.13,70.45,106.29,70.48z M106.01,70.7c-0.5,0.37-0.96,0.72-1.43,1.06c-0.01-0.01-0.01-0.02-0.02-0.03
		c0.3-0.34,0.6-0.69,0.9-1.03c0.03-0.03,0.08-0.05,0.12-0.05C105.71,70.66,105.84,70.68,106.01,70.7z M105.06,73.82
		c-0.1-0.03-0.18-0.05-0.28-0.08C104.97,73.63,105,73.64,105.06,73.82z M104.67,72.38c0.09-0.02,0.18-0.05,0.26-0.07
		c-0.02,0.03-0.05,0.05-0.07,0.08c-0.02,0-0.04,0-0.06,0.01C104.76,72.39,104.72,72.39,104.67,72.38z M120.01,67.04
		c0,0.62,0,1.28,0,1.94C119.67,68.31,119.81,67.65,120.01,67.04z M123.02,60.92c0-0.01,0.01-0.03,0.01-0.04
		c0.32,0.05,0.64,0.11,0.96,0.16c0-0.01,0.01-0.03,0.01-0.04c-0.21-0.14-0.42-0.28-0.63-0.42c0.01-0.01,0.02-0.03,0.02-0.04
		c0.32,0.14,0.64,0.29,0.98,0.44c-0.02,0.05-0.03,0.1-0.05,0.15c-0.1,0.07-0.2,0.15-0.27,0.23c-0.21,0.26-0.46,0.25-0.74,0.18
		c-0.15-0.04-0.3-0.06-0.46-0.08c0-0.02,0.01-0.05,0.01-0.07c0.35,0,0.69,0,1.04,0c0-0.01,0-0.03,0-0.04
		C123.62,61.2,123.32,61.06,123.02,60.92z M125.66,61.87c0.01-0.04,0.02-0.09,0.02-0.13c0.11,0.07,0.22,0.15,0.33,0.22
		c0.01,0.09,0.02,0.17,0.03,0.26c0.01,0.01,0.04,0.01,0.05,0.01c0.01-0.06,0.03-0.12,0.04-0.19c0.34,0.23,0.68,0.47,1.02,0.7
		c0,0.02,0,0.03,0,0.05c-1.01,0.17-1.96,0.49-2.88,0.91c0.02-0.11,0.04-0.23,0.05-0.34c0.02,0.04,0.05,0.07,0.07,0.11
		c0.01-0.01,0.02-0.01,0.03-0.02c-0.03-0.07-0.05-0.15-0.08-0.22c0.02-0.16,0.05-0.31,0.07-0.47c0.14,0.13,0.28,0.25,0.43,0.38
		c0,0.03,0.01,0.05,0.01,0.08c0.02,0,0.04-0.01,0.05-0.01c0.03-0.16,0.06-0.32,0.09-0.48c0.03,0.03,0.07,0.06,0.1,0.09
		c0.01-0.01,0.02-0.02,0.03-0.03c-0.04-0.06-0.07-0.13-0.11-0.19c0.02-0.13,0.05-0.27,0.07-0.4c0.13,0.1,0.25,0.2,0.38,0.3
		c0.01,0.05,0.01,0.11,0.02,0.16h0.04c0.01-0.03,0.01-0.07,0.02-0.1c0.02,0.02,0.04,0.03,0.06,0.05c0.01-0.01,0.02-0.02,0.03-0.03
		c-0.02-0.03-0.05-0.06-0.08-0.1c0.02-0.11,0.04-0.22,0.06-0.34c0.26,0.19,0.53,0.38,0.79,0.58c0.01-0.01,0.02-0.02,0.03-0.03
		C126.17,62.42,125.91,62.15,125.66,61.87z M126.54,61.72c0,0.07,0.01,0.14,0.01,0.21c-0.11-0.13-0.23-0.24-0.33-0.38c0,0,0,0,0,0
		C126.33,61.61,126.44,61.66,126.54,61.72z M126.34,61.11c0.01-0.02,0.02-0.03,0.02-0.05c0.05,0.02,0.1,0.04,0.14,0.06
		c0,0.04,0,0.09,0.01,0.13C126.46,61.2,126.4,61.16,126.34,61.11z M129.98,60.45c-0.12,0.09-0.23,0.18-0.35,0.27
		c-0.4-0.18-0.79-0.36-1.19-0.54c0.01-0.02,0.01-0.03,0.02-0.05C128.96,60.23,129.47,60.34,129.98,60.45z M128.49,59.09
		c0.01-0.06,0.02-0.12,0.04-0.18c0.01,0.01,0.01,0.01,0.03,0.01v0.16C128.54,59.08,128.51,59.08,128.49,59.09z M132.37,58.66
		c-0.03-0.01-0.06-0.02-0.09-0.02c-0.82,0.01-1.63,0.07-2.43,0.18c0.17-0.45,0.34-0.9,0.51-1.36c0.01,0.01,0.02,0.01,0.04,0.01v1.26
		c0.01,0,0.02,0.01,0.04,0.01c0.19-0.58,0.38-1.15,0.57-1.73c0.03,0.01,0.06,0.01,0.09,0.01v1.24c0.02,0,0.05,0,0.07,0.01
		c0.19-0.62,0.38-1.24,0.57-1.86c0.02,0,0.04,0.01,0.06,0.01c0.03,0.39,0.05,0.78,0.08,1.17c0.01,0,0.04,0.01,0.05,0.01
		c0.17-0.42,0.34-0.84,0.51-1.27c0.02,0,0.04,0.01,0.06,0.01c0.04,0.37,0.09,0.74,0.14,1.11c0.01,0.01,0.03,0.01,0.04,0.01
		c0.12-0.38,0.25-0.77,0.37-1.15h0.07c0.07,0.35,0.14,0.7,0.21,1.05c0.02-0.01,0.04-0.01,0.06-0.01c0.1-0.34,0.21-0.69,0.31-1.03
		h0.05c0.07,0.31,0.15,0.62,0.24,0.98c0.2-0.3,0.36-0.56,0.53-0.81c0.02,0.01,0.04,0.02,0.07,0.03v0.48
		c0.01,0.01,0.04,0.01,0.05,0.02c0.17-0.21,0.34-0.42,0.56-0.68V57c0.12-0.13,0.23-0.23,0.37-0.38c0.02,0.52-0.04,0.62-0.43,0.79
		c-1.54,0.62-2.97,1.45-4.33,2.4c-0.01,0.01-0.03,0.02-0.04,0.03c-0.45-0.1-0.89-0.19-1.34-0.29c0-0.02,0-0.04,0-0.05
		c0.98-0.27,1.97-0.53,2.95-0.8C132.37,58.68,132.37,58.67,132.37,58.66z M134.78,51.73c0.54-0.39,1.08-0.79,1.61-1.18
		c0.01,0.01,0.03,0.03,0.05,0.04c-0.25,0.32-0.51,0.65-0.76,0.97c0.01,0.01,0.02,0.03,0.04,0.04c0.37-0.3,0.76-0.6,1.13-0.9
		c0.01,0.01,0.03,0.03,0.04,0.04c-0.2,0.36-0.4,0.72-0.6,1.08c0.01,0.01,0.02,0.02,0.04,0.03c0.26-0.23,0.51-0.48,0.76-0.72
		c0.01,0.01,0.02,0.02,0.04,0.04c-0.2,0.35-0.39,0.7-0.59,1.06c0.01,0.01,0.03,0.01,0.04,0.03c0.29-0.26,0.59-0.53,0.89-0.79
		c0.01,0.01,0.03,0.01,0.04,0.02c-0.13,0.37-0.27,0.73-0.4,1.1c0.01,0.01,0.02,0.01,0.03,0.02c0.21-0.32,0.43-0.63,0.65-0.95
		c0.01,0.01,0.04,0.01,0.05,0.01c-0.04,0.32-0.09,0.64-0.12,0.95c0.01,0.01,0.03,0.02,0.04,0.04c0.18-0.21,0.35-0.4,0.58-0.65v0.97
		c0.02,0.01,0.04,0.01,0.07,0.02c0.09-0.15,0.17-0.29,0.25-0.44c0.01,0,0.03,0.01,0.04,0.01v0.89c0.11-0.2,0.2-0.35,0.29-0.5
		c0.02,0.01,0.04,0.01,0.07,0.01c-0.03,0.23-0.06,0.46-0.1,0.75c-1.6-0.93-3.25-1.63-5.06-1.93c0-0.02-0.01-0.04-0.01-0.06
		c0.67-0.45,1.34-0.91,2-1.37c0.01,0.01,0.02,0.02,0.04,0.04c-0.4,0.43-0.79,0.85-1.18,1.28C134.76,51.71,134.78,51.72,134.78,51.73
		z M137.62,49.74c0.38-0.07,0.76-0.13,1.14-0.2c0.01,0.01,0.01,0.04,0.01,0.05c-0.35,0.17-0.7,0.34-1.06,0.51v0.04h1.23
		c0.01,0.03,0.01,0.06,0.01,0.08c-0.18,0.04-0.37,0.05-0.54,0.1c-0.33,0.09-0.63,0.1-0.87-0.21c-0.12-0.15-0.29-0.26-0.48-0.41
		c0.44-0.2,0.85-0.38,1.26-0.57c0.01,0.01,0.02,0.04,0.03,0.05c-0.25,0.16-0.49,0.33-0.74,0.49
		C137.62,49.7,137.62,49.72,137.62,49.74z M139.73,52.32c0.21,0.05,0.43,0.11,0.65,0.16C140.14,52.51,139.88,52.66,139.73,52.32z
		 M140.67,53.04c-0.23,0.17-0.34,0.14-0.48-0.12C140.36,52.96,140.51,53.01,140.67,53.04z M139.97,58.25h0.07v0.43
		c-0.03,0-0.06,0-0.09-0.01C139.96,58.53,139.96,58.39,139.97,58.25z M139.33,53.95c0.1-0.12,0.17-0.23,0.27-0.36
		c0.04,0.12,0.07,0.19,0.09,0.26c0.02,0.07,0.04,0.14,0.08,0.25c0.04-0.1,0.06-0.15,0.1-0.25c0.06,0.19,0.11,0.33,0.15,0.48
		c-0.01,0.01-0.03,0.02-0.04,0.03C139.78,54.23,139.57,54.1,139.33,53.95z M140.13,51.72c-0.24,0.04-0.48,0.11-0.72,0.14
		c-0.07,0.01-0.16-0.05-0.22-0.1c-0.1-0.1-0.18-0.21-0.24-0.35c0.4,0.09,0.79,0.18,1.18,0.26V51.72z M139.31,55.37
		c-0.07,0.41-0.14,0.46-0.39,0.34C139.05,55.6,139.16,55.5,139.31,55.37z M138.99,53.73c0.09-0.15,0.16-0.27,0.24-0.4
		c0.01,0.01,0.03,0.01,0.04,0.01v0.57C139.17,53.85,139.08,53.8,138.99,53.73z M138.56,51.03c0.34,0.07,0.63,0.12,0.95,0.17
		C139.24,51.35,138.72,51.27,138.56,51.03z M139.51,50.81c-0.36,0.02-0.72,0.05-1.08,0.05c-0.09,0-0.18-0.1-0.26-0.16
		c0.01-0.02,0.01-0.05,0.03-0.07c0.44,0.04,0.88,0.08,1.32,0.12C139.51,50.77,139.51,50.8,139.51,50.81z M138.73,56.46
		c-0.48,0.08-0.95,0.16-1.42,0.24c0-0.02-0.01-0.04-0.01-0.07C137.73,56.36,138.25,56.51,138.73,56.46z M137.48,55.49
		c0.18-0.16,0.36-0.32,0.54-0.48c0.01,0.01,0.02,0.02,0.04,0.03c-0.07,0.17-0.12,0.35-0.24,0.48c-0.06,0.07-0.22,0.04-0.33,0.06
		C137.49,55.55,137.49,55.52,137.48,55.49z M138.23,55.63c0.15-0.12,0.24-0.21,0.34-0.29C138.6,55.6,138.53,55.68,138.23,55.63z
		 M136.3,56.98c-0.18,0.06-0.37,0.12-0.57,0.14c0.26-0.21,0.53-0.42,0.81-0.64C136.62,56.86,136.61,56.89,136.3,56.98z
		 M136.54,63.95c-0.06-0.02-0.13-0.03-0.19-0.05c0.03-0.24,0.06-0.49,0.09-0.73h0.04C136.5,63.43,136.52,63.69,136.54,63.95z
		 M135.77,63.38c0.03,0,0.06,0,0.08-0.01c0.03,0.14,0.06,0.28,0.09,0.42c-0.06-0.02-0.12-0.03-0.17-0.05V63.38z M135.71,61.27
		c-0.08-0.22-0.04-0.4,0.11-0.57C135.98,60.94,135.97,61.01,135.71,61.27z M135.75,55.42c0.16-0.14,0.31-0.27,0.51-0.44
		C136.13,55.47,136.08,55.52,135.75,55.42z M135.05,54.69c-0.18,0.25-0.36,0.5-0.56,0.74c-0.05,0.05-0.18,0.05-0.27,0.07
		c-0.17,0.02-0.34,0.03-0.51,0.04c-0.01-0.02-0.01-0.04-0.02-0.07c0.44-0.28,0.87-0.55,1.31-0.83L135.05,54.69z M135.64,54.85
		c-0.21,0.51-0.39,0.65-0.73,0.59C135.16,55.23,135.38,55.05,135.64,54.85z M135.24,61.97c-0.07-0.31,0.14-0.5,0.29-0.72
		C135.66,61.59,135.35,61.73,135.24,61.97z M135.44,64.71c-0.04-0.07-0.09-0.13-0.13-0.2v-0.02h0.08
		C135.41,64.57,135.42,64.64,135.44,64.71z M135.04,62.05c0.09,0.15-0.08,0.54-0.39,0.91C134.57,62.77,134.67,62.5,135.04,62.05z
		 M134.55,62.03c-0.01-0.16-0.02-0.32-0.04-0.48c0.03-0.01,0.05-0.01,0.08-0.01c0.02,0.16,0.04,0.32,0.07,0.48
		C134.62,62.02,134.58,62.03,134.55,62.03z M134.23,68.82c0.04,0.09,0.08,0.17,0.12,0.26c-0.05-0.06-0.1-0.11-0.15-0.17
		c0-0.03-0.01-0.05-0.01-0.08C134.2,68.83,134.22,68.82,134.23,68.82z M134.2,63.14v-0.65C134.38,62.66,134.44,62.78,134.2,63.14z
		 M134.25,63.37c0.04-0.11,0.11-0.22,0.23-0.35c0.07,0.1,0.04,0.24-0.03,0.4C134.38,63.4,134.32,63.38,134.25,63.37z M132.76,72
		c-0.61-0.55-1.25-1.08-1.9-1.59c0.01,0,0.03-0.01,0.04-0.01c-0.07-0.46-0.14-0.93-0.22-1.4c0.01,0,0.02,0,0.02,0
		c0-0.26,0-0.52,0-0.79c0.14,0.35,0.28,0.7,0.41,1.05c0,0,0,0,0,0.01c0,0,0,0,0,0c0.04,0.1,0.08,0.2,0.12,0.3
		c0.01-0.01,0.03-0.01,0.04-0.01c-0.03-0.25-0.06-0.49-0.09-0.74c0.01-0.14,0.02-0.28,0.03-0.41c0.01,0,0.03-0.01,0.04-0.01
		c0.12,0.4,0.23,0.79,0.35,1.19c0.01,0,0.02,0,0.03-0.01c0-0.25,0-0.5,0-0.76c0.01,0,0.02,0,0.03-0.01c0.1,0.47,0.19,0.95,0.29,1.42
		c0.01,0,0.03,0,0.04,0c0.03-0.35,0.06-0.7,0.08-1.05c0.01,0,0.03,0,0.04-0.01c0.07,0.41,0.14,0.83,0.22,1.24c0.02,0,0.03,0,0.05,0
		c0.06-0.37,0.12-0.74,0.18-1.1c0.02,0,0.04,0,0.06,0c0.06,0.32,0.11,0.65,0.17,0.97c-0.01,0.13-0.02,0.26-0.03,0.39
		C132.76,71.09,132.76,71.55,132.76,72z M132.76,73.98c-0.06-0.16-0.11-0.31-0.17-0.47c0.02-0.01,0.03-0.01,0.05-0.02
		c0.04,0.07,0.07,0.14,0.11,0.21C132.76,73.79,132.76,73.89,132.76,73.98z M128.5,66.11c-0.1-0.02-0.2-0.07-0.3-0.1
		c-0.16,0-0.32,0.02-0.48-0.01c-0.11-0.02-0.24-0.09-0.31-0.17c-0.03-0.03-0.06-0.07-0.09-0.11c0.06-0.09,0.11-0.19,0.17-0.28
		c0.18,0.14,0.35,0.27,0.53,0.41c-0.01,0.03-0.02,0.07-0.03,0.1c0.01,0.01,0.03,0.01,0.05,0.02c0.02-0.02,0.03-0.05,0.05-0.07
		c0.04,0.03,0.08,0.06,0.12,0.09c-0.03-0.04-0.06-0.08-0.1-0.12c0.06-0.09,0.12-0.19,0.19-0.28c0.21,0.17,0.42,0.34,0.63,0.51
		c0.01-0.01,0.02-0.02,0.03-0.02c-0.14-0.28-0.28-0.57-0.42-0.85c0.04-0.06,0.07-0.11,0.11-0.17c0.3,0.31,0.59,0.61,0.89,0.92
		c-0.05,0.11-0.11,0.21-0.16,0.32c-0.05-0.01-0.11-0.03-0.16-0.04C128.97,66.19,128.73,66.16,128.5,66.11z M129.06,67
		c-0.07,0.17-0.13,0.35-0.2,0.52c0.02-0.27,0.04-0.54,0.06-0.81c0.02,0,0.03,0,0.05-0.01C129,66.8,129.03,66.9,129.06,67z
		 M126.09,67.52c-0.12-0.05-0.2-0.1-0.25-0.15c0.05-0.08,0.09-0.17,0.14-0.25c0.02,0.02,0.04,0.05,0.07,0.07c0-0.07,0-0.13,0-0.2
		c0.04-0.07,0.08-0.15,0.12-0.22c0.12,0.15,0.24,0.3,0.35,0.43c0.02-0.01,0.03-0.01,0.05-0.02c0-0.13,0-0.27,0-0.4
		c0.02-0.01,0.04-0.02,0.06-0.03c0.14,0.21,0.28,0.43,0.44,0.68c0.07-0.31,0.14-0.56,0.2-0.82c0.01,0,0.03,0,0.04,0
		c0.09,0.29,0.17,0.58,0.26,0.88c0.02,0,0.03,0,0.05,0c0.06-0.3,0.12-0.59,0.18-0.89c0.02,0,0.03,0,0.05,0
		c0.11,0.32,0.21,0.65,0.32,0.97c0.01,0,0.03,0,0.04-0.01c0.04-0.31,0.08-0.63,0.11-0.94c0.02,0,0.03-0.01,0.05-0.01
		c0.14,0.35,0.29,0.71,0.43,1.06c-0.13,0.34-0.27,0.68-0.39,1.03C127.67,68.26,126.9,67.85,126.09,67.52z M128,70.49
		c-0.02,0.01-0.04,0.02-0.06,0.03c-0.07-0.12-0.13-0.23-0.2-0.35c0.02-0.02,0.05-0.03,0.07-0.05
		C127.87,70.25,127.94,70.37,128,70.49z M126.89,71.82c0,0.17,0,0.34,0,0.56C126.68,72.07,126.73,71.97,126.89,71.82z M126.83,72.86
		c-0.2-0.22-0.27-0.46-0.18-0.59C126.84,72.48,126.92,72.61,126.83,72.86z M126.5,71.42c0.02-0.14,0.03-0.27,0.05-0.41
		c0.02,0,0.05,0,0.07,0c-0.01,0.14-0.02,0.28-0.03,0.41C126.56,71.43,126.53,71.43,126.5,71.42z M126.51,72.22
		c-0.26-0.31-0.4-0.65-0.32-0.77C126.49,71.84,126.58,72.06,126.51,72.22z M126.01,71.38c-0.09-0.2-0.36-0.32-0.24-0.61
		C125.89,70.96,126.08,71.12,126.01,71.38z M125.73,66.86c0.05,0.05,0.09,0.1,0.14,0.15c-0.03,0.1-0.06,0.2-0.09,0.3
		C125.73,67.21,125.72,67.08,125.73,66.86z M126.25,65.83c0,0.01-0.01,0.02-0.01,0.03c-0.13,0.02-0.24-0.01-0.33-0.1
		c0.03-0.04,0.06-0.09,0.09-0.13C126.08,65.7,126.16,65.76,126.25,65.83z M126.23,65.31c0.02-0.02,0.03-0.05,0.05-0.07
		c0.04,0.03,0.08,0.05,0.12,0.08c-0.02,0.05-0.03,0.1-0.05,0.15C126.32,65.42,126.27,65.36,126.23,65.31z M127.32,65.9
		c-0.01,0.02-0.01,0.04-0.02,0.05c-0.04,0-0.08-0.01-0.12-0.01c0.02-0.03,0.04-0.06,0.06-0.09
		C127.27,65.86,127.29,65.88,127.32,65.9z M127.31,64.79c0.01,0.01,0.01,0.01,0.02,0.02c0,0,0,0.01-0.01,0.01
		C127.32,64.81,127.31,64.8,127.31,64.79z M127.1,65.46c-0.05-0.06-0.1-0.12-0.15-0.18c0.03-0.06,0.07-0.12,0.1-0.19
		c0.05,0.04,0.09,0.07,0.14,0.11C127.16,65.28,127.13,65.37,127.1,65.46z M127.02,65.71c-0.03,0.07-0.05,0.14-0.07,0.21
		c-0.02,0-0.05,0-0.07-0.01c-0.08-0.01-0.19-0.01-0.23-0.06c0,0,0,0,0,0c0.05-0.1,0.1-0.19,0.15-0.29
		C126.87,65.61,126.94,65.66,127.02,65.71z M127.61,65.24c0.03-0.05,0.06-0.09,0.08-0.14c0.15,0.12,0.3,0.24,0.45,0.36
		c-0.03,0.11-0.07,0.21-0.1,0.32C127.9,65.6,127.75,65.42,127.61,65.24z M128.3,64.76c0.01-0.01,0.02-0.02,0.03-0.03
		c0.01,0.01,0.02,0.02,0.03,0.03c-0.01,0.02-0.02,0.05-0.02,0.07C128.33,64.81,128.32,64.78,128.3,64.76z M128.85,64.74
		c0.01-0.02,0.03-0.04,0.04-0.06c0.12,0.09,0.25,0.18,0.37,0.28c-0.04,0.08-0.07,0.15-0.11,0.23c0.01,0.01,0.04,0.02,0.05,0.03
		c0.04-0.07,0.09-0.13,0.13-0.2c0.16,0.12,0.33,0.24,0.49,0.36c-0.08,0.17-0.17,0.33-0.25,0.5
		C129.33,65.49,129.09,65.11,128.85,64.74z M129.49,64.43c0.01-0.01,0.02-0.02,0.03-0.03c-0.01,0.01-0.01,0.03-0.02,0.04
		C129.5,64.44,129.5,64.44,129.49,64.43z M129.62,64.58c0.01-0.02,0.03-0.04,0.04-0.06c0.13,0.12,0.27,0.25,0.4,0.37
		c-0.02,0.04-0.04,0.09-0.07,0.13C129.87,64.88,129.75,64.73,129.62,64.58z M129.67,68.67c0.17,0.4,0.35,0.8,0.52,1.2
		c0.01-0.01,0.03-0.01,0.05-0.02c-0.05-0.45-0.09-0.9-0.13-1.35c0-0.13,0-0.25,0-0.38h0.02c0.24,0.76,0.48,1.52,0.72,2.28
		c-0.37-0.28-0.72-0.58-1.1-0.85c-0.04-0.02-0.07-0.04-0.11-0.07c-0.01-0.27-0.02-0.54-0.03-0.81
		C129.62,68.67,129.64,68.67,129.67,68.67z M130.19,62.68c0.13-0.19,0.26-0.39,0.38-0.58c0.01,0.01,0.03,0.01,0.04,0.02
		c-0.09,0.19-0.18,0.38-0.27,0.57C130.3,62.69,130.25,62.69,130.19,62.68z M130.86,62.73c0.18-0.27,0.36-0.54,0.54-0.81
		c0.01,0.01,0.04,0.02,0.05,0.04c-0.12,0.27-0.23,0.54-0.35,0.81C131.03,62.75,130.95,62.74,130.86,62.73z M131.07,66.8
		c-0.03-0.01-0.07-0.03-0.1-0.04c0-0.01,0-0.02,0-0.04c0.02,0,0.04-0.01,0.07-0.01C131.04,66.75,131.06,66.78,131.07,66.8z
		 M132.01,67.23V66.8c0.01,0,0.01-0.01,0.03-0.01c0.06,0.19,0.13,0.38,0.19,0.56C132.16,67.31,132.08,67.27,132.01,67.23z
		 M132.62,67.58c-0.1-0.76-0.19-1.52-0.29-2.28c0.11,0.12,0.21,0.23,0.32,0.35c0.13,0.26,0.26,0.52,0.4,0.78
		c0.02-0.01,0.04-0.01,0.05-0.01c-0.01-0.1-0.02-0.2-0.02-0.31c0.1,0.11,0.2,0.22,0.3,0.32c-0.12,0.48-0.23,0.96-0.31,1.45
		C132.92,67.78,132.78,67.68,132.62,67.58z M132.95,60.96c-0.02-0.01-0.04-0.03-0.07-0.04c0.07-0.15,0.15-0.29,0.22-0.44
		c0.03,0.02,0.06,0.04,0.08,0.06C133.12,60.68,133.04,60.82,132.95,60.96z M133.04,64.56c-0.01-0.02-0.03-0.05-0.04-0.07
		c0.01,0,0.01,0,0.02,0C133.02,64.5,133.03,64.53,133.04,64.56z M133.04,65.57c-0.01-0.16-0.02-0.32-0.04-0.48
		c0.11,0.1,0.21,0.2,0.32,0.3c0,0.01,0.01,0.02,0.01,0.04c0.01,0,0.01,0,0.02-0.01c0.08,0.07,0.16,0.15,0.24,0.22
		c-0.06,0.21-0.11,0.42-0.17,0.64C133.29,66.04,133.16,65.81,133.04,65.57z M133.34,64.71c0.14,0.16,0.27,0.32,0.41,0.48
		c-0.04,0.13-0.1,0.25-0.14,0.38c-0.08-0.14-0.16-0.29-0.24-0.43C133.36,64.99,133.35,64.85,133.34,64.71z M133.56,71.36
		c0.13,0.58,0.26,1.16,0.4,1.74c-0.12-0.12-0.24-0.24-0.36-0.36c-0.04-0.46-0.07-0.92-0.11-1.37
		C133.51,71.36,133.53,71.36,133.56,71.36z M133.67,63.22v-0.26c0.05,0.09,0.08,0.19,0.13,0.29
		C133.76,63.25,133.72,63.23,133.67,63.22z M129.67,58.85c-0.11,0.02-0.23,0.04-0.34,0.06c0.08-0.29,0.16-0.58,0.24-0.86
		c0.03,0,0.07,0.01,0.1,0.01V58.85z M130.63,59.94c-0.15,0.11-0.29,0.23-0.45,0.34c-0.4-0.15-0.81-0.29-1.21-0.44
		c0-0.01,0.01-0.03,0.01-0.04C129.54,59.85,130.09,59.89,130.63,59.94z M128.83,59.01c0.06-0.2,0.11-0.4,0.17-0.59
		c0.02,0.01,0.04,0.01,0.05,0.01c0.01,0.18,0.03,0.35,0.04,0.52C129,58.97,128.91,58.99,128.83,59.01z M129.48,60.82
		c-0.13,0.1-0.26,0.2-0.39,0.3c-0.3-0.21-0.59-0.43-0.89-0.64c0-0.02,0.01-0.05,0.01-0.07C128.64,60.55,129.06,60.69,129.48,60.82z
		 M128.87,61.3c-0.13,0.11-0.27,0.2-0.4,0.31c-0.3-0.27-0.6-0.53-0.9-0.8c0.01-0.01,0.02-0.03,0.02-0.04
		C128.02,60.95,128.44,61.12,128.87,61.3z M128.26,61.79c-0.17,0.14-0.32,0.29-0.49,0.44c-0.37-0.29-0.75-0.58-1.12-0.87
		c0.01-0.06,0.01-0.12,0.02-0.17c0.1,0.04,0.2,0.08,0.3,0.11c0.01,0.06,0.01,0.11,0.02,0.17h0.06c0.01-0.04,0.01-0.09,0.02-0.13
		C127.47,61.48,127.87,61.63,128.26,61.79z M127.68,62.31c-0.15,0.13-0.3,0.26-0.44,0.4c0,0,0,0,0,0c-0.24-0.25-0.46-0.51-0.68-0.77
		h0.04c0.01-0.06,0.01-0.12,0.02-0.18C126.97,61.94,127.32,62.12,127.68,62.31z M125.52,70.32c0.14,0.14,0.16,0.29,0.1,0.48
		C125.39,70.57,125.38,70.52,125.52,70.32z M125.11,67.17c-0.08-0.02-0.13-0.04-0.16-0.07c0.05-0.07,0.1-0.14,0.15-0.21
		c0.17,0.13,0.34,0.26,0.5,0.39C125.42,67.27,125.27,67.22,125.11,67.17z M123.19,65.78c0.09,0.07,0.17,0.15,0.3,0.25
		C123.23,66.07,123.17,66,123.19,65.78z M123.26,66.73c-0.01,0.01-0.01,0.02-0.02,0.02c-0.06-0.01-0.12-0.02-0.18-0.03
		C123.13,66.74,123.19,66.73,123.26,66.73z M122.86,64.42c-0.03-0.24-0.06-0.44-0.08-0.63c0.02,0,0.04-0.01,0.05-0.01
		c0.07,0.13,0.15,0.25,0.24,0.42c0-0.29,0-0.52,0-0.75c0.01,0,0.02-0.01,0.03-0.01c0.07,0.12,0.14,0.25,0.21,0.37
		c0.02-0.01,0.04-0.01,0.06-0.02c0-0.26,0-0.51,0-0.82c0.19,0.21,0.34,0.38,0.49,0.55c0.01-0.01,0.02-0.02,0.04-0.03
		c-0.04-0.27-0.07-0.54-0.11-0.81c0.02-0.01,0.03-0.01,0.05-0.02c0.04,0.06,0.08,0.12,0.13,0.19c-0.02,0.32-0.03,0.64-0.02,0.98
		c0,0,0,0,0,0C123.59,64.02,123.22,64.21,122.86,64.42z M122.9,66.09c-0.21,0.11-0.26,0.06-0.33-0.28
		C122.7,65.91,122.79,66,122.9,66.09z M122.6,64.58c0-0.18,0-0.33,0-0.49c0.01,0,0.02,0,0.04,0c0.07,0.11,0.13,0.21,0.21,0.33
		C122.76,64.47,122.69,64.52,122.6,64.58z M122.4,62.28c0.26-0.05,0.51-0.09,0.8-0.14C123.07,62.34,122.63,62.41,122.4,62.28z
		 M123.66,65.5c0.13,0.12,0.26,0.23,0.39,0.35c-0.04,0.04-0.07,0.08-0.11,0.12c-0.05,0-0.09-0.01-0.12-0.04
		c-0.09-0.12-0.14-0.27-0.2-0.41C123.63,65.51,123.64,65.5,123.66,65.5z M123.98,66.76c0.1,0.02,0.2,0.06,0.3,0.12
		c0,0.02-0.01,0.04-0.01,0.05c-0.14-0.02-0.28-0.05-0.42-0.07C123.89,66.83,123.93,66.79,123.98,66.76z M124.77,62.53
		c0.02,0.16,0.03,0.31,0.05,0.47c-0.12-0.21-0.23-0.42-0.35-0.63c0.01-0.03,0.01-0.07,0.02-0.1
		C124.58,62.35,124.68,62.44,124.77,62.53z M124.6,61.88c0.01-0.01,0.02-0.02,0.04-0.03c0.02,0.02,0.05,0.04,0.07,0.06
		c0.01,0.07,0.01,0.13,0.02,0.2C124.69,62.04,124.65,61.96,124.6,61.88z M125.12,61.94c0.01-0.04,0.01-0.08,0.02-0.13
		c0.08,0.06,0.16,0.11,0.23,0.17c0.02,0.12,0.03,0.23,0.05,0.35C125.33,62.2,125.23,62.07,125.12,61.94z M125.45,59.16
		c-0.11-0.05-0.23-0.11-0.34-0.16c0-0.01,0-0.02,0-0.03c0.17,0,0.34,0,0.52,0C125.57,59.03,125.51,59.09,125.45,59.16z
		 M125.42,59.19c-0.02,0.03-0.06,0.06-0.08,0.09c-0.09-0.03-0.18-0.06-0.27-0.09c0-0.01,0.01-0.03,0.01-0.04
		C125.19,59.16,125.31,59.18,125.42,59.19z M125.16,59.53c-0.06,0.08-0.11,0.16-0.16,0.24c-0.1-0.05-0.2-0.1-0.3-0.14
		c0-0.02,0-0.04,0.01-0.05C124.86,59.56,125.01,59.55,125.16,59.53z M124.92,59.89c-0.05,0.08-0.11,0.16-0.15,0.24
		c-0.15-0.11-0.3-0.21-0.44-0.32c0.01-0.02,0.01-0.03,0.02-0.05C124.53,59.81,124.73,59.85,124.92,59.89z M124.75,60.18
		c-0.05,0.09-0.09,0.19-0.14,0.29c-0.16-0.18-0.32-0.36-0.48-0.54c0.01-0.01,0.02-0.03,0.03-0.04
		C124.35,59.99,124.55,60.08,124.75,60.18z M124.55,60.6c-0.04,0.09-0.09,0.17-0.13,0.26c-0.06-0.03-0.12-0.08-0.22-0.16
		c-0.17-0.14-0.33-0.28-0.5-0.43c0.01-0.01,0.02-0.03,0.02-0.04C124,60.36,124.28,60.48,124.55,60.6z M123.51,61.79
		c0.01,0.02,0.02,0.04,0.02,0.06c-0.07,0.05-0.15,0.13-0.22,0.13c-0.3,0-0.61-0.02-0.92-0.04c0-0.02,0-0.03,0-0.05
		C122.77,61.87,123.14,61.83,123.51,61.79z M122.88,62.45c-0.05,0.12-0.12,0.22-0.2,0.3c-0.05,0.05-0.13,0.09-0.19,0.09
		c-0.2-0.03-0.4-0.08-0.61-0.12c0-0.01,0-0.03,0-0.04C122.21,62.6,122.54,62.53,122.88,62.45z M121.99,64.95
		c-0.01-0.01-0.02-0.02-0.03-0.03c0.04-0.12,0.08-0.24,0.13-0.41c0.04,0.09,0.05,0.13,0.09,0.22c0.03-0.1,0.05-0.15,0.07-0.21
		c0.02-0.06,0.04-0.12,0.07-0.22c0.08,0.11,0.15,0.2,0.23,0.31C122.35,64.73,122.17,64.84,121.99,64.95z M122.03,68.6
		c-0.02,0-0.05,0-0.07,0c0-0.12,0-0.25,0-0.37c0.02,0,0.04,0,0.06,0C122.02,68.35,122.02,68.48,122.03,68.6z M122.21,63.22
		c-0.13,0.29-0.35,0.16-0.55,0.14C121.85,63.31,122.03,63.27,122.21,63.22z M121.82,63.73c-0.12,0.22-0.21,0.25-0.4,0.11
		C121.56,63.8,121.68,63.77,121.82,63.73z M142.26,57.17c0.03-0.01,0.07-0.02,0.1-0.03c0.32,0.57,0.84,1.05,0.79,1.81
		c0.04-0.07,0.07-0.13,0.11-0.21c0.23,0.24,0.3,0.51,0.27,0.83c0.01,0.01,0.04,0.01,0.06,0.01c0.08-0.24,0.16-0.48,0.24-0.72h0.04
		v1.16c0.02,0,0.04,0.01,0.07,0.01c0.1-0.23,0.19-0.46,0.3-0.73c0.16,0.26,0.07,0.48,0.06,0.68c-0.01,0.22-0.02,0.44,0.01,0.67
		c0.13-0.42,0.26-0.84,0.4-1.26c0.01,0.01,0.03,0.01,0.04,0.01v1.95c0.01,0.01,0.02,0.01,0.04,0.01c0.12-0.35,0.26-0.7,0.38-1.06
		c0.01,0.01,0.03,0.01,0.04,0.01v1.59c0.02,0.01,0.04,0.01,0.06,0.01c0.14-0.33,0.28-0.66,0.42-0.99c0.02,0.01,0.04,0.01,0.06,0.01
		c0.04,0.56,0.07,1.12,0.11,1.67c0.01,0.01,0.03,0.01,0.04,0.02c0.15-0.28,0.29-0.56,0.43-0.84c0.01,0,0.04,0.01,0.05,0.01
		c0.15,0.76,0.29,1.51,0.44,2.27h0.06c0.02-0.3,0.04-0.6,0.07-0.9h0.04c0.07,0.55,0.13,1.1,0.2,1.65c0.02,0,0.04,0.01,0.06,0.01
		c0.1-0.48,0.21-0.97,0.32-1.45c0.02,0.01,0.05,0.01,0.08,0.01v2.52h0.07c0.1-0.47,0.21-0.94,0.31-1.41h0.08v2.94
		c0.03,0.01,0.06,0.01,0.09,0.01c0.15-0.42,0.29-0.84,0.43-1.27c0.02,0,0.04,0.01,0.06,0.01c-0.09,0.81-0.18,1.62-0.26,2.44
		c0.01,0.01,0.04,0.01,0.05,0.01c0.17-0.41,0.35-0.82,0.51-1.24c0.02,0.01,0.04,0.01,0.06,0.02c-0.14,0.84-0.28,1.69-0.43,2.54
		c0.01,0.01,0.04,0.01,0.05,0.01c0.17-0.38,0.34-0.76,0.51-1.15c0.01,0.01,0.04,0.01,0.05,0.01c-0.15,0.83-0.31,1.65-0.46,2.47
		c0.01,0.01,0.03,0.01,0.04,0.02c0.23-0.43,0.45-0.86,0.68-1.29c0.02,0.01,0.04,0.01,0.06,0.01c-0.04,1.04-0.1,2.07-0.15,3.11
		c0.02,0,0.04,0.01,0.05,0.01c0.14-0.6,0.28-1.2,0.41-1.8c0.02,0,0.04,0,0.07,0.01c-0.07,0.95-0.15,1.9-0.22,2.85
		c0.01,0.01,0.04,0.01,0.05,0.01c0.18-0.45,0.34-0.9,0.51-1.34h0.06c0.07,0.91,0.15,1.83,0.23,2.75h0.05
		c0.01-0.13,0.03-0.26,0.03-0.39c0.01-1.53,0.07-3.07,0-4.6c-0.09-2.21-0.46-4.37-1.32-6.44c-0.02-0.06-0.04-0.14-0.03-0.19
		c0.13-0.36,0.27-0.7,0.46-1.05v1.72c0.01,0,0.02,0.01,0.03,0.01c0.1-0.3,0.21-0.59,0.31-0.89c0.02,0.01,0.04,0.01,0.06,0.01
		c-0.04,0.53-0.07,1.06-0.11,1.59c0.02,0.01,0.04,0.01,0.06,0.01c0.11-0.32,0.21-0.63,0.32-0.95c0.02,0,0.04,0.01,0.06,0.01
		c-0.05,0.65-0.1,1.28-0.15,1.93c0.01,0,0.03,0.01,0.05,0.01c0.23-0.45,0.45-0.89,0.68-1.33c0.02,0,0.04,0.01,0.07,0.01
		c-0.15,1.23-0.32,2.47-0.47,3.7c0.01,0,0.03,0.01,0.04,0.01c0.24-0.68,0.46-1.36,0.7-2.04c0.01,0,0.02,0.01,0.03,0.01v1.99
		c0.01,0.01,0.02,0.01,0.04,0.01c0.32-0.7,0.63-1.39,0.94-2.08c0.02,0,0.04,0.01,0.07,0.01c-0.11,0.94-0.22,1.88-0.33,2.82
		c0.01,0,0.03,0.01,0.04,0.01c0.23-0.57,0.46-1.14,0.68-1.7c0.02,0.01,0.04,0.01,0.06,0.01c-0.13,0.84-0.26,1.69-0.39,2.52
		c0.01,0.01,0.04,0.01,0.05,0.01c0.24-0.76,0.48-1.53,0.73-2.29h0.06c-0.06,0.58-0.11,1.16-0.17,1.73c0.02,0.01,0.04,0.01,0.05,0.02
		c0.18-0.4,0.35-0.81,0.52-1.2c0.02,0,0.04,0,0.06,0.01c-0.03,0.77-0.06,1.55-0.1,2.33c0.02,0.01,0.04,0.01,0.07,0.01
		c0.15-0.4,0.3-0.79,0.46-1.19c0.02,0,0.04,0.01,0.06,0.01c-0.07,0.57-0.14,1.14-0.21,1.7c0.01,0.01,0.04,0.01,0.05,0.02
		c0.23-0.47,0.46-0.93,0.71-1.45v2.09c0.01,0.01,0.01,0.01,0.02,0.01c0.12-0.44,0.21-0.9,0.37-1.32c0.21-0.58,0.15-1.12-0.05-1.7
		c-0.59-1.8-1.33-3.52-2.28-5.17c-0.38-0.65-0.64-1.38-0.95-2.07c0.01-0.01,0.04-0.02,0.05-0.04c0.73,1.1,1.47,2.19,2.2,3.29
		c0.01-0.01,0.04-0.01,0.05-0.03c-0.49-1.01-0.98-2.03-1.47-3.05c0.01-0.01,0.03-0.01,0.04-0.02c0.84,1.28,1.7,2.58,2.54,3.87
		c0.02-0.01,0.04-0.01,0.05-0.02c-0.29-0.9-0.57-1.79-0.86-2.69c0.01-0.01,0.02-0.01,0.04-0.02c0.69,1.15,1.39,2.3,2.08,3.46
		c0.01-0.01,0.03-0.01,0.05-0.02c-0.26-0.73-0.51-1.46-0.76-2.19c0.01-0.01,0.04-0.01,0.06-0.02c0.54,1.01,1.07,2.02,1.61,3.02
		c0.02-0.01,0.04-0.01,0.05-0.01c-0.25-0.81-0.51-1.61-0.76-2.42c0.02-0.01,0.04-0.01,0.06-0.02c0.68,0.93,1.35,1.87,2.02,2.81
		c0.02-0.01,0.04-0.02,0.06-0.03c-0.24-0.6-0.48-1.2-0.73-1.8c0.01-0.01,0.04-0.03,0.05-0.04c0.98,0.72,1.95,1.44,2.93,2.17
		c0.01-0.01,0.02-0.02,0.03-0.03c-0.02-0.04-0.04-0.09-0.08-0.13c-2.58-3.05-5.38-5.87-8.66-8.18c-1.36-0.95-2.79-1.78-4.33-2.4
		c-0.39-0.16-0.45-0.26-0.43-0.79c0.14,0.15,0.24,0.25,0.37,0.38v-0.66c0.21,0.26,0.39,0.47,0.56,0.68
		c0.01-0.01,0.04-0.01,0.05-0.02v-0.48c0.03-0.01,0.05-0.02,0.07-0.03c0.17,0.25,0.33,0.51,0.53,0.81c0.09-0.36,0.16-0.67,0.24-0.98
		h0.05c0.1,0.35,0.21,0.69,0.31,1.03c0.02,0,0.04,0,0.06,0.01c0.07-0.35,0.14-0.7,0.21-1.05h0.07c0.12,0.38,0.25,0.77,0.37,1.15
		c0.01,0,0.03,0,0.04-0.01c0.05-0.37,0.1-0.74,0.14-1.11c0.02,0,0.04-0.01,0.06-0.01c0.17,0.43,0.35,0.85,0.51,1.27
		c0.01,0,0.04-0.01,0.05-0.01c0.03-0.39,0.05-0.78,0.08-1.17c0.02,0,0.04-0.01,0.06-0.01c0.19,0.62,0.38,1.23,0.57,1.86
		c0.02-0.01,0.05-0.01,0.07-0.01v-1.24c0.03,0,0.06-0.01,0.09-0.01c0.19,0.58,0.38,1.15,0.57,1.73c0.01,0,0.02-0.01,0.04-0.01v-1.26
		c0.01,0,0.03-0.01,0.04-0.01c0.21,0.56,0.42,1.12,0.62,1.67h0.06v-1.08c0.03-0.01,0.07-0.01,0.1-0.01c0.13,0.47,0.26,0.94,0.4,1.41
		h0.05c0.03-0.35,0.05-0.68,0.08-1.03c0.01-0.01,0.03-0.01,0.05-0.01c0.14,0.46,0.27,0.93,0.41,1.4c0.01,0,0.02-0.01,0.03-0.01v-0.9
		c0.01,0,0.02,0,0.03-0.01c0.12,0.57,0.23,1.12,0.35,1.68h0.05c0.03-0.41,0.07-0.83,0.1-1.25c0.01,0,0.04,0,0.05-0.01
		c0.08,0.49,0.17,0.98,0.26,1.47h0.06c0.07-0.43,0.14-0.87,0.21-1.31h0.07c0.12,0.65,0.23,1.31,0.35,1.97h0.06
		c0.04-0.46,0.09-0.9,0.13-1.36c0.01,0,0.04,0,0.06-0.01c0.07,0.62,0.14,1.23,0.21,1.83h0.04c0.02-0.46,0.05-0.92,0.07-1.39h0.05
		c0.11,0.56,0.23,1.12,0.34,1.68c0.01,0,0.04,0,0.05-0.01c0.05-0.45,0.1-0.9,0.14-1.34h0.07c0.1,0.59,0.21,1.2,0.31,1.79h0.04
		c0.07-0.44,0.12-0.88,0.18-1.32c0.02,0,0.04-0.01,0.06-0.01c0.12,0.62,0.23,1.25,0.34,1.87c0.01,0,0.03,0.01,0.05,0.01
		c0.06-0.55,0.12-1.1,0.17-1.65c0.03-0.01,0.05-0.01,0.07-0.01c0.17,1.05,0.34,2.1,0.5,3.15c0.02,0,0.04,0,0.07-0.01
		c0.03-0.29,0.07-0.58,0.08-0.87c0.12-2.88-1.17-4.97-3.57-6.44c-1.22-0.74-2.54-1.2-3.93-1.5c-0.28-0.06-0.56-0.1-0.84-0.16
		c-0.12-0.03-0.23-0.08-0.35-0.12c-0.19,0-0.38,0.02-0.57-0.01c-0.13-0.02-0.28-0.1-0.37-0.2c-0.34-0.4-0.68-0.81-1.02-1.22
		c-0.03-0.04-0.04-0.08-0.07-0.12c0.08,0.01,0.13,0.05,0.18,0.09c0.62,0.48,1.23,0.96,1.85,1.44c-0.32-0.4-0.63-0.79-0.95-1.19
		c-0.04-0.07-0.1-0.12-0.11-0.23c0.64,0.51,1.28,1.03,1.91,1.54c0.01-0.01,0.03-0.01,0.04-0.03c-0.26-0.51-0.51-1.03-0.77-1.55
		c0.01-0.01,0.02-0.02,0.04-0.03c0.49,0.51,0.98,1.02,1.48,1.53c0.03-0.02,0.05-0.04,0.07-0.07c-0.33-0.51-0.66-1.03-0.99-1.55
		c0.01-0.01,0.02-0.02,0.04-0.04c0.79,0.59,1.59,1.17,2.38,1.76c0.01-0.01,0.02-0.03,0.04-0.04c-0.54-0.65-1.09-1.3-1.64-1.95
		c0.01-0.01,0.03-0.02,0.04-0.04c0.68,0.62,1.34,1.25,2.02,1.87c0.01-0.01,0.03-0.02,0.04-0.04c-0.4-0.59-0.81-1.19-1.18-1.74
		c0.43,0.41,0.88,0.86,1.34,1.31c0.02-0.01,0.04-0.03,0.07-0.04c-0.26-0.39-0.51-0.79-0.76-1.17c0.02-0.01,0.04-0.04,0.06-0.05
		c0.49,0.52,0.98,1.05,1.48,1.57c0.03-0.02,0.06-0.04,0.09-0.07c-0.29-0.54-0.58-1.07-0.87-1.61c0.01-0.01,0.04-0.02,0.05-0.03
		c0.81,0.88,1.62,1.76,2.44,2.64c0.01-0.01,0.02-0.01,0.04-0.02c-0.38-0.72-0.76-1.43-1.15-2.14c0.01-0.01,0.03-0.02,0.04-0.04
		c0.38,0.36,0.76,0.72,1.14,1.07c0.01-0.01,0.04-0.02,0.05-0.03c-0.32-0.57-0.65-1.14-0.97-1.71c0.01-0.01,0.03-0.02,0.04-0.03
		c0.72,0.83,1.45,1.67,2.17,2.5c0.01-0.01,0.04-0.01,0.05-0.03c-0.23-0.68-0.45-1.35-0.68-2.03c0.01-0.01,0.04-0.02,0.05-0.04
		l1.5,1.81c0.01-0.01,0.03-0.02,0.04-0.03c-0.37-0.61-0.75-1.22-1.12-1.82c0.01-0.01,0.02-0.03,0.03-0.04
		c0.49,0.37,0.98,0.76,1.47,1.14c0.01-0.01,0.03-0.02,0.04-0.04c-0.26-0.39-0.51-0.79-0.77-1.18c0.01-0.01,0.02-0.02,0.04-0.04
		c0.65,0.54,1.29,1.07,1.93,1.61c0.01-0.01,0.03-0.02,0.04-0.03c-0.19-0.38-0.39-0.76-0.58-1.15c0.01-0.01,0.02-0.02,0.03-0.04
		c0.52,0.23,1.03,0.46,1.56,0.69c0.01-0.02,0.01-0.04,0.03-0.06c-0.29-0.22-0.59-0.45-0.93-0.71h2.08c0-0.01,0.01-0.03,0.01-0.04
		c-0.39-0.12-0.78-0.25-1.17-0.35c-1.72-0.46-3.43-0.93-5.15-1.33c-1.99-0.46-4.01-0.71-6.06-0.6c-0.35,0.01-0.68,0.07-1.03,0.1
		c-0.08,0.01-0.2,0-0.24-0.04c-0.43-0.44-0.83-0.89-1.21-1.37c0.74,0.38,1.48,0.77,2.22,1.15c0.01-0.01,0.02-0.03,0.03-0.04
		c-0.7-0.54-1.39-1.08-2.1-1.62c0.01-0.02,0.02-0.04,0.03-0.06c0.98,0.37,1.97,0.75,2.95,1.12c0.01-0.01,0.02-0.03,0.03-0.04
		c-0.52-0.46-1.04-0.92-1.56-1.38c0.01-0.02,0.02-0.04,0.03-0.05c0.87,0.36,1.75,0.73,2.63,1.09c0.01-0.02,0.02-0.04,0.03-0.05
		c-0.66-0.47-1.32-0.95-1.98-1.42c0.01-0.02,0.02-0.04,0.03-0.06c0.92,0.29,1.83,0.59,2.75,0.89c0.01-0.01,0.01-0.02,0.01-0.04
		l-2.47-1.12c0.01-0.02,0.01-0.04,0.01-0.06c1.09,0.23,2.19,0.46,3.28,0.68c0.01-0.01,0.01-0.03,0.02-0.05
		c-0.9-0.32-1.78-0.64-2.68-0.96c0.01-0.01,0.01-0.04,0.01-0.05c0.93,0.07,1.86,0.15,2.79,0.24c0.01-0.02,0.01-0.04,0.01-0.05
		c-0.76-0.16-1.52-0.32-2.28-0.48c0-0.02,0-0.04-0.01-0.07c1.17-0.32,2.33-0.63,3.49-0.94v-0.04c-0.04-0.01-0.07-0.02-0.11-0.02
		c-1.78,0.04-3.54,0.21-5.26,0.73c-1.2,0.37-2.33,0.9-3.36,1.62c-0.06,0.04-0.13,0.07-0.19,0.12c-0.38,0.28-0.38,0.28-0.74-0.03
		c-0.2-0.17-0.4-0.34-0.59-0.51c0.01-0.01,0.01-0.03,0.03-0.05c0.4,0.18,0.81,0.37,1.21,0.55c0.01-0.01,0.02-0.03,0.03-0.04
		c-0.26-0.29-0.51-0.58-0.77-0.87c0.01-0.01,0.02-0.03,0.03-0.04c0.24,0.12,0.47,0.23,0.7,0.34c0.01-0.01,0.02-0.03,0.03-0.04
		c-0.18-0.13-0.36-0.26-0.54-0.39c0.01-0.01,0.01-0.04,0.02-0.06c0.4,0.09,0.8,0.18,1.2,0.26c0.01-0.01,0.01-0.03,0.02-0.04
		c-0.26-0.12-0.53-0.25-0.79-0.38c0-0.02,0-0.04,0.01-0.06c0.42-0.04,0.84-0.08,1.26-0.12c0.01-0.01,0.01-0.03,0.01-0.04
		c-0.29-0.1-0.57-0.2-0.85-0.29c0.01-0.01,0.01-0.04,0.01-0.05c0.14,0.02,0.29,0.04,0.43,0.06c0-0.01,0.01-0.03,0.01-0.04
		c-0.14-0.06-0.27-0.12-0.41-0.19c0-0.01,0.01-0.02,0.01-0.04h0.98c0-0.02,0-0.04,0.01-0.07c-0.28-0.05-0.56-0.1-0.83-0.16
		c-0.01-0.01-0.01-0.04-0.01-0.06c0.39-0.14,0.78-0.29,1.16-0.43c0-0.02-0.01-0.04-0.01-0.06c-0.34,0.07-0.68,0.12-1.02,0.21
		c-2.31,0.59-3.84,2.08-4.82,4.2c-0.35,0.75-0.62,1.53-0.86,2.31c-0.23-0.79-0.51-1.56-0.86-2.31c-0.98-2.11-2.51-3.61-4.82-4.2
		c-0.34-0.08-0.68-0.14-1.02-0.21C135,46.52,135,46.54,135,46.56c0.38,0.15,0.77,0.29,1.16,0.43c0,0.02-0.01,0.04-0.01,0.06
		c-0.27,0.06-0.55,0.11-0.83,0.16c0.01,0.02,0.01,0.04,0.01,0.07h0.98c0,0.01,0.01,0.02,0.01,0.04c-0.14,0.07-0.27,0.13-0.41,0.19
		c0,0.01,0.01,0.03,0.01,0.04c0.15-0.01,0.29-0.04,0.43-0.06c0.01,0.01,0.01,0.04,0.01,0.05c-0.29,0.1-0.57,0.2-0.85,0.29
		c0.01,0.01,0.01,0.03,0.01,0.04c0.42,0.04,0.84,0.08,1.26,0.12c0.01,0.01,0.01,0.04,0.01,0.06c-0.26,0.13-0.53,0.26-0.79,0.38
		c0.01,0.01,0.01,0.03,0.02,0.04c0.4-0.09,0.8-0.18,1.2-0.26c0.01,0.02,0.01,0.04,0.02,0.06c-0.18,0.13-0.36,0.26-0.54,0.39
		c0.01,0.01,0.01,0.03,0.03,0.04c0.24-0.12,0.47-0.23,0.7-0.34c0.01,0.01,0.02,0.03,0.03,0.04c-0.26,0.29-0.51,0.58-0.77,0.87
		c0.01,0.01,0.02,0.02,0.03,0.04c0.4-0.18,0.81-0.37,1.21-0.55c0.01,0.02,0.02,0.04,0.03,0.05c-0.19,0.17-0.39,0.34-0.59,0.51
		c-0.36,0.31-0.36,0.31-0.74,0.03c-0.06-0.04-0.13-0.07-0.19-0.12c-1.03-0.72-2.16-1.26-3.36-1.62c-1.72-0.52-3.48-0.69-5.26-0.73
		c-0.04,0-0.07,0.01-0.11,0.02v0.04c1.16,0.31,2.32,0.62,3.49,0.94c-0.01,0.02-0.01,0.04-0.01,0.07c-0.76,0.16-1.52,0.32-2.28,0.48
		c0.01,0.01,0.01,0.03,0.01,0.05c0.92-0.08,1.86-0.16,2.79-0.24c0,0.01,0.01,0.04,0.01,0.05c-0.9,0.32-1.78,0.65-2.68,0.96
		c0.01,0.02,0.01,0.04,0.02,0.05c1.09-0.23,2.19-0.46,3.28-0.68c0.01,0.02,0.01,0.04,0.01,0.06l-2.47,1.12
		c0,0.01,0.01,0.02,0.01,0.04c0.92-0.29,1.83-0.59,2.75-0.89c0.01,0.02,0.01,0.04,0.03,0.06c-0.66,0.47-1.32,0.95-1.98,1.42
		c0.01,0.01,0.02,0.03,0.03,0.05c0.87-0.37,1.75-0.73,2.63-1.09c0.01,0.01,0.02,0.03,0.03,0.05c-0.52,0.46-1.04,0.92-1.56,1.38
		c0.01,0.01,0.02,0.02,0.03,0.04c0.98-0.37,1.97-0.75,2.95-1.12c0.01,0.01,0.01,0.04,0.03,0.06c-0.7,0.54-1.4,1.08-2.1,1.62
		c0.01,0.01,0.02,0.03,0.03,0.04c0.74-0.38,1.48-0.77,2.22-1.15c-0.38,0.48-0.79,0.93-1.21,1.37c-0.04,0.04-0.16,0.05-0.24,0.04
		c-0.34-0.03-0.68-0.09-1.03-0.1c-2.06-0.11-4.07,0.14-6.06,0.6c-1.72,0.4-3.44,0.87-5.15,1.33c-0.39,0.1-0.78,0.23-1.17,0.35
		c0,0.01,0.01,0.03,0.01,0.04h2.08c-0.34,0.26-0.64,0.49-0.93,0.71c0.01,0.02,0.02,0.04,0.03,0.06c0.52-0.23,1.03-0.46,1.56-0.69
		c0.01,0.01,0.02,0.03,0.03,0.04c-0.19,0.38-0.39,0.76-0.58,1.15c0.01,0.01,0.03,0.01,0.04,0.03c0.64-0.54,1.28-1.08,1.93-1.61
		c0.01,0.01,0.02,0.02,0.04,0.04c-0.26,0.4-0.51,0.79-0.77,1.18c0.01,0.01,0.03,0.03,0.04,0.04c0.48-0.38,0.98-0.76,1.47-1.14
		c0.01,0.01,0.02,0.02,0.03,0.04c-0.37,0.6-0.75,1.21-1.12,1.82c0.01,0.01,0.03,0.01,0.04,0.03l1.5-1.81
		c0.01,0.01,0.04,0.02,0.05,0.04c-0.23,0.68-0.45,1.35-0.68,2.03c0.01,0.01,0.04,0.02,0.05,0.03c0.72-0.84,1.45-1.67,2.17-2.5
		c0.01,0.01,0.03,0.02,0.04,0.03c-0.32,0.57-0.65,1.14-0.97,1.71c0.01,0.01,0.04,0.02,0.05,0.03c0.37-0.35,0.76-0.71,1.14-1.07
		c0.01,0.01,0.02,0.02,0.04,0.04c-0.38,0.71-0.76,1.42-1.15,2.14c0.01,0.01,0.03,0.01,0.04,0.02c0.81-0.87,1.63-1.75,2.44-2.64
		c0.01,0.01,0.04,0.02,0.05,0.03c-0.29,0.54-0.58,1.07-0.87,1.61c0.03,0.03,0.06,0.05,0.09,0.07c0.49-0.52,0.98-1.05,1.48-1.57
		c0.02,0.01,0.04,0.04,0.06,0.05c-0.25,0.39-0.5,0.79-0.76,1.17c0.02,0.01,0.04,0.03,0.07,0.04c0.45-0.45,0.91-0.9,1.34-1.31
		c-0.37,0.55-0.78,1.15-1.18,1.74c0.01,0.01,0.03,0.02,0.04,0.04c0.68-0.62,1.34-1.25,2.02-1.87c0.01,0.01,0.03,0.02,0.04,0.04
		c-0.55,0.65-1.09,1.3-1.64,1.95c0.01,0.01,0.03,0.03,0.04,0.04c0.79-0.59,1.59-1.17,2.38-1.76c0.01,0.01,0.03,0.03,0.04,0.04
		c-0.33,0.51-0.66,1.04-0.99,1.55c0.02,0.02,0.04,0.04,0.07,0.07c0.49-0.51,0.98-1.03,1.48-1.53c0.01,0.01,0.02,0.02,0.04,0.03
		c-0.26,0.52-0.51,1.03-0.77,1.55c0.01,0.01,0.02,0.02,0.04,0.03c0.63-0.51,1.27-1.03,1.91-1.54c-0.01,0.1-0.07,0.16-0.11,0.23
		c-0.32,0.4-0.63,0.79-0.95,1.19c0.62-0.48,1.23-0.95,1.85-1.44c0.05-0.04,0.1-0.07,0.18-0.09c-0.03,0.04-0.04,0.08-0.07,0.12
		c-0.34,0.4-0.68,0.82-1.02,1.22c-0.1,0.1-0.24,0.18-0.37,0.2c-0.18,0.04-0.37,0.01-0.57,0.01c-0.12,0.04-0.24,0.1-0.35,0.12
		c-0.28,0.06-0.56,0.1-0.84,0.16c-1.39,0.3-2.71,0.76-3.93,1.5c-0.71,0.43-1.31,0.93-1.82,1.47c-0.16-0.03-0.31-0.06-0.47-0.09
		c0-0.02-0.01-0.03-0.01-0.05c0.33-0.12,0.66-0.25,0.98-0.37c0-0.02-0.01-0.04-0.01-0.05c-0.29,0.06-0.58,0.11-0.87,0.18
		c-1.96,0.5-3.24,1.76-4.08,3.55c-0.46,0.99-0.77,2.03-1.03,3.09c-0.02,0.06-0.03,0.12-0.05,0.18c-0.01,0.03-0.02,0.06-0.06,0.08
		c0.02-0.28,0.03-0.56,0.05-0.85c0.09-1.28,0.12-2.57-0.02-3.85c-0.08-0.74-0.19-1.49-0.56-2.15c-0.14-0.25-0.36-0.45-0.55-0.67
		c-0.05-0.06-0.15-0.08-0.24-0.11c0.31,0.6,0.52,1.22,0.53,1.95c-0.64-0.44-1.23-0.85-1.83-1.26c-0.01,0.01-0.02,0.02-0.03,0.03
		c0.53,0.54,1.06,1.09,1.59,1.63c-0.01,0.01-0.02,0.03-0.03,0.04c-0.71-0.34-1.43-0.68-2.14-1.02c-0.01,0.02-0.02,0.03-0.03,0.05
		c0.67,0.54,1.33,1.07,1.99,1.61c-0.01,0.02-0.02,0.03-0.02,0.05c-0.43-0.13-0.87-0.27-1.3-0.4c0,0.01-0.01,0.02-0.01,0.03
		c0.53,0.42,1.06,0.83,1.58,1.25c-0.01,0.02-0.02,0.03-0.02,0.05c-0.36-0.12-0.73-0.24-1.09-0.37c-0.01,0.01-0.02,0.03-0.02,0.04
		c0.42,0.4,0.84,0.81,1.26,1.21c-0.01,0.02-0.01,0.03-0.02,0.05c-0.35-0.09-0.69-0.18-1.04-0.27c-0.01,0.01-0.01,0.03-0.02,0.04
		c0.43,0.38,0.85,0.75,1.28,1.13c-0.01,0.01-0.01,0.02-0.02,0.03c-0.28-0.11-0.57-0.22-0.85-0.32c-0.01,0.01-0.02,0.03-0.03,0.04
		c0.26,0.27,0.53,0.54,0.79,0.81c-0.31-0.01-0.55-0.06-0.72-0.37c-1-1.81-2.26-3.42-3.9-4.71c-1.05-0.82-2.2-1.45-3.48-1.8
		c-0.04-0.01-0.08-0.01-0.13,0c0.77,0.51,1.62,0.93,2,1.88c-0.68-0.23-1.35-0.45-2.09-0.3c0.82,0.14,1.62,0.31,2.39,0.64
		c-0.74,0.02-1.48,0.03-2.21,0.2c0.76,0.03,1.5,0.13,2.24,0.38c-0.45,0.13-0.9,0.26-1.35,0.38c0,0.02,0,0.04,0.01,0.05
		c0.53-0.05,1.06-0.11,1.59-0.16c0.01,0.02,0.01,0.03,0.02,0.04c-0.54,0.25-1.08,0.5-1.62,0.75c0,0.01,0.01,0.02,0.01,0.04
		c0.65-0.1,1.3-0.19,1.95-0.29c0,0.02,0.01,0.03,0.01,0.05c-0.49,0.21-0.99,0.43-1.48,0.64c0,0.01,0.01,0.02,0.01,0.04
		c0.79-0.11,1.57-0.22,2.36-0.33c0.01,0.01,0.01,0.03,0.02,0.04c-0.05,0.03-0.1,0.06-0.15,0.09c-0.44,0.24-0.88,0.47-1.32,0.71
		c-0.07,0.04-0.12,0.1-0.18,0.15c0,0,0,0,0,0c-0.38-0.08-0.76-0.17-1.15-0.24c-1.46-0.26-2.89-0.09-4.27,0.44
		c-0.53,0.2-1.03,0.47-1.55,0.72c-0.04,0.02-0.08,0.05-0.11,0.11c0.56-0.17,1.11-0.34,1.67-0.52c0.01,0.01,0.02,0.03,0.03,0.04
		c-0.27,0.31-0.55,0.61-0.82,0.92c0.01,0.01,0.02,0.02,0.03,0.03c0.37-0.29,0.75-0.59,1.12-0.88c0.01,0.01,0.02,0.02,0.04,0.03
		c-0.11,0.21-0.23,0.43-0.34,0.64c0.01,0.01,0.03,0.02,0.04,0.03c0.18-0.2,0.36-0.41,0.54-0.61c0.01,0.01,0.02,0.02,0.03,0.02
		c-0.25,0.38-0.5,0.76-0.76,1.13c0.01,0.01,0.02,0.02,0.04,0.03c0.46-0.29,0.92-0.58,1.38-0.87c0.01,0.01,0.03,0.02,0.04,0.03
		c-0.2,0.39-0.41,0.79-0.61,1.18c0.01,0.01,0.02,0.02,0.03,0.03c0.37-0.45,0.75-0.91,1.12-1.36c0.01,0.01,0.03,0.01,0.04,0.02
		c-0.11,0.36-0.23,0.72-0.34,1.08c0.01,0.01,0.03,0.01,0.04,0.02c0.19-0.37,0.38-0.74,0.57-1.12c0.02,0,0.03,0.01,0.05,0.01
		c-0.04,0.5-0.08,1-0.12,1.5c0.02,0.01,0.03,0.01,0.05,0.02c0.27-0.51,0.55-1.03,0.82-1.54c0.02,0.01,0.04,0.01,0.06,0.02
		c-0.13,0.57-0.25,1.14-0.38,1.7c0.02,0.01,0.03,0.01,0.05,0.02c0.32-0.58,0.63-1.15,0.95-1.73c0.01,0.01,0.03,0.01,0.04,0.02
		c-0.14,0.4-0.28,0.79-0.42,1.19c0.01,0.01,0.03,0.02,0.04,0.03c0.34-0.38,0.69-0.76,1.03-1.14c0.01,0.01,0.02,0.02,0.04,0.03
		c-0.24,0.46-0.48,0.93-0.72,1.39c0.01,0.01,0.02,0.02,0.03,0.03c0.45-0.34,0.91-0.68,1.36-1.02c0.01,0.01,0.02,0.02,0.03,0.03
		c-0.48,0.52-0.96,1.04-1.44,1.56c0.01,0.01,0.02,0.03,0.03,0.04c0.79-0.49,1.58-0.97,2.37-1.46c0.01,0.01,0.02,0.03,0.03,0.04
		c-0.51,0.43-1.02,0.87-1.54,1.3c0.01,0.01,0.02,0.02,0.02,0.03c0.62-0.32,1.24-0.64,1.86-0.96c0.01,0.01,0.02,0.03,0.03,0.04
		c-0.37,0.28-0.75,0.56-1.12,0.84c0.01,0.02,0.02,0.03,0.02,0.05c0.61-0.28,1.23-0.57,1.84-0.85c0.01,0.01,0.02,0.03,0.03,0.04
		c-0.39,0.45-0.78,0.9-1.17,1.35c0.01,0.01,0.02,0.03,0.03,0.04c0.66-0.28,1.32-0.55,1.98-0.83c0.01,0.01,0.02,0.03,0.03,0.04
		c-0.39,0.31-0.78,0.63-1.17,0.94c0.01,0.01,0.01,0.03,0.02,0.04c0.6-0.23,1.2-0.46,1.81-0.69c0.01,0.01,0.02,0.03,0.03,0.04
		c-0.28,0.28-0.55,0.57-0.83,0.85c0.01,0.01,0.02,0.03,0.03,0.04c0.44-0.21,0.88-0.41,1.32-0.62c0.01,0.01,0.03,0.02,0.04,0.03
		c-0.1,0.15-0.22,0.29-0.31,0.45c-0.1,0.17-0.23,0.23-0.43,0.23c-2.17,0.02-4.25,0.43-6.2,1.41c-0.35,0.18-0.69,0.37-1.02,0.57
		c-0.28-0.13-0.57-0.26-0.85-0.4c0-0.01,0.01-0.02,0.01-0.03c0.4,0.04,0.79,0.08,1.19,0.12c0-0.01,0-0.03,0-0.04
		c-0.33-0.1-0.67-0.19-1-0.29c0.55-0.18,1.1-0.26,1.67-0.28c-0.54-0.12-1.09-0.13-1.65-0.15c0.57-0.24,1.17-0.37,1.78-0.48
		c-0.55-0.11-1.05,0.06-1.56,0.23c0.28-0.71,0.91-1.02,1.49-1.4c-0.04-0.01-0.07-0.01-0.1,0c-0.96,0.27-1.82,0.73-2.6,1.34
		c-1.22,0.96-2.16,2.16-2.91,3.51c-0.13,0.23-0.3,0.27-0.54,0.28c0.2-0.2,0.39-0.4,0.59-0.6c-0.01-0.01-0.01-0.02-0.02-0.03
		c-0.21,0.08-0.42,0.16-0.64,0.24c-0.01-0.01-0.01-0.02-0.01-0.03c0.32-0.28,0.64-0.56,0.96-0.84c-0.01-0.01-0.01-0.02-0.02-0.03
		c-0.26,0.07-0.52,0.13-0.78,0.2c-0.01-0.01-0.01-0.02-0.02-0.04c0.31-0.3,0.63-0.6,0.94-0.9c-0.01-0.01-0.01-0.02-0.02-0.03
		c-0.27,0.09-0.54,0.18-0.81,0.27c-0.01-0.01-0.01-0.02-0.02-0.04c0.39-0.31,0.79-0.62,1.18-0.93c0-0.01-0.01-0.01-0.01-0.02
		c-0.32,0.1-0.65,0.2-0.97,0.3c-0.01-0.01-0.01-0.02-0.02-0.04c0.5-0.4,0.99-0.8,1.49-1.2c-0.01-0.01-0.01-0.02-0.02-0.04
		c-0.53,0.25-1.07,0.51-1.6,0.76c-0.01-0.01-0.01-0.02-0.02-0.03c0.39-0.41,0.79-0.81,1.18-1.22c-0.01-0.01-0.01-0.01-0.02-0.02
		c-0.45,0.31-0.89,0.61-1.37,0.94c0.01-0.55,0.16-1.01,0.4-1.46c-0.07,0.02-0.14,0.04-0.18,0.08c-0.14,0.16-0.31,0.31-0.41,0.5
		c-0.28,0.5-0.36,1.05-0.42,1.61c-0.1,0.96-0.08,1.91-0.01,2.87c0.01,0.21,0.03,0.42,0.04,0.63c-0.03-0.02-0.04-0.04-0.04-0.06
		c-0.01-0.05-0.03-0.09-0.04-0.14c-0.2-0.79-0.43-1.57-0.77-2.31c-0.62-1.33-1.58-2.28-3.04-2.65c-0.21-0.05-0.43-0.09-0.65-0.13
		c0,0.01-0.01,0.03-0.01,0.04c0.24,0.09,0.49,0.18,0.73,0.27c0,0.01-0.01,0.02-0.01,0.04c-0.17,0.03-0.35,0.07-0.52,0.1
		c0,0.01,0,0.03,0,0.04c0.21,0,0.41,0,0.62,0c0,0.01,0,0.02,0,0.02c-0.09,0.04-0.17,0.08-0.26,0.12c0,0.01,0,0.02,0.01,0.03
		c0.09-0.01,0.18-0.03,0.27-0.04c0,0.01,0,0.02,0.01,0.03c-0.18,0.06-0.36,0.12-0.53,0.19c0,0.01,0,0.02,0.01,0.03
		c0.27,0.02,0.53,0.05,0.8,0.07c0,0.01,0,0.03,0.01,0.04c-0.17,0.08-0.33,0.16-0.5,0.24c0,0.01,0.01,0.02,0.01,0.03
		c0.25-0.06,0.5-0.11,0.76-0.17c0,0.01,0.01,0.03,0.01,0.04c-0.11,0.08-0.23,0.16-0.34,0.24c0.01,0.01,0.01,0.02,0.02,0.03
		c0.15-0.07,0.3-0.14,0.45-0.22c0.01,0.01,0.01,0.02,0.02,0.03c-0.16,0.18-0.32,0.37-0.49,0.55c0.01,0.01,0.01,0.01,0.02,0.02
		c0.25-0.11,0.51-0.23,0.76-0.34c0.01,0.01,0.01,0.02,0.02,0.03c-0.12,0.11-0.25,0.21-0.37,0.32c-0.23,0.2-0.23,0.19-0.47,0.02
		c-0.04-0.03-0.08-0.05-0.12-0.07c-0.65-0.45-1.36-0.79-2.12-1.02c-1.08-0.33-2.19-0.44-3.31-0.46c-0.02,0-0.05,0.01-0.07,0.01
		c0,0.01,0,0.02,0,0.03c0.73,0.2,1.47,0.4,2.2,0.59c0,0.01,0,0.03,0,0.04c-0.48,0.1-0.96,0.2-1.44,0.31c0,0.01,0,0.02,0.01,0.03
		c0.59-0.05,1.17-0.1,1.76-0.15c0,0.01,0.01,0.02,0.01,0.03c-0.56,0.2-1.13,0.41-1.69,0.61c0,0.01,0.01,0.02,0.01,0.03
		c0.69-0.14,1.38-0.29,2.07-0.43c0,0.01,0.01,0.02,0.01,0.03c-0.52,0.24-1.04,0.47-1.56,0.71c0,0.01,0.01,0.02,0.01,0.03
		c0.58-0.19,1.15-0.37,1.73-0.56c0.01,0.01,0.01,0.03,0.02,0.04c-0.42,0.3-0.83,0.59-1.25,0.89c0.01,0.01,0.01,0.02,0.02,0.03
		c0.55-0.23,1.11-0.46,1.66-0.69c0.01,0.01,0.01,0.02,0.02,0.03c-0.33,0.29-0.65,0.58-0.98,0.87c0.01,0.01,0.01,0.02,0.02,0.03
		c0.62-0.24,1.24-0.47,1.86-0.71c0.01,0.01,0.01,0.02,0.02,0.04c-0.44,0.34-0.88,0.68-1.32,1.02c0.01,0.01,0.01,0.02,0.02,0.03
		c0.47-0.24,0.93-0.49,1.4-0.73c-0.24,0.31-0.5,0.59-0.76,0.86c-0.03,0.03-0.1,0.03-0.16,0.03c-0.22-0.02-0.43-0.05-0.65-0.06
		c-1.29-0.07-2.57,0.09-3.82,0.38c-1.09,0.25-2.17,0.55-3.25,0.84c-0.25,0.07-0.49,0.15-0.74,0.22c0,0.01,0,0.02,0.01,0.03
		c0.42,0,0.85,0,1.31,0c-0.22,0.17-0.4,0.31-0.58,0.45c0.01,0.01,0.01,0.02,0.02,0.04c0.33-0.14,0.65-0.29,0.98-0.43
		c0.01,0.01,0.01,0.02,0.02,0.02c-0.12,0.24-0.25,0.48-0.37,0.72c0.01,0.01,0.02,0.01,0.03,0.02c0.41-0.34,0.81-0.68,1.22-1.02
		c0.01,0.01,0.02,0.02,0.02,0.02c-0.16,0.25-0.32,0.5-0.49,0.75c0.01,0.01,0.02,0.01,0.02,0.02c0.31-0.24,0.62-0.48,0.93-0.72
		c0.01,0.01,0.01,0.02,0.02,0.02c-0.24,0.38-0.47,0.77-0.71,1.15c0.01,0.01,0.02,0.01,0.03,0.02c0.31-0.38,0.63-0.76,0.94-1.14
		c0.01,0.01,0.02,0.01,0.03,0.02c-0.14,0.43-0.28,0.85-0.43,1.28c0.01,0.01,0.02,0.01,0.03,0.02c0.45-0.53,0.91-1.05,1.36-1.58
		c0.01,0.01,0.02,0.01,0.03,0.02c-0.2,0.36-0.41,0.72-0.61,1.08c0.01,0.01,0.02,0.01,0.03,0.02c0.24-0.23,0.48-0.45,0.72-0.68
		c0.01,0.01,0.02,0.02,0.03,0.02c-0.24,0.45-0.48,0.9-0.72,1.35c0.01,0.01,0.02,0.01,0.03,0.02c0.51-0.56,1.02-1.11,1.54-1.67
		c0.01,0.01,0.02,0.01,0.03,0.02c-0.18,0.34-0.37,0.68-0.55,1.01c0.02,0.01,0.04,0.03,0.05,0.04c0.31-0.33,0.62-0.66,0.93-0.99
		c0.01,0.01,0.03,0.02,0.04,0.03c-0.16,0.25-0.32,0.49-0.48,0.74c0.01,0.01,0.03,0.02,0.04,0.03c0.29-0.28,0.58-0.57,0.84-0.83
		c-0.24,0.35-0.49,0.72-0.74,1.1c0.01,0.01,0.02,0.02,0.03,0.02c0.42-0.39,0.85-0.79,1.27-1.18c0.01,0.01,0.02,0.02,0.03,0.02
		c-0.34,0.41-0.69,0.82-1.03,1.23c0.01,0.01,0.02,0.02,0.02,0.03c0.5-0.37,1-0.74,1.5-1.11c0.01,0.01,0.02,0.02,0.03,0.02
		c-0.21,0.32-0.42,0.65-0.63,0.97c0.02,0.01,0.03,0.03,0.05,0.04c0.31-0.32,0.62-0.64,0.93-0.97c0.01,0.01,0.01,0.01,0.02,0.02
		c-0.16,0.33-0.32,0.65-0.49,0.98c0.01,0.01,0.02,0.01,0.02,0.02c0.4-0.32,0.8-0.65,1.2-0.97c-0.01,0.06-0.04,0.1-0.07,0.14
		c-0.2,0.25-0.4,0.5-0.6,0.75c0.39-0.3,0.78-0.61,1.17-0.91c0.03-0.02,0.06-0.05,0.12-0.06c-0.02,0.02-0.03,0.05-0.05,0.07
		c-0.21,0.26-0.42,0.52-0.64,0.77c-0.06,0.06-0.15,0.11-0.23,0.13c-0.12,0.02-0.24,0.01-0.36,0.01c-0.07,0.03-0.15,0.06-0.22,0.08
		c-0.17,0.04-0.35,0.06-0.53,0.1c-0.87,0.19-1.71,0.48-2.47,0.95c-1.52,0.93-2.33,2.24-2.25,4.06c0.01,0.18,0.03,0.37,0.05,0.55
		c0.01,0,0.03,0,0.04,0c0.11-0.66,0.21-1.32,0.32-1.98c0.01,0,0.03,0,0.04,0c0.04,0.35,0.07,0.69,0.11,1.04c0.01,0,0.02,0,0.03,0
		c0.07-0.39,0.14-0.79,0.21-1.18c0.01,0,0.02,0,0.04,0c0.04,0.28,0.08,0.56,0.12,0.83c0.01,0,0.02,0,0.03,0
		c0.07-0.38,0.13-0.75,0.2-1.13c0.01,0,0.03,0,0.04,0c0.03,0.28,0.06,0.57,0.09,0.85c0.01,0,0.02,0,0.04,0
		c0.07-0.35,0.15-0.71,0.22-1.06c0.01,0,0.02,0,0.03,0c0.02,0.29,0.03,0.58,0.05,0.88c0.01,0,0.02,0,0.02,0
		c0.05-0.39,0.09-0.77,0.14-1.16c0.01,0,0.02,0,0.04,0c0.03,0.29,0.05,0.57,0.08,0.86c0.01,0,0.03,0,0.04,0
		c0.07-0.41,0.14-0.83,0.21-1.24c0.01,0,0.03,0,0.04,0c0.04,0.27,0.09,0.55,0.13,0.82c0.01,0,0.03,0,0.04,0
		c0.05-0.31,0.11-0.62,0.16-0.92c0.01,0,0.02,0,0.03,0c0.02,0.26,0.04,0.52,0.06,0.79c0.01,0,0.02,0,0.03,0
		c0.07-0.35,0.14-0.71,0.22-1.06c0.01,0,0.01,0,0.02,0c0,0.19,0,0.38,0,0.56c0.01,0,0.01,0,0.02,0c0.09-0.29,0.17-0.59,0.26-0.88
		c0.01,0,0.02,0.01,0.03,0.01c0.02,0.22,0.03,0.43,0.05,0.65c0.01,0,0.02,0,0.03,0c0.08-0.3,0.17-0.59,0.25-0.89
		c0.02,0,0.04,0.01,0.06,0.01c0,0.23,0,0.45,0,0.68c0.01,0,0.03,0,0.04,0c0.13-0.35,0.26-0.7,0.39-1.06c0.01,0,0.02,0.01,0.02,0.01
		c0,0.26,0,0.53,0,0.79c0.01,0,0.01,0,0.02,0.01c0.12-0.36,0.24-0.73,0.36-1.09c0.02,0,0.04,0.01,0.06,0.01c0,0.26,0,0.52,0,0.78
		c0.02,0,0.03,0,0.04,0c0.12-0.39,0.24-0.78,0.36-1.17c0.01,0,0.02,0,0.04,0c0.02,0.24,0.03,0.49,0.05,0.73c0.01,0,0.02,0,0.03,0.01
		c0.11-0.27,0.22-0.54,0.32-0.8c0.01,0,0.02,0,0.04,0.01c0.03,0.23,0.06,0.47,0.09,0.7c0.01,0,0.02,0,0.03,0
		c0.08-0.24,0.16-0.48,0.24-0.73c0.01,0,0.03,0,0.04,0c0.05,0.22,0.09,0.44,0.14,0.66c0.01,0,0.02,0,0.04,0
		c0.06-0.22,0.13-0.44,0.19-0.65c0.01,0,0.02,0,0.03,0c0.05,0.19,0.09,0.39,0.15,0.61c0.12-0.19,0.23-0.35,0.33-0.51
		c0.02,0.01,0.03,0.01,0.05,0.02c0,0.1,0,0.2,0,0.3c0.01,0,0.02,0.01,0.03,0.01c0.11-0.13,0.21-0.26,0.35-0.42c0,0.16,0,0.28,0,0.42
		c0.08-0.08,0.14-0.15,0.23-0.24c0.02,0.33-0.02,0.39-0.27,0.49c-0.97,0.4-1.87,0.92-2.73,1.52c-2.07,1.46-3.83,3.24-5.46,5.16
		c-0.02,0.02-0.04,0.05-0.05,0.08C91,79.99,91,79.99,91.01,80c0.62-0.45,1.23-0.91,1.85-1.36c0.01,0.01,0.02,0.02,0.03,0.02
		c-0.15,0.38-0.3,0.76-0.46,1.14c0.01,0.01,0.02,0.01,0.03,0.02c0.43-0.59,0.85-1.18,1.28-1.77c0.01,0.01,0.02,0.01,0.03,0.02
		c-0.16,0.51-0.32,1.01-0.48,1.52c0.01,0,0.02,0.01,0.03,0.01c0.34-0.64,0.68-1.27,1.02-1.91c0.01,0.01,0.02,0.01,0.04,0.02
		c-0.16,0.46-0.32,0.92-0.48,1.38c0.01,0,0.02,0.01,0.03,0.01c0.44-0.73,0.87-1.45,1.31-2.18c0.01,0,0.02,0.01,0.03,0.01
		c-0.18,0.56-0.36,1.13-0.54,1.69c0.01,0,0.02,0.01,0.03,0.01c0.53-0.81,1.07-1.63,1.6-2.44c0.01,0.01,0.02,0.01,0.03,0.02
		c-0.31,0.64-0.62,1.29-0.92,1.93c0.01,0.01,0.02,0.01,0.03,0.02c0.46-0.69,0.93-1.38,1.39-2.07c0.01,0.01,0.02,0.01,0.03,0.02
		c-0.2,0.44-0.36,0.89-0.6,1.31c-0.6,1.04-1.06,2.13-1.44,3.26c-0.12,0.36-0.16,0.7-0.03,1.07c0.1,0.27,0.16,0.56,0.23,0.84
		c0,0,0.01,0,0.01,0c0-0.43,0-0.86,0-1.32c0.16,0.33,0.31,0.62,0.45,0.92c0.01-0.01,0.02-0.01,0.03-0.01
		c-0.04-0.36-0.09-0.71-0.13-1.07c0.01,0,0.02-0.01,0.04-0.01c0.1,0.25,0.19,0.5,0.29,0.75c0.01,0,0.03-0.01,0.04-0.01
		c-0.02-0.49-0.04-0.98-0.06-1.47c0.01,0,0.03,0,0.04-0.01c0.11,0.25,0.22,0.51,0.33,0.76c0.01,0,0.02-0.01,0.03-0.01
		c-0.04-0.36-0.07-0.73-0.11-1.09c0.01,0,0.03,0,0.04,0c0.15,0.48,0.3,0.96,0.46,1.45c0.01,0,0.02-0.01,0.03-0.01
		c-0.08-0.53-0.17-1.06-0.25-1.59c0.01,0,0.02-0.01,0.04-0.01c0.14,0.36,0.29,0.72,0.43,1.07c0.01,0,0.02-0.01,0.03-0.01
		c-0.07-0.59-0.14-1.18-0.21-1.78c0.01,0,0.03,0,0.04-0.01c0.2,0.44,0.4,0.88,0.6,1.32c0.01,0,0.01-0.01,0.02-0.01
		c0-0.42,0-0.84,0-1.25c0.01,0,0.01,0,0.02-0.01c0.15,0.43,0.29,0.86,0.44,1.29c0.01,0,0.02-0.01,0.03-0.01
		c-0.1-0.78-0.2-1.55-0.3-2.33c0.01,0,0.03-0.01,0.04-0.01c0.14,0.28,0.29,0.56,0.43,0.84c0.01,0,0.02-0.01,0.03-0.01
		c-0.03-0.41-0.06-0.81-0.1-1.21c0.01,0,0.03,0,0.04,0c0.07,0.2,0.13,0.4,0.2,0.6c0.01,0,0.02-0.01,0.04-0.01
		c-0.02-0.33-0.05-0.67-0.07-1c0.01,0,0.02,0,0.04-0.01c0.06,0.19,0.13,0.37,0.19,0.56c0.01,0,0.01-0.01,0.02-0.01
		c0-0.36,0-0.72,0-1.08c0.11,0.22,0.2,0.44,0.29,0.66c0.01,0.03,0,0.08-0.02,0.12c-0.54,1.3-0.78,2.66-0.83,4.06
		c-0.04,0.97,0,1.94,0,2.9c0,0.08,0.01,0.16,0.02,0.24c0.01,0,0.02,0,0.03,0c0.05-0.58,0.1-1.15,0.15-1.73c0.01,0,0.02,0,0.04,0
		c0.11,0.28,0.21,0.57,0.32,0.85c0.01,0,0.02-0.01,0.04-0.01c-0.05-0.6-0.09-1.2-0.14-1.8c0.01,0,0.03,0,0.04,0
		c0.09,0.38,0.17,0.76,0.26,1.14c0.01,0,0.02,0,0.03-0.01c-0.03-0.65-0.06-1.3-0.09-1.96c0.01,0,0.03-0.01,0.04-0.01
		c0.14,0.27,0.28,0.54,0.42,0.81c0.01,0,0.02-0.01,0.02-0.01c-0.1-0.52-0.19-1.04-0.29-1.56c0.01,0,0.02-0.01,0.03-0.01
		c0.11,0.24,0.22,0.49,0.32,0.73c0.01,0,0.02-0.01,0.03-0.01c-0.09-0.53-0.18-1.07-0.27-1.6c0.01,0,0.03-0.01,0.04-0.01
		c0.11,0.26,0.21,0.52,0.32,0.78c0.01,0,0.02-0.01,0.04-0.01c-0.06-0.51-0.11-1.02-0.17-1.54c0.01,0,0.02,0,0.03-0.01
		c0.09,0.27,0.18,0.54,0.27,0.8c0.02,0,0.04,0,0.06-0.01c0-0.62,0-1.24,0-1.86c0.02,0,0.03,0,0.05,0c0.07,0.3,0.13,0.59,0.2,0.89
		c0.02,0,0.03,0,0.05,0c0-0.53,0-1.06,0-1.58c0.02,0,0.04,0,0.05,0c0.07,0.3,0.13,0.61,0.2,0.91c0.01,0,0.02,0,0.04,0
		c0.04-0.35,0.08-0.7,0.12-1.04c0.01,0,0.02,0,0.03,0c0.01,0.19,0.03,0.38,0.04,0.57c0.01,0,0.02,0,0.04,0
		c0.09-0.48,0.18-0.95,0.27-1.43c0.01,0,0.02,0,0.04,0c0.09,0.18,0.18,0.35,0.27,0.53c0.01,0,0.02-0.01,0.03-0.01
		c0.02-0.35,0.05-0.7,0.07-1.06c0.01,0,0.02,0,0.04,0c0.09,0.21,0.18,0.42,0.26,0.62c0.01,0,0.03-0.01,0.04-0.01c0-0.33,0-0.67,0-1
		c0.01,0,0.02,0,0.03,0c0.08,0.22,0.16,0.45,0.24,0.67c0.01,0,0.02-0.01,0.02-0.01c0-0.41,0-0.82,0-1.23c0.01,0,0.02,0,0.03-0.01
		c0.08,0.26,0.17,0.53,0.25,0.79c0.02-0.14,0.02-0.28,0.01-0.42c0-0.13-0.07-0.27,0.04-0.43c0.07,0.18,0.13,0.32,0.19,0.46
		c0.01,0,0.03-0.01,0.04-0.01c0-0.24,0-0.49,0-0.73c0.01,0,0.02,0,0.03,0c0.05,0.15,0.1,0.3,0.15,0.46c0.01,0,0.03-0.01,0.04-0.01
		c-0.02-0.2,0.02-0.37,0.17-0.53c0.03,0.05,0.05,0.09,0.07,0.13c-0.03-0.48,0.29-0.78,0.49-1.14c0.02,0.01,0.04,0.01,0.06,0.02
		c-0.12,5.14-0.25,10.27-0.37,15.41H67.78c0.71-31.59,26.63-57.06,58.39-57.06c31.76,0,57.68,25.48,58.39,57.06h-41.7
		C142.67,79.22,142.46,65.62,142.26,57.17z M144.65,49.59c0.01-0.01,0.01-0.04,0.01-0.05c0.38,0.07,0.76,0.13,1.14,0.2
		c0.01-0.01,0.01-0.04,0.01-0.05c-0.25-0.16-0.49-0.33-0.74-0.49c0.01-0.01,0.01-0.04,0.03-0.05c0.4,0.18,0.81,0.37,1.26,0.57
		c-0.18,0.15-0.35,0.26-0.48,0.41c-0.24,0.3-0.54,0.29-0.87,0.21c-0.18-0.05-0.36-0.07-0.54-0.1c0.01-0.02,0.01-0.05,0.01-0.08h1.23
		V50.1C145.35,49.93,145,49.76,144.65,49.59z M146.52,50.73c0.01-0.01,0.03-0.02,0.04-0.04c0.37,0.3,0.76,0.6,1.13,0.9
		c0.01-0.01,0.02-0.02,0.04-0.04c-0.25-0.32-0.51-0.65-0.76-0.97c0.02-0.01,0.04-0.03,0.05-0.04c0.54,0.4,1.08,0.79,1.61,1.18
		c0.01-0.01,0.02-0.02,0.03-0.03c-0.4-0.43-0.79-0.86-1.18-1.28c0.01-0.01,0.03-0.02,0.04-0.04c0.67,0.46,1.34,0.91,2,1.37
		c0,0.02-0.01,0.04-0.01,0.06c-1.81,0.3-3.46,1-5.06,1.93c-0.04-0.29-0.07-0.52-0.1-0.75c0.02-0.01,0.04-0.01,0.07-0.01
		c0.09,0.15,0.18,0.3,0.29,0.5v-0.89c0.01-0.01,0.03-0.01,0.04-0.01c0.08,0.15,0.16,0.29,0.25,0.44c0.02-0.01,0.04-0.01,0.07-0.02
		v-0.97c0.23,0.25,0.4,0.45,0.58,0.65c0.01-0.01,0.03-0.02,0.04-0.04c-0.04-0.32-0.08-0.63-0.12-0.95c0.01-0.01,0.04-0.01,0.05-0.01
		c0.21,0.32,0.43,0.63,0.65,0.95c0.01-0.01,0.02-0.01,0.03-0.02c-0.13-0.37-0.27-0.73-0.4-1.1c0.01-0.01,0.03-0.01,0.04-0.02
		c0.29,0.26,0.59,0.52,0.89,0.79c0.01-0.01,0.03-0.02,0.04-0.03c-0.2-0.36-0.39-0.71-0.59-1.06c0.01-0.01,0.03-0.02,0.04-0.04
		c0.26,0.24,0.51,0.48,0.76,0.72c0.01-0.01,0.02-0.02,0.04-0.03C146.92,51.45,146.72,51.09,146.52,50.73z M148.38,54.69l0.04-0.04
		c0.44,0.28,0.87,0.55,1.31,0.83c-0.01,0.02-0.01,0.04-0.02,0.07c-0.17-0.01-0.34-0.02-0.51-0.04c-0.1-0.01-0.22-0.01-0.27-0.07
		C148.74,55.19,148.56,54.94,148.38,54.69z M148.51,55.44c-0.34,0.07-0.51-0.08-0.73-0.59C148.04,55.05,148.26,55.23,148.51,55.44z
		 M147.69,57.12c-0.21-0.02-0.39-0.08-0.57-0.14c-0.31-0.1-0.32-0.12-0.24-0.5C147.17,56.71,147.43,56.92,147.69,57.12z
		 M147.17,54.98c0.2,0.17,0.35,0.3,0.51,0.44C147.34,55.52,147.29,55.47,147.17,54.98z M147.61,60.71c0.15,0.17,0.19,0.34,0.11,0.57
		C147.45,61.01,147.44,60.94,147.61,60.71z M146.13,56.64c-0.01,0.02-0.01,0.04-0.01,0.07c-0.48-0.08-0.95-0.16-1.42-0.24
		C145.18,56.51,145.69,56.36,146.13,56.64z M144.85,55.34c0.1,0.09,0.2,0.18,0.34,0.29C144.9,55.68,144.82,55.6,144.85,55.34z
		 M145.36,55.03c0.01-0.01,0.02-0.01,0.04-0.03c0.18,0.16,0.36,0.32,0.54,0.48c-0.01,0.03-0.01,0.06-0.01,0.09
		c-0.11-0.01-0.27,0.01-0.33-0.06C145.48,55.38,145.43,55.2,145.36,55.03z M144.5,55.71c-0.25,0.12-0.32,0.07-0.39-0.34
		C144.27,55.5,144.38,55.6,144.5,55.71z M144.16,53.92v-0.57c0.01,0,0.02,0,0.04-0.01c0.08,0.12,0.15,0.25,0.24,0.4
		C144.34,53.8,144.25,53.85,144.16,53.92z M143.91,51.2c0.32-0.05,0.61-0.1,0.95-0.17C144.71,51.27,144.19,51.35,143.91,51.2z
		 M145.23,50.63c0.01,0.02,0.02,0.05,0.03,0.07c-0.09,0.06-0.18,0.16-0.26,0.16c-0.36,0-0.72-0.03-1.08-0.05
		c0-0.01,0-0.04-0.01-0.06C144.35,50.71,144.79,50.67,145.23,50.63z M144.48,51.41c-0.06,0.15-0.14,0.26-0.24,0.35
		c-0.06,0.05-0.15,0.11-0.22,0.1c-0.24-0.03-0.48-0.1-0.72-0.14v-0.05C143.69,51.58,144.08,51.49,144.48,51.41z M143.43,54.36
		c-0.01-0.01-0.02-0.02-0.04-0.03c0.04-0.15,0.1-0.29,0.15-0.48c0.04,0.1,0.07,0.15,0.1,0.25c0.04-0.11,0.06-0.18,0.08-0.25
		c0.02-0.07,0.05-0.14,0.09-0.26c0.1,0.13,0.18,0.23,0.27,0.36C143.86,54.1,143.64,54.23,143.43,54.36z M143.47,58.67
		c-0.03,0.01-0.06,0.01-0.09,0.01v-0.43h0.07C143.46,58.39,143.47,58.53,143.47,58.67z M143.69,52.32
		c-0.15,0.35-0.41,0.19-0.65,0.16C143.26,52.43,143.48,52.37,143.69,52.32z M143.23,52.92c-0.14,0.26-0.25,0.29-0.48,0.12
		C142.92,53.01,143.06,52.96,143.23,52.92z M147.9,61.25c0.15,0.22,0.36,0.41,0.29,0.72C148.08,61.73,147.76,61.59,147.9,61.25z
		 M148.77,62.96c-0.31-0.37-0.48-0.76-0.39-0.91C148.75,62.5,148.85,62.77,148.77,62.96z M148.77,62.02
		c0.02-0.16,0.04-0.32,0.07-0.48c0.03,0,0.05,0,0.08,0.01c-0.01,0.16-0.02,0.32-0.04,0.48C148.84,62.03,148.8,62.02,148.77,62.02z
		 M149.15,63.72c-0.23-0.26-0.32-0.54-0.21-0.7C149.17,63.27,149.26,63.42,149.15,63.72z M149.22,62.49v0.65
		C148.98,62.78,149.04,62.66,149.22,62.49z M150.23,60.54c0.02-0.01,0.05-0.04,0.08-0.06c0.07,0.15,0.15,0.29,0.22,0.44
		c-0.02,0.01-0.04,0.02-0.07,0.04C150.39,60.82,150.31,60.68,150.23,60.54z M101.5,72.63c-0.3,0.05-0.6,0.1-0.89,0.15
		c0-0.01-0.01-0.03-0.01-0.04C100.87,72.57,101.19,72.67,101.5,72.63z M100.71,72.02c0.11-0.1,0.23-0.2,0.34-0.3
		c0.01,0.01,0.02,0.01,0.03,0.02c-0.05,0.1-0.08,0.22-0.15,0.3c-0.03,0.04-0.14,0.03-0.21,0.04
		C100.72,72.06,100.71,72.04,100.71,72.02z M101.18,72.11c0.09-0.08,0.16-0.13,0.22-0.19C101.41,72.09,101.37,72.14,101.18,72.11z
		 M98.45,69.69c0-0.01,0-0.03,0-0.04c0.42-0.29,0.84-0.57,1.26-0.86c0.01,0.01,0.02,0.02,0.02,0.02c-0.25,0.27-0.5,0.54-0.74,0.81
		c0.01,0.01,0.01,0.01,0.02,0.02c0.34-0.25,0.68-0.5,1.02-0.75c0.01,0.01,0.02,0.02,0.03,0.03c-0.16,0.2-0.32,0.41-0.47,0.61
		c0.01,0.01,0.01,0.02,0.02,0.02c0.24-0.19,0.48-0.38,0.72-0.57c0.01,0.01,0.02,0.02,0.03,0.02c-0.13,0.23-0.25,0.45-0.38,0.68
		c0.01,0.01,0.02,0.01,0.02,0.02c0.16-0.15,0.32-0.3,0.48-0.45c0.01,0.01,0.02,0.01,0.02,0.02c-0.12,0.22-0.25,0.45-0.37,0.67
		c0.01,0.01,0.02,0.01,0.03,0.02c0.19-0.17,0.37-0.33,0.56-0.5c0.01,0.01,0.02,0.01,0.03,0.02c-0.09,0.23-0.17,0.46-0.26,0.69
		c0.01,0,0.01,0.01,0.02,0.01c0.13-0.2,0.27-0.4,0.4-0.6c0.01,0,0.02,0.01,0.03,0.01c-0.03,0.2-0.05,0.4-0.08,0.6
		c0.01,0.01,0.02,0.01,0.03,0.02c0.11-0.13,0.22-0.25,0.37-0.41c0,0.23,0,0.42,0,0.61c0.01,0,0.03,0.01,0.04,0.01
		c0.05-0.09,0.1-0.19,0.16-0.28c0.01,0,0.02,0.01,0.03,0.01c0,0.17,0,0.35,0,0.56c0.07-0.12,0.13-0.22,0.18-0.31
		c0.01,0,0.03,0,0.04,0.01c-0.02,0.15-0.04,0.29-0.06,0.47C100.63,70.32,99.59,69.88,98.45,69.69z M99.6,73.05
		c0.17-0.13,0.33-0.26,0.51-0.4c0.05,0.24,0.04,0.26-0.15,0.32C99.85,73,99.74,73.04,99.6,73.05z M99.59,75.66
		c-0.05-0.14-0.03-0.25,0.07-0.36C99.76,75.46,99.76,75.5,99.59,75.66z M99.62,71.98c0.1-0.09,0.2-0.17,0.32-0.28
		C99.86,72.01,99.83,72.03,99.62,71.98z M99.55,71.62c-0.13,0.32-0.24,0.41-0.46,0.37C99.25,71.86,99.39,71.75,99.55,71.62z
		 M98.82,71.98c-0.03,0.04-0.11,0.04-0.17,0.04c-0.11,0.01-0.21,0.02-0.32,0.03c0-0.01-0.01-0.03-0.01-0.04
		c0.28-0.17,0.55-0.35,0.83-0.52c0.01,0.01,0.02,0.02,0.03,0.03C99.06,71.67,98.95,71.83,98.82,71.98z M100.8,68.39
		c0.24-0.04,0.48-0.08,0.72-0.12c0,0.01,0.01,0.02,0.01,0.03c-0.22,0.11-0.45,0.21-0.67,0.32c0,0.01,0,0.02,0,0.03
		c0.26,0,0.52,0,0.77,0c0,0.02,0,0.04,0.01,0.05c-0.11,0.02-0.23,0.03-0.34,0.06c-0.21,0.06-0.4,0.06-0.55-0.13
		c-0.07-0.09-0.18-0.16-0.3-0.26c0.28-0.12,0.53-0.24,0.79-0.36c0.01,0.01,0.01,0.02,0.02,0.03c-0.16,0.1-0.31,0.21-0.47,0.31
		C100.79,68.37,100.8,68.38,100.8,68.39z M101.31,69.1c-0.06,0-0.11-0.06-0.17-0.1c0.01-0.02,0.01-0.03,0.02-0.05
		c0.28,0.03,0.56,0.05,0.83,0.08c0,0.01,0,0.03,0,0.04C101.76,69.08,101.53,69.1,101.31,69.1z M101.99,69.32
		c-0.17,0.09-0.5,0.04-0.59-0.11C101.6,69.25,101.79,69.28,101.99,69.32z M101.81,70.66c0.01,0,0.02,0,0.03,0c0,0.11,0,0.23,0,0.36
		c-0.06-0.04-0.12-0.08-0.18-0.12C101.71,70.82,101.76,70.74,101.81,70.66z M101.87,71.94c-0.05,0.26-0.09,0.29-0.25,0.21
		C101.7,72.09,101.77,72.03,101.87,71.94z M101.78,69.67c-0.06-0.06-0.11-0.13-0.15-0.22c0.25,0.06,0.5,0.11,0.74,0.17
		c0,0.01,0,0.02,0,0.03c-0.15,0.03-0.3,0.07-0.45,0.09C101.88,69.74,101.82,69.7,101.78,69.67z M102.05,70.82
		c0.02,0.08,0.04,0.12,0.05,0.16c0.01,0.04,0.03,0.09,0.05,0.16c0.03-0.06,0.04-0.1,0.07-0.16c0.04,0.12,0.07,0.21,0.1,0.3
		c-0.01,0.01-0.02,0.01-0.02,0.02c-0.13-0.08-0.26-0.16-0.41-0.26C101.94,70.97,101.99,70.91,102.05,70.82z M102.28,73.76
		c0.01,0,0.03,0,0.04,0c0,0.09,0,0.18,0,0.27c-0.02,0-0.04,0-0.05,0C102.27,73.94,102.27,73.85,102.28,73.76z M102.13,70.02
		c0.14,0.03,0.27,0.07,0.41,0.1C102.39,70.14,102.22,70.23,102.13,70.02z M102.72,70.48c-0.14,0.1-0.21,0.09-0.3-0.08
		C102.53,70.43,102.62,70.45,102.72,70.48z M99.47,75.65c0.09,0.22-0.11,0.31-0.18,0.45C99.25,75.91,99.38,75.79,99.47,75.65z
		 M99.17,76.15c0.06,0.1-0.05,0.35-0.24,0.58C98.87,76.61,98.94,76.44,99.17,76.15z M98.86,76.14c-0.01-0.1-0.02-0.21-0.02-0.31
		c0.02,0,0.03,0,0.05,0c0.01,0.1,0.03,0.2,0.04,0.3C98.9,76.14,98.88,76.14,98.86,76.14z M98.82,76.77c0.07,0.1,0.01,0.28-0.14,0.44
		C98.62,77.02,98.68,76.92,98.82,76.77z M98.64,76.85c0-0.16,0-0.29,0-0.42C98.75,76.54,98.79,76.62,98.64,76.85z M98,75.2
		c-0.05,0.09-0.1,0.17-0.15,0.26c-0.02-0.01-0.03-0.02-0.05-0.02c0.05-0.09,0.09-0.18,0.14-0.27C97.97,75.18,97.99,75.19,98,75.2z"
		/>
</g>
</svg>
